<svg width="33" height="29" viewBox="0 0 33 29" fill="none" xmlns="http://www.w3.org/2000/svg">
<path id="Vector" fill-rule="evenodd" clip-rule="evenodd" d="M6.20035 0.322898C6.22073 0.232053 6.2713 0.150736 6.34384 0.0921265C6.41639 0.0335169 6.50664 0.00105159 6.60001 0C6.69332 0.00126742 6.7835 0.0338124 6.856 0.0923868C6.9285 0.150961 6.9791 0.232155 6.99967 0.322898L7.42746 2.0897C7.65061 3.02042 8.11848 3.87506 8.78291 4.56567C9.43651 5.24409 10.2656 5.72906 11.1785 5.96694L12.8871 6.40925C12.978 6.43386 13.0581 6.48794 13.1148 6.56295C13.1714 6.63796 13.2014 6.72964 13.2 6.82353C13.2 7.01848 13.0717 7.18908 12.8871 7.23782L11.1785 7.67891C10.2716 7.91408 9.44413 8.39782 8.78291 9.08139C8.12291 9.76496 7.65357 10.6216 7.42746 11.5586L6.99967 13.3242C6.9793 13.415 6.92876 13.4963 6.85622 13.5549C6.78368 13.6135 6.69338 13.646 6.60001 13.6471C6.41057 13.6471 6.24557 13.5142 6.20035 13.3242L5.77257 11.5586C5.54971 10.6271 5.08137 9.77192 4.41592 9.08139C3.7624 8.40287 2.9333 7.91788 2.02038 7.68013L0.312931 7.2366C0.222244 7.21204 0.1423 7.15814 0.0856667 7.08338C0.0290375 7.00861 -0.001091 6.91721 3.05176e-05 6.82353C-0.000736237 6.72979 0.0294838 6.63841 0.0860405 6.56353C0.142601 6.48864 0.222359 6.43442 0.312931 6.40925L2.02038 5.96815C2.93346 5.73011 3.76259 5.24469 4.41592 4.56567C5.08127 3.87507 5.5496 3.01989 5.77257 2.08848L6.20035 0.322898ZM21.0528 5.42715C21.0758 5.33929 21.1272 5.2614 21.1989 5.20548C21.2707 5.14956 21.3589 5.1187 21.45 5.11764C21.541 5.11856 21.6291 5.14939 21.7007 5.20535C21.7723 5.26132 21.8234 5.33928 21.846 5.42715L23.1892 10.284C23.5127 11.4606 24.1261 12.5379 24.9737 13.418C25.8072 14.2834 26.8515 14.9185 28.0048 15.2616L32.7005 16.6482C32.788 16.6756 32.8643 16.7303 32.9182 16.8043C32.9721 16.8782 33.0008 16.9674 33 17.0588C33 17.2489 32.8778 17.4171 32.7005 17.4694L28.0035 18.8573C26.8502 19.2008 25.8059 19.8364 24.9724 20.7021C24.1291 21.5733 23.5155 22.6517 23.188 23.836L21.8472 28.6905C21.8242 28.7784 21.7729 28.8562 21.7011 28.9122C21.6293 28.9681 21.5411 28.9989 21.45 29C21.3589 28.9989 21.2707 28.9681 21.1989 28.9122C21.1272 28.8562 21.0758 28.7784 21.0528 28.6905L19.7193 23.8641C19.3981 22.6757 18.7814 21.5874 17.9263 20.6997C17.0928 19.8343 16.0485 19.1991 14.8952 18.8561L10.1995 17.4694C10.112 17.442 10.0357 17.3873 9.98178 17.3134C9.92787 17.2395 9.89921 17.1502 9.90002 17.0588C9.89921 16.9674 9.92787 16.8782 9.98178 16.8043C10.0357 16.7303 10.112 16.6756 10.1995 16.6482L14.8964 15.2603C16.0497 14.9169 17.0941 14.2813 17.9276 13.4155C18.7755 12.5358 19.389 11.4584 19.712 10.2816L21.0528 5.42715Z" fill="#FE5F0A"/>
</svg>
