<svg width="21" height="20" viewBox="0 0 21 20" fill="none" xmlns="http://www.w3.org/2000/svg">
<g id="check-circle-1">
<path id="Shape" d="M10.5 0C4.97715 0 0.5 4.47715 0.5 10C0.5 15.5228 4.97715 20 10.5 20C16.0228 20 20.5 15.5228 20.5 10C20.4936 4.47982 16.0202 0.00642897 10.5 0Z" fill="#FE5F0A" fill-opacity="0.103693"/>
<path id="Path" d="M16.2725 6.83337L10.5684 14.5742C10.4323 14.7547 10.2295 14.873 10.0054 14.9024C9.7813 14.9319 9.55478 14.8701 9.37671 14.7309L5.30338 11.4742C4.94393 11.1866 4.88573 10.662 5.17338 10.3025C5.46102 9.94309 5.9856 9.88489 6.34504 10.1725L9.74171 12.89L14.9309 5.84754C15.101 5.5922 15.3978 5.45103 15.7032 5.48007C16.0087 5.50912 16.2735 5.70368 16.3925 5.98652C16.5115 6.26935 16.4654 6.59469 16.2725 6.83337Z" fill="#FE5F0A"/>
</g>
</svg>
