<svg width="147" height="37" viewBox="0 0 147 37" fill="none" xmlns="http://www.w3.org/2000/svg">
<g id="Logo">
<g id="Logo_00000152252198802825745780000009429480163290314400_">
<g id="Bot_00000057828370298351796280000015907047044587831727_">
<path id="Shape_00000120552856337946074520000001014916316248591237_" d="M40.2588 18.3947C40.1382 17.9573 40.0878 17.4866 37.8765 16.7765C37.6371 14.9036 37.2456 13.1522 36.603 12.4295C36.3096 12.1001 34.9749 10.2947 26.415 9.6944C25.7373 7.6595 25.2801 7.6082 24.8553 7.4912C24.4305 7.3742 22.8708 7.2905 21.375 7.2617V4.6985C22.0473 4.3097 22.5 3.5825 22.5 2.75C22.5 1.5071 21.4929 0.5 20.25 0.5C19.0071 0.5 18 1.5071 18 2.75C18 3.5825 18.4527 4.3088 19.125 4.6985V7.2617C17.6292 7.2905 16.0695 7.3742 15.6447 7.4912C15.2199 7.6082 14.7627 7.6595 14.085 9.6944C5.5251 10.2947 4.1904 12.0992 3.897 12.4295C3.2544 13.1522 2.8629 14.9027 2.6235 16.7765C0.411299 17.4875 0.361799 17.9582 0.241199 18.3947C0.0935993 18.9293 0 21.2603 0 23C0 24.7397 0.0935993 27.0707 0.241199 27.6053C0.361799 28.0427 0.412199 28.5134 2.6235 29.2235C2.8629 31.0964 3.2544 32.8478 3.897 33.5705C4.2498 33.9674 6.1092 36.5 20.25 36.5C34.3908 36.5 36.2502 33.9674 36.603 33.5705C37.2456 32.8478 37.6371 31.0973 37.8765 29.2235C40.0887 28.5125 40.1382 28.0418 40.2588 27.6053C40.4064 27.0707 40.5 24.7397 40.5 23C40.5 21.2603 40.4064 18.9293 40.2588 18.3947ZM32.5152 30.047C32.2506 30.3116 30.8556 32 20.25 32C9.6444 32 8.2494 30.3116 7.9848 30.047C6.7419 28.8041 6.75 23 6.75 23C6.75 23 6.7419 17.1959 7.9848 15.953C8.2494 15.6884 9.6444 14 20.25 14C30.8556 14 32.2506 15.6884 32.5152 15.953C33.7581 17.1959 33.75 23 33.75 23C33.75 23 33.7581 28.8041 32.5152 30.047Z" fill="#FE5F0A"/>
<path id="Eye_00000039102408195993181580000007205830020967374262_" d="M13.5 27.5C14.7426 27.5 15.75 25.4853 15.75 23C15.75 20.5147 14.7426 18.5 13.5 18.5C12.2574 18.5 11.25 20.5147 11.25 23C11.25 25.4853 12.2574 27.5 13.5 27.5Z" fill="#FE5F0A"/>
<path id="Eye_00000063599107127545749460000013832074823972104376_" d="M27 27.5C28.2426 27.5 29.25 25.4853 29.25 23C29.25 20.5147 28.2426 18.5 27 18.5C25.7574 18.5 24.75 20.5147 24.75 23C24.75 25.4853 25.7574 27.5 27 27.5Z" fill="#FE5F0A"/>
<path id="Mouth_00000147192968133874269390000009028409866689723818_" d="M22.5 27.5C22.5 28.7429 21.4929 29.75 20.25 29.75C19.0071 29.75 18 28.7429 18 27.5H22.5Z" fill="#FE5F0A"/>
</g>
<g id="Wordmark_00000016046978725198199690000002322603044741471150_">
<g id="c_00000102514971680961468160000004962251649298293427_">
<path id="Vector" d="M48.6 27.5C46.1187 27.5 44.1 25.4813 44.1 23C44.1 20.5187 46.1187 18.5 48.6 18.5C50.2002 18.5 51.6933 19.3622 52.4961 20.7491C52.7454 21.1793 52.5978 21.7301 52.1676 21.9785C51.7374 22.2278 51.1866 22.0802 50.9382 21.65C50.4558 20.8175 49.5603 20.3 48.6 20.3C47.1114 20.3 45.9 21.5114 45.9 23C45.9 24.4886 47.1114 25.7 48.6 25.7C49.5603 25.7 50.4558 25.1825 50.9382 24.3491C51.1875 23.9189 51.7374 23.7722 52.1676 24.0206C52.5978 24.2699 52.7445 24.8198 52.4961 25.25C51.6933 26.6378 50.2002 27.5 48.6 27.5Z" fill="#141414"/>
</g>
<g id="o_00000095328806958581640210000001953548791857495945_">
<path id="Vector_2" d="M59.4 27.5C56.9187 27.5 54.9 25.4813 54.9 23C54.9 20.5187 56.9187 18.5 59.4 18.5C61.8813 18.5 63.9 20.5187 63.9 23C63.9 25.4813 61.8813 27.5 59.4 27.5ZM59.4 20.3C57.9114 20.3 56.7 21.5114 56.7 23C56.7 24.4886 57.9114 25.7 59.4 25.7C60.8886 25.7 62.1 24.4886 62.1 23C62.1 21.5114 60.8886 20.3 59.4 20.3Z" fill="#141414"/>
</g>
<path id="m_00000108308102080079695830000015911755455944198529_" d="M77.4 18.5C75.9294 18.5 74.6217 19.2092 73.8 20.3027C72.9783 19.2083 71.6706 18.5 70.2 18.5C67.7187 18.5 65.7 20.5187 65.7 23V26.6C65.7 27.0968 66.1032 27.5 66.6 27.5C67.0968 27.5 67.5 27.0968 67.5 26.6V23C67.5 21.5114 68.7114 20.3 70.2 20.3C71.6886 20.3 72.9 21.5114 72.9 23V26.6C72.9 27.0968 73.3032 27.5 73.8 27.5C74.2968 27.5 74.7 27.0968 74.7 26.6V23C74.7 21.5114 75.9114 20.3 77.4 20.3C78.8886 20.3 80.1 21.5114 80.1 23V26.6C80.1 27.0968 80.5032 27.5 81 27.5C81.4968 27.5 81.9 27.0968 81.9 26.6V23C81.9 20.5187 79.8813 18.5 77.4 18.5Z" fill="#141414"/>
<path id="p_00000052070249061638267320000013718582183534966459_" d="M88.2 18.5C85.7187 18.5 83.7 20.5187 83.7 23V30.2C83.7 30.6968 84.1032 31.1 84.6 31.1C85.0968 31.1 85.5 30.6968 85.5 30.2V26.5973C86.2524 27.1634 87.1875 27.5 88.2 27.5C90.6813 27.5 92.7 25.4813 92.7 23C92.7 20.5187 90.6813 18.5 88.2 18.5ZM88.2 25.7C86.7114 25.7 85.5 24.4886 85.5 23C85.5 21.5114 86.7114 20.3 88.2 20.3C89.6886 20.3 90.9 21.5114 90.9 23C90.9 24.4886 89.6886 25.7 88.2 25.7Z" fill="#141414"/>
<path id="a_00000135651127500450421310000002841102887975291071_" d="M99 18.5C96.5187 18.5 94.5 20.5187 94.5 23C94.5 25.4813 96.5187 27.5 99 27.5C100.013 27.5 100.948 27.1643 101.7 26.5973V26.6C101.7 27.0968 102.103 27.5 102.6 27.5C103.097 27.5 103.5 27.0968 103.5 26.6V23C103.5 20.5187 101.481 18.5 99 18.5ZM99 25.7C97.5114 25.7 96.3 24.4886 96.3 23C96.3 21.5114 97.5114 20.3 99 20.3C100.489 20.3 101.7 21.5114 101.7 23C101.7 24.4886 100.489 25.7 99 25.7Z" fill="#141414"/>
<path id="n_00000132770953222462890070000011284398855346090427_" d="M109.8 18.5C107.319 18.5 105.3 20.5187 105.3 23V26.6C105.3 27.0968 105.703 27.5 106.2 27.5C106.697 27.5 107.1 27.0968 107.1 26.6V23C107.1 21.5114 108.311 20.3 109.8 20.3C111.289 20.3 112.5 21.5114 112.5 23V26.6C112.5 27.0968 112.903 27.5 113.4 27.5C113.897 27.5 114.3 27.0968 114.3 26.6V23C114.3 20.5187 112.281 18.5 109.8 18.5Z" fill="#141414"/>
<path id="y_00000153668461281119627520000006119151543251322524_" d="M124.2 18.5C123.703 18.5 123.3 18.9032 123.3 19.4V23C123.3 24.4886 122.089 25.7 120.6 25.7C119.111 25.7 117.9 24.4886 117.9 23V19.4C117.9 18.9032 117.497 18.5 117 18.5C116.503 18.5 116.1 18.9032 116.1 19.4V23C116.1 25.4813 118.119 27.5 120.6 27.5C121.612 27.5 122.548 27.1634 123.3 26.5973V30.2C123.3 30.6968 123.703 31.1 124.2 31.1C124.697 31.1 125.1 30.6968 125.1 30.2V23V19.4C125.1 18.9032 124.697 18.5 124.2 18.5Z" fill="#141414"/>
<path id="o_00000163050583316395303650000007233201271366725514_" d="M131.4 27.5C128.919 27.5 126.9 25.4813 126.9 23C126.9 20.5187 128.919 18.5 131.4 18.5C133.881 18.5 135.9 20.5187 135.9 23C135.9 25.4813 133.881 27.5 131.4 27.5ZM131.4 20.3C129.911 20.3 128.7 21.5114 128.7 23C128.7 24.4886 129.911 25.7 131.4 25.7C132.889 25.7 134.1 24.4886 134.1 23C134.1 21.5114 132.889 20.3 131.4 20.3Z" fill="#141414"/>
<path id="n_00000165199545582835126650000012159557449961015706_" d="M142.2 18.5C139.719 18.5 137.7 20.5187 137.7 23V26.6C137.7 27.0968 138.103 27.5 138.6 27.5C139.097 27.5 139.5 27.0968 139.5 26.6V23C139.5 21.5114 140.711 20.3 142.2 20.3C143.689 20.3 144.9 21.5114 144.9 23V26.6C144.9 27.0968 145.303 27.5 145.8 27.5C146.297 27.5 146.7 27.0968 146.7 26.6V23C146.7 20.5187 144.681 18.5 142.2 18.5Z" fill="#141414"/>
</g>
</g>
</g>
</svg>
