<svg width="27" height="28" viewBox="0 0 27 28" fill="none" xmlns="http://www.w3.org/2000/svg">
<path id="Vector" fill-rule="evenodd" clip-rule="evenodd" d="M21.927 0.264999C21.9103 0.190443 21.869 0.123708 21.8096 0.0756073C21.7503 0.027507 21.6764 0.000863033 21.6 0C21.5237 0.00104016 21.4499 0.0277495 21.3906 0.0758209C21.3313 0.123892 21.2899 0.190527 21.273 0.264999L20.923 1.715C20.7404 2.47883 20.3576 3.18022 19.814 3.747C19.2792 4.30377 18.6009 4.70178 17.854 4.897L16.456 5.26C16.3816 5.2802 16.3161 5.32458 16.2698 5.38615C16.2234 5.44771 16.1989 5.52295 16.2 5.6C16.2 5.76 16.305 5.9 16.456 5.94L17.854 6.302C18.596 6.495 19.273 6.892 19.814 7.453C20.354 8.014 20.738 8.717 20.923 9.486L21.273 10.935C21.2897 11.0096 21.331 11.0763 21.3904 11.1244C21.4497 11.1725 21.5236 11.1991 21.6 11.2C21.755 11.2 21.89 11.091 21.927 10.935L22.277 9.486C22.4594 8.72157 22.8425 8.01972 23.387 7.453C23.9217 6.89615 24.6001 6.49812 25.347 6.303L26.744 5.939C26.8182 5.91884 26.8836 5.87461 26.9299 5.81326C26.9763 5.7519 27.0009 5.67688 27 5.6C27.0006 5.52307 26.9759 5.44808 26.9296 5.38662C26.8834 5.32516 26.8181 5.28066 26.744 5.26L25.347 4.898C24.5999 4.70265 23.9215 4.30426 23.387 3.747C22.8426 3.18023 22.4594 2.47839 22.277 1.714L21.927 0.264999ZM9.77501 4.454C9.75616 4.3819 9.71416 4.31798 9.65544 4.27209C9.59672 4.22619 9.52455 4.20086 9.45003 4.2C9.37559 4.20075 9.30347 4.22605 9.24489 4.27198C9.1863 4.31791 9.14452 4.38189 9.12602 4.454L8.02702 8.44C7.76235 9.40563 7.26044 10.2898 6.567 11.012C5.885 11.7222 5.03056 12.2435 4.08702 12.525L0.245009 13.663C0.173449 13.6855 0.111019 13.7304 0.0669084 13.7911C0.0227979 13.8518 -0.000654151 13.925 1.38858e-05 14C1.38858e-05 14.156 0.100009 14.294 0.245009 14.337L4.08803 15.476C5.03164 15.7579 5.88607 16.2795 6.56801 16.99C7.25801 17.705 7.76003 18.59 8.02803 19.562L9.12501 23.546C9.14386 23.6181 9.18586 23.682 9.24458 23.7279C9.3033 23.7738 9.3755 23.7991 9.45003 23.8C9.52455 23.7991 9.59672 23.7738 9.65544 23.7279C9.71416 23.682 9.75616 23.6181 9.77501 23.546L10.866 19.585C11.1289 18.6097 11.6334 17.7165 12.333 16.988C13.015 16.2778 13.8695 15.7565 14.813 15.475L18.655 14.337C18.7266 14.3145 18.789 14.2696 18.8331 14.2089C18.8772 14.1482 18.9007 14.075 18.9 14C18.9007 13.925 18.8772 13.8518 18.8331 13.7911C18.789 13.7304 18.7266 13.6855 18.655 13.663L14.812 12.524C13.8684 12.2421 13.014 11.7205 12.332 11.01C11.6382 10.288 11.1363 9.40379 10.872 8.438L9.77501 4.454ZM19.895 19.139C19.874 19.0703 19.8316 19.0102 19.7741 18.9672C19.7166 18.9242 19.6468 18.9007 19.575 18.9C19.5032 18.9007 19.4335 18.9242 19.3759 18.9672C19.3184 19.0102 19.276 19.0703 19.255 19.139L18.723 20.796C18.5917 21.2055 18.3688 21.5797 18.071 21.89C17.7772 22.1954 17.4154 22.427 17.015 22.566L15.418 23.118C15.3499 23.1425 15.2911 23.1877 15.2499 23.2472C15.2087 23.3067 15.187 23.3776 15.188 23.45C15.188 23.601 15.28 23.734 15.418 23.782L17.015 24.334C17.413 24.471 17.774 24.703 18.071 25.01C18.367 25.317 18.59 25.692 18.723 26.104L19.255 27.761C19.276 27.8297 19.3184 27.8899 19.3759 27.9328C19.4335 27.9758 19.5032 27.9993 19.575 28C19.6468 27.9993 19.7166 27.9758 19.7741 27.9328C19.8316 27.8899 19.874 27.8297 19.895 27.761L20.427 26.104C20.56 25.692 20.783 25.317 21.079 25.01C21.3728 24.7046 21.7347 24.473 22.135 24.334L23.732 23.782C23.8001 23.7575 23.8589 23.7123 23.9001 23.6528C23.9413 23.5933 23.963 23.5224 23.962 23.45C23.963 23.3776 23.9413 23.3067 23.9001 23.2472C23.8589 23.1877 23.8001 23.1425 23.732 23.118L22.135 22.566C21.7347 22.427 21.3728 22.1954 21.079 21.89C20.7813 21.5797 20.5583 21.2055 20.427 20.796L19.895 19.139Z" fill="#FE5F0A"/>
</svg>
