<svg xmlns="http://www.w3.org/2000/svg" width="60" height="20" viewBox="0 0 60 20">
    <path fill="#181a26" d="M0 .398l7.959.173c1.153-.102 2.22.636 2.561 1.772l2.06 11.14L17.652.338h5.072l-7.848 19.32H9.741L5.844 4.286c-.061-.745-.508-1.4-1.169-1.714m38.127 10.802c0-5.087-6.846-5.373-6.791-7.659 0-.686.668-1.43 2.06-1.6 1.643-.178 3.302.12 4.79.858l.835-4.115C42.24.285 40.692-.006 39.132 0c-4.791 0-8.182 2.63-8.182 6.403-.057 2.8 2.395 4.34 4.226 5.259 1.892.972 2.505 1.543 2.505 2.4 0 1.315-1.503 1.88-2.893 1.88-1.742.035-3.464-.378-5.01-1.2l-.89 4.229c1.72.691 3.551 1.04 5.398 1.029 5.176 0 8.515-2.63 8.515-6.631m12.69 6.288H60L56.11.397h-4.124c-.91-.01-1.73.56-2.06 1.43l-7.342 17.834h5.122l1.002-2.858h6.234l.55 2.853zm-5.399-6.8l2.56-7.26 1.447 7.26h-4.007zM29.664.397l-4.005 19.264h-4.843L24.825.398l4.839-.001z"/>
</svg>
