<svg width="20" height="20" viewBox="0 0 20 20" fill="none" xmlns="http://www.w3.org/2000/svg">
<path d="M10 20C15.5228 20 20 15.5228 20 10C20 4.47715 15.5228 0 10 0C4.47715 0 0 4.47715 0 10C0 15.5228 4.47715 20 10 20Z" fill="#FD4100"/>
<path d="M14.9998 10.8327H10.8332V14.9993C10.8332 15.4577 10.4582 15.8327 9.99984 15.8327C9.5415 15.8327 9.1665 15.4577 9.1665 14.9993V10.8327H4.99984C4.5415 10.8327 4.1665 10.4577 4.1665 9.99935C4.1665 9.54102 4.5415 9.16602 4.99984 9.16602H9.1665V4.99935C9.1665 4.54102 9.5415 4.16602 9.99984 4.16602C10.4582 4.16602 10.8332 4.54102 10.8332 4.99935V9.16602H14.9998C15.4582 9.16602 15.8332 9.54102 15.8332 9.99935C15.8332 10.4577 15.4582 10.8327 14.9998 10.8327Z" fill="white"/>
</svg>
