<svg
      width="100%"
      height="100%"
      viewBox="0 0 24 24"
      fill="none"
      xmlns="http://www.w3.org/2000/svg"
    >
      <path
        opacity="0.4"
        d="M12 22C17.5228 22 22 17.5228 22 12C22 6.47715 17.5228 2 12 2C6.47715 2 2 6.47715 2 12C2 17.5228 6.47715 22 12 22Z"
      />
      <path
        d="M12.2 17.3808C11.5 17.3808 10.79 17.1108 10.26 16.5808C9.74001 16.0608 9.45001 15.3708 9.45001 14.6408C9.45001 13.9108 9.74001 13.2108 10.26 12.7008L11.67 11.2908C11.96 11.0008 12.44 11.0008 12.73 11.2908C13.02 11.5808 13.02 12.0608 12.73 12.3508L11.32 13.7608C11.08 14.0008 10.95 14.3108 10.95 14.6408C10.95 14.9708 11.08 15.2908 11.32 15.5208C11.81 16.0108 12.6 16.0108 13.09 15.5208L15.31 13.3008C16.58 12.0308 16.58 9.97079 15.31 8.70079C14.04 7.43079 11.98 7.43079 10.71 8.70079L8.28998 11.1208C7.77998 11.6308 7.5 12.3008 7.5 13.0108C7.5 13.7208 7.77998 14.4008 8.28998 14.9008C8.57998 15.1908 8.57998 15.6708 8.28998 15.9608C7.99998 16.2508 7.51998 16.2508 7.22998 15.9608C6.43998 15.1708 6.01001 14.1208 6.01001 13.0008C6.01001 11.8808 6.43998 10.8308 7.22998 10.0408L9.65002 7.62078C11.5 5.77078 14.52 5.77078 16.37 7.62078C18.22 9.47078 18.22 12.4908 16.37 14.3408L14.15 16.5608C13.61 17.1108 12.91 17.3808 12.2 17.3808Z"
      />
    </svg>