<svg xmlns="http://www.w3.org/2000/svg" width="506" height="604" viewBox="0 0 506 604" fill="none">
  <path d="M148.546 538.433C139.469 541.351 135.885 542.889 134.325 547.513C132.662 552.408 128.082 555.5 123.181 555.5C121.935 555.5 120.656 555.298 119.407 554.871C113.251 552.785 109.957 546.106 112.04 539.953C117.56 523.68 131.308 519.262 141.347 516.039C150.42 513.122 154.004 511.58 155.567 506.959C157.121 502.395 155.215 499.06 149.8 491.366C143.744 482.765 135.449 470.986 140.979 454.67C146.509 438.4 160.253 433.991 170.286 430.772C179.359 427.863 182.928 426.328 184.491 421.72C186.574 415.57 193.29 412.27 199.409 414.362C205.565 416.448 208.856 423.124 206.773 429.28C201.252 445.543 187.508 449.952 177.476 453.172C168.402 456.08 164.824 457.615 163.255 462.23C161.708 466.792 163.616 470.127 169.028 477.821C175.087 486.421 183.379 498.2 177.849 514.52C172.329 530.792 158.584 535.211 148.546 538.433ZM181.337 600.254C184.454 601.31 187.023 602.739 189.345 604.315H151.852C159.528 599.709 169.159 596.128 181.337 600.254ZM120.011 600.675C120.444 602.017 120.842 603.203 121.229 604.315H96.4242C94.1822 597.853 92.4728 595.011 88.5308 593.675C83.9785 592.14 80.6747 594.039 73.0242 599.466C70.8196 601.026 68.4002 602.73 65.7566 604.315H28.3945C18.583 597.67 15.0675 587.189 12.4489 579.068C9.5219 569.982 7.98063 566.408 3.37847 564.848C-2.77435 562.764 -6.075 556.089 -3.99188 549.936C-1.90877 543.777 4.73607 540.485 10.9231 542.565C27.1708 548.067 31.6016 561.812 34.8368 571.847C37.7669 580.933 39.3051 584.511 43.9073 586.068C48.4503 587.597 51.7696 585.691 59.4201 580.276C67.9986 574.192 79.7624 565.881 96.0723 571.393C112.329 576.895 116.77 590.639 120.011 600.675ZM79.4728 491.767C88.1353 491.767 95.1569 498.789 95.1569 507.448C95.1569 516.111 88.1353 523.132 79.4728 523.132C70.8103 523.132 63.7888 516.111 63.7888 507.448C63.7888 498.789 70.8103 491.767 79.4728 491.767ZM227 559.414C227 568.077 219.979 575.098 211.316 575.098C202.657 575.098 195.635 568.077 195.635 559.414C195.635 550.751 202.657 543.73 211.316 543.73C219.979 543.73 227 550.751 227 559.414ZM-71.268 355.098C-62.6055 355.098 -55.584 362.119 -55.584 370.782C-55.584 379.441 -62.6055 386.463 -71.268 386.463C-79.9305 386.463 -86.949 379.441 -86.949 370.782C-86.949 362.119 -79.9305 355.098 -71.268 355.098ZM-0.990158 506.741C-10.372 505.185 -14.2673 504.907 -17.7672 508.286C-20.0496 510.49 -22.9983 511.586 -25.9377 511.586C-29.0173 511.586 -32.0968 510.381 -34.401 507.993C-38.9097 503.319 -38.782 495.871 -34.1083 491.359C-21.7497 479.434 -7.52288 481.806 2.87712 483.538C12.2901 485.101 16.1481 485.368 19.6542 481.996C23.126 478.649 22.9548 474.813 21.6625 465.49C20.224 455.071 18.2374 440.804 30.6302 428.835C42.9888 416.903 57.2187 419.263 67.6311 420.988C77.0191 422.561 80.9176 422.822 84.433 419.431C87.9111 416.071 87.7492 412.229 86.4632 402.897C85.0215 392.475 83.0474 378.202 95.4527 366.22C107.805 354.291 122.063 356.648 132.463 358.367C141.888 359.93 145.756 360.201 149.28 356.801C153.957 352.292 161.393 352.42 165.911 357.094C170.423 361.764 170.292 369.209 165.622 373.724C153.254 385.659 139.042 383.305 128.611 381.574C119.208 380.017 115.319 379.743 111.794 383.14C108.319 386.503 108.478 390.345 109.767 399.677C111.205 410.099 113.182 424.373 100.774 436.355C88.4062 448.305 74.1794 445.929 63.7732 444.195C54.3758 442.626 50.4774 442.361 46.9713 445.755C43.5088 449.096 43.6706 452.932 44.966 462.255C46.4108 472.677 48.3943 486.947 35.9984 498.92C23.646 510.848 9.41607 508.476 -0.990158 506.741ZM-40.9087 509.84C-33.0309 525.1 -39.3985 538.082 -44.0443 547.554C-48.2541 556.135 -49.6335 559.785 -47.3947 564.116C-44.418 569.892 -46.6848 576.985 -52.4546 579.965C-54.1796 580.852 -56.023 581.279 -57.8383 581.279C-62.098 581.279 -66.2113 578.953 -68.3006 574.908C-76.1785 559.644 -69.8139 546.669 -65.165 537.191C-60.9583 528.616 -59.5758 524.963 -61.8146 520.629C-64.0223 516.35 -67.7401 515.41 -77.0316 513.99C-83.4335 513.006 -91.2865 511.776 -98.2271 507.42V414.885C-92.1209 417.507 -86.2951 421.879 -82.1849 429.841C-74.3133 445.098 -80.681 458.073 -85.3329 467.542C-89.5397 476.117 -90.9191 479.767 -88.6865 484.092C-86.4819 488.37 -82.7641 489.31 -73.4694 490.733C-63.0694 492.328 -48.8208 494.511 -40.9087 509.84ZM19.1279 399.201C19.1279 407.864 12.1064 414.885 3.44697 414.885C-5.21555 414.885 -12.2371 407.864 -12.2371 399.201C-12.2371 390.542 -5.21555 383.52 3.44697 383.52C12.1064 383.52 19.1279 390.542 19.1279 399.201ZM505.723 159.568V184.26C502.622 182.691 500.196 182.218 497.41 183.152C492.864 184.681 491.375 188.206 488.57 197.164C485.425 207.2 481.118 220.947 464.78 226.443C461.038 227.701 457.528 228.233 454.24 228.233C443.227 228.233 434.67 222.276 428.007 217.64C420.172 212.188 416.785 210.276 412.167 211.827C406.005 213.894 399.335 210.581 397.267 204.425C395.197 198.269 398.51 191.6 404.669 189.526C420.926 184.039 432.786 192.306 441.443 198.328C449.28 203.787 452.677 205.705 457.282 204.142C461.828 202.613 463.317 199.088 466.122 190.13C469.267 180.094 473.574 166.347 489.912 160.851C495.734 158.896 500.972 158.743 505.723 159.568ZM316.372 603.72C317.954 603.888 319.644 604.084 321.369 604.315H278.032C273.28 591.57 278.163 580.258 281.868 571.729C285.676 562.967 286.884 559.261 284.452 555.042C282.061 550.892 278.306 550.129 268.968 549.151C258.502 548.046 244.173 546.539 235.563 531.605C226.991 516.737 232.758 503.488 236.964 493.81C240.772 485.06 241.987 481.355 239.558 477.151C236.314 471.522 238.247 464.332 243.877 461.084C249.5 457.836 256.696 459.776 259.944 465.403C268.513 480.271 262.746 493.523 258.536 503.195C254.731 511.948 253.517 515.653 255.946 519.86C258.334 524.01 262.089 524.77 271.431 525.751C281.899 526.853 296.229 528.363 304.838 543.294C313.411 558.172 307.65 571.427 303.446 581.105C299.638 589.867 298.43 593.572 300.862 597.791C303.263 601.957 307.024 602.727 316.372 603.72ZM505.723 24.77V51.321C503.646 54.2167 503.665 58.1589 504.257 65.9122C505.06 76.3994 506.156 90.7601 493.022 101.929C479.938 113.042 465.87 109.776 455.601 107.388C446.306 105.23 442.442 104.71 438.737 107.864C435.097 110.959 435.025 114.78 435.751 124.13C436.557 134.611 437.669 148.972 424.541 160.132C411.479 171.242 397.414 167.975 387.132 165.578C377.841 163.414 373.986 162.897 370.29 166.035C368.082 167.916 365.373 168.835 362.677 168.835C359.348 168.835 356.038 167.427 353.712 164.69C349.502 159.743 350.109 152.319 355.057 148.11C368.126 137.009 382.194 140.275 392.463 142.664C401.755 144.828 405.612 145.348 409.305 142.206C412.945 139.111 413.017 135.287 412.295 125.939C411.485 115.452 410.373 101.095 423.504 89.938C436.573 78.8218 450.647 82.0883 460.919 84.4766C470.217 86.6282 474.078 87.1544 477.783 84.0032C481.439 80.8926 481.517 77.0657 480.801 67.7026C479.997 57.2155 478.901 42.8547 492.038 31.6887C496.55 27.8525 501.174 25.8099 505.723 24.77ZM479.754 296.029C485.805 289.929 493.77 282.101 505.723 280.815V305.022C503.173 306.19 500.501 308.522 496.46 312.591C489.052 320.061 478.901 330.293 461.866 327.69C444.889 325.087 438.145 312.317 433.222 302.989C428.77 294.56 426.634 291.303 421.823 290.568C415.402 289.584 410.996 283.58 411.974 277.16C412.955 270.739 418.943 266.343 425.385 267.311C442.358 269.911 449.099 282.681 454.025 292.009C458.478 300.438 460.614 303.698 465.428 304.433C470.22 305.19 473.135 302.708 479.754 296.029ZM369.91 559.414C369.91 568.077 362.888 575.098 354.229 575.098C345.566 575.098 338.545 568.077 338.545 559.414C338.545 550.751 345.566 543.73 354.229 543.73C362.888 543.73 369.91 550.751 369.91 559.414ZM489.211 410.766C494.209 411.525 500.084 412.463 505.723 414.885V507.42C501.386 504.702 497.4 500.779 494.358 494.884C486.483 479.62 492.854 466.648 497.503 457.176C501.71 448.604 503.092 444.955 500.86 440.63C498.661 436.373 494.947 435.439 485.664 434.022C475.258 432.437 461.013 430.261 453.11 414.947C445.241 399.693 451.615 386.724 456.267 377.255C460.48 368.689 461.863 365.046 459.633 360.733C456.653 354.957 458.917 347.864 464.693 344.884C470.472 341.911 477.556 344.168 480.539 349.944C488.411 365.196 482.037 378.161 477.382 387.63C473.172 396.199 471.789 399.846 474.016 404.161C476.214 408.415 479.926 409.349 489.211 410.766ZM456.523 585.42C461.477 589.621 462.087 597.044 457.886 602.001C457.251 602.748 456.803 603.511 456.457 604.315H432.438C433.017 598.567 435.013 592.597 439.945 586.784C444.136 581.833 451.559 581.214 456.523 585.42ZM492.06 588.836C489.793 592.264 486.047 594.117 482.233 594.117C480.007 594.117 477.755 593.488 475.756 592.168C461.427 582.699 460.63 568.276 460.051 557.745C459.521 548.207 458.939 544.35 454.851 541.65C450.837 538.988 447.122 539.981 438.301 543.269C428.43 546.95 414.944 551.981 400.549 542.472C386.22 533.003 385.432 518.583 384.856 508.055C384.33 498.521 383.748 494.66 379.672 491.97C375.661 489.323 371.953 490.319 363.162 493.607C353.314 497.291 339.822 502.357 325.433 492.835C311.113 483.369 310.325 468.95 309.749 458.425C309.229 448.894 308.653 445.039 304.589 442.355C299.165 438.771 297.68 431.475 301.264 426.054C304.841 420.624 312.137 419.135 317.561 422.729C331.881 432.191 332.669 446.611 333.242 457.142C333.765 466.667 334.338 470.525 338.405 473.209C342.403 475.847 346.108 474.869 354.923 471.571C364.763 467.897 378.255 462.843 392.644 472.344C406.979 481.816 407.77 496.239 408.343 506.769C408.863 516.298 409.445 520.156 413.521 522.846C417.548 525.508 421.262 524.524 430.077 521.227C439.926 517.556 453.424 512.499 467.823 522.024C482.158 531.496 482.952 545.919 483.535 556.453C484.064 565.987 484.646 569.845 488.728 572.542C494.143 576.122 495.635 583.418 492.06 588.836ZM260.112 342.811C245.477 333.815 244.238 319.42 243.326 308.914C242.498 299.411 241.8 295.581 237.652 293.031C232.122 289.627 230.391 282.382 233.798 276.848C237.207 271.306 244.45 269.603 249.98 272.99C264.605 281.983 265.854 296.378 266.757 306.884C267.585 316.387 268.289 320.22 272.433 322.77C276.537 325.277 280.205 324.168 288.911 320.594C298.661 316.59 311.984 311.112 326.666 320.136C341.301 329.138 342.555 343.53 343.468 354.036C344.293 363.548 345 367.381 349.157 369.938C353.282 372.472 356.975 371.355 365.675 367.783C375.409 363.773 388.748 358.302 403.452 367.347C418.092 376.349 419.347 390.744 420.266 401.256C421.1 410.766 421.807 414.602 425.973 417.164C431.5 420.568 433.232 427.813 429.825 433.347C427.602 436.959 423.744 438.948 419.799 438.948C417.694 438.948 415.564 438.385 413.643 437.205C399.008 428.2 397.753 413.811 396.835 403.299C396 393.786 395.293 389.947 391.13 387.387C387.001 384.859 383.318 385.961 374.612 389.542C364.863 393.54 351.523 399.011 336.835 389.978C322.201 380.982 320.946 366.587 320.033 356.078C319.205 346.566 318.502 342.733 314.335 340.176C310.247 337.657 306.579 338.772 297.863 342.353C288.124 346.36 274.8 351.834 260.112 342.811ZM376.938 242.594C376.533 248.818 371.364 253.598 365.214 253.598L364.442 253.573C347.295 252.468 339.445 240.336 333.719 231.484C328.534 223.466 326.115 220.408 321.235 220.094C316.481 219.708 313.694 222.482 307.675 229.715C300.937 237.802 291.785 248.765 274.507 247.769C257.369 246.657 249.528 234.532 243.799 225.677C238.615 217.662 236.204 214.604 231.331 214.29C226.434 213.994 223.821 216.687 217.808 223.908C211.095 231.998 201.835 243.064 184.681 241.968C167.552 240.863 159.718 228.731 153.998 219.873C148.82 211.861 146.406 208.806 141.552 208.492C135.066 208.071 130.149 202.476 130.573 195.993C130.993 189.504 136.704 184.609 143.068 185.014C160.2 186.122 168.035 198.254 173.755 207.109C178.93 215.121 181.343 218.179 186.197 218.49C191.13 218.82 193.717 216.099 199.72 208.872C206.446 200.779 215.688 189.713 232.848 190.809C249.989 191.92 257.83 204.048 263.559 212.904C268.74 220.922 271.154 223.977 276.023 224.291C280.809 224.624 283.559 221.9 289.587 214.669C296.316 206.577 305.399 195.517 322.752 196.613C339.899 197.721 347.746 209.852 353.475 218.705C358.66 226.723 361.079 229.781 365.959 230.095C372.435 230.516 377.352 236.111 376.938 242.594ZM84.8472 233.262C100.547 240.224 103.717 254.317 106.021 264.608C108.11 273.925 109.321 277.627 113.771 279.604C118.189 281.547 121.664 279.962 129.807 275.242C138.918 269.967 151.395 262.756 167.154 269.737C182.859 276.696 186.029 290.795 188.343 301.086C190.441 310.406 191.65 314.114 196.109 316.091C202.05 318.723 204.731 325.672 202.096 331.61C200.15 335.998 195.847 338.61 191.338 338.61C189.744 338.61 188.128 338.286 186.58 337.595C170.874 330.639 167.705 316.54 165.391 306.249C163.292 296.929 162.084 293.221 157.625 291.243C153.232 289.297 149.738 290.892 141.593 295.603C132.485 300.881 120.005 308.101 104.243 301.111C88.5463 294.149 85.3765 280.056 83.0692 269.762C80.9799 260.445 79.7686 256.743 75.319 254.769C70.9255 252.832 67.4474 254.432 59.3236 259.137C50.2096 264.415 37.7202 271.627 21.9988 264.661C6.29913 257.708 3.14489 243.612 0.840698 233.315C-1.24864 224.011 -2.45369 220.309 -6.88459 218.344C-12.8288 215.71 -15.5097 208.76 -12.8755 202.822C-10.2475 196.881 -3.29438 194.2 2.64047 196.834C18.3308 203.787 21.485 217.88 23.7923 228.174C25.8816 237.481 27.0836 241.186 31.5238 243.151C35.9205 245.1 39.3986 243.494 47.5224 238.786C56.6364 233.508 69.1257 226.296 84.8472 233.262ZM317.306 151.002C308.643 151.002 301.622 143.984 301.622 135.321C301.622 126.659 308.643 119.637 317.306 119.637C325.965 119.637 332.99 126.659 332.99 135.321C332.99 143.984 325.965 151.002 317.306 151.002ZM95.1569 203.419C86.4944 203.419 79.4728 196.398 79.4728 187.735C79.4728 179.073 86.4944 172.051 95.1569 172.051C103.816 172.051 110.838 179.073 110.838 187.735C110.838 196.398 103.816 203.419 95.1569 203.419ZM383.097 68.0699C378.14 63.8694 377.533 56.4462 381.733 51.4891C392.834 38.3957 407.228 39.3392 417.759 40.0305C427.266 40.6564 431.158 40.5411 434.303 36.8264C437.42 33.1553 436.878 29.3503 434.664 20.2051C433.281 14.5038 431.709 7.60986 432.438 0.364075H456.457C455.093 3.50281 455.763 7.38562 457.525 14.6688C460.004 24.8944 463.392 38.8971 452.247 52.0435C441.138 65.1368 426.73 64.1872 416.215 63.5052C406.712 62.895 402.826 62.9977 399.674 66.7062C397.352 69.4494 394.035 70.8631 390.698 70.8631C388.007 70.8631 385.308 69.9445 383.097 68.0699ZM280.476 5.58588C279.458 3.82037 278.673 2.07977 278.032 0.364075H321.369C331.059 1.65942 342.474 4.65186 349.789 17.3373C358.364 32.2181 352.607 45.4764 348.406 55.1541C344.601 63.9193 343.393 67.631 345.828 71.8563C349.073 77.486 347.139 84.6758 341.509 87.9235C339.66 88.9883 337.639 89.4958 335.649 89.4958C331.579 89.4958 327.622 87.3816 325.445 83.6046C316.867 68.727 322.624 55.4655 326.825 45.7847C330.633 37.0226 331.838 33.311 329.403 29.0856C327.002 24.9194 323.241 24.1503 313.893 23.157C303.428 22.0516 289.092 20.5289 280.476 5.58588ZM380.182 302.338C380.182 311 373.161 318.022 364.498 318.022C355.836 318.022 348.814 311 348.814 302.338C348.814 293.678 355.836 286.657 364.498 286.657C373.161 286.657 380.182 293.678 380.182 302.338ZM253.76 389.555C262.419 389.555 269.441 396.576 269.441 405.236C269.441 413.898 262.419 420.92 253.76 420.92C245.097 420.92 238.076 413.898 238.076 405.236C238.076 396.576 245.097 389.555 253.76 389.555ZM-96.6826 49.6146C-97.3085 50.1502 -97.7974 50.72 -98.2271 51.321V24.77C-89.5801 22.7927 -81.2134 24.6516 -74.4845 26.2178C-65.1899 28.3694 -61.3195 28.8893 -57.6079 25.7351C-52.6695 21.5377 -45.2338 22.1357 -41.0302 27.0804C-36.8204 32.0281 -37.4245 39.4514 -42.3754 43.6612C-55.447 54.7773 -69.5243 51.5141 -79.7967 49.132C-89.1006 46.9773 -92.9586 46.4635 -96.6826 49.6146ZM-90.673 188.959C-93.8211 186.773 -96.1471 185.313 -98.2271 184.26V159.568C-89.7109 161.05 -82.8046 165.78 -77.2465 169.644C-69.3967 175.1 -65.9933 177.015 -61.388 175.452C-56.8201 173.917 -55.3255 170.385 -52.5075 161.418C-49.3564 151.382 -45.0407 137.638 -28.6871 132.139C-12.4239 126.665 -0.544891 134.907 8.11451 140.923C15.9674 146.378 19.3801 148.3 23.9979 146.727C30.1538 144.653 36.8297 147.969 38.9003 154.125C40.971 160.281 37.6579 166.951 31.502 169.028C15.2139 174.489 3.35975 166.263 -5.30589 160.244C-13.1619 154.789 -16.5591 152.877 -21.1861 154.44C-25.754 155.975 -27.2486 159.506 -30.0666 168.467C-33.2177 178.503 -37.5334 192.25 -53.8807 197.752C-70.1564 203.22 -82.0136 194.975 -90.673 188.959ZM-39.8998 247.725C-39.8998 256.385 -46.9246 263.409 -55.584 263.409C-64.2465 263.409 -71.268 256.385 -71.268 247.725C-71.268 239.063 -64.2465 232.041 -55.584 232.041C-46.9246 232.041 -39.8998 239.063 -39.8998 247.725ZM250.799 70.7914C250.799 62.1321 257.82 55.1105 266.483 55.1105C275.142 55.1105 282.164 62.1321 282.164 70.7914C282.164 79.454 275.142 86.4756 266.483 86.4756C257.82 86.4756 250.799 79.454 250.799 70.7914ZM-93.1641 304.191C-95.0043 303.91 -96.5954 304.278 -98.2271 305.022V280.815C-95.543 280.526 -92.7219 280.457 -89.6019 280.934C-72.6225 283.534 -65.8718 296.303 -60.9427 305.629C-56.4807 314.067 -54.3416 317.321 -49.5121 318.059C-44.7605 318.81 -41.7837 316.34 -35.1421 309.658C-27.7282 302.195 -17.5928 291.953 -0.523094 294.578C16.4625 297.178 23.2194 309.948 28.1516 319.267C32.6167 327.709 34.7621 330.966 39.5978 331.707C46.0184 332.691 50.4244 338.694 49.4436 345.115C48.5531 350.931 43.5399 355.098 37.8323 355.098C37.2376 355.098 36.6398 355.054 36.0357 354.964C19.0469 352.361 12.29 339.594 7.3578 330.271C2.89265 321.83 0.747269 318.573 -4.08219 317.835C-8.82135 317.085 -11.8168 319.554 -18.4522 326.236C-25.8692 333.7 -36.0419 343.91 -53.0742 341.316C-70.0599 338.716 -76.8105 325.946 -81.7365 316.621C-86.1986 308.185 -88.3377 304.925 -93.1641 304.191ZM78.6072 76.6547C81.3099 85.8061 82.7547 89.4211 87.3195 91.0901C91.8313 92.7373 95.1942 90.9189 102.988 85.6722C111.725 79.8027 123.71 71.7754 139.861 77.6884C155.988 83.5953 160.085 97.4454 163.071 107.565C165.774 116.717 167.228 120.335 171.802 122.01C176.352 123.673 179.705 121.835 187.508 116.598C196.245 110.729 208.237 102.717 224.41 108.63C240.539 114.534 244.634 128.393 247.629 138.507C250.341 147.667 251.795 151.286 256.376 152.961C262.479 155.193 265.611 161.95 263.372 168.05C261.635 172.817 257.126 175.775 252.331 175.775C250.992 175.775 249.619 175.542 248.289 175.053C232.16 169.149 228.062 155.293 225.07 145.176C222.358 136.019 220.903 132.401 216.323 130.725C211.783 129.072 208.42 130.897 200.617 136.134C191.88 142 179.889 150.003 163.716 144.102C147.596 138.198 143.498 124.345 140.512 114.232C137.809 105.074 136.352 101.456 131.775 99.7807C127.31 98.1553 123.916 99.9581 116.113 105.195C107.385 111.065 95.4215 119.117 79.233 113.182C63.113 107.288 59.0247 93.4318 56.0448 83.3089C53.342 74.1638 51.8941 70.5485 47.3387 68.8796C41.2357 66.6407 38.1032 59.887 40.3389 53.7902C42.5591 47.681 49.3439 44.5735 55.4251 46.7874C71.5389 52.6849 75.6273 66.5381 78.6072 76.6547ZM97.623 3.95117C97.1964 2.63092 96.804 1.46014 96.4242 0.364075H121.229C123.461 6.79095 125.17 9.6214 129.106 10.9541C133.662 12.4954 136.981 10.5898 144.653 5.1687C146.839 3.62115 149.234 1.93347 151.852 0.364075H189.345C199.141 7.01202 202.663 17.4775 205.288 25.5889C208.227 34.678 209.772 38.2619 214.399 39.8281C220.552 41.9144 223.852 48.5872 221.769 54.743C220.106 59.6473 215.532 62.7361 210.628 62.7361C209.379 62.7361 208.103 62.5337 206.854 62.1133C190.594 56.602 186.147 42.8608 182.906 32.8252C179.964 23.733 178.419 20.1522 173.792 18.5859C169.24 17.0352 165.911 18.9409 158.242 24.3713C149.657 30.4494 137.909 38.7725 121.562 33.2393C105.305 27.7311 100.868 13.99 97.623 3.95117ZM-35.086 80.2012C-35.086 71.5418 -28.0645 64.5172 -19.4019 64.5172C-10.7394 64.5172 -3.72095 71.5418 -3.72095 80.2012C-3.72095 88.8637 -10.7394 95.8853 -19.4019 95.8853C-28.0645 95.8853 -35.086 88.8637 -35.086 80.2012ZM36.3658 4.39954C33.2644 3.35022 30.708 1.9303 28.3945 0.364075H65.7566C58.103 4.95068 48.5032 8.50348 36.3658 4.39954Z" fill="#FFCA0C"/>
</svg>