<svg width="40" height="40" viewBox="0 0 40 40" fill="none" xmlns="http://www.w3.org/2000/svg"><path fill-rule="evenodd" clip-rule="evenodd" d="M20 39C30.4934 39 39 30.4934 39 20C39 9.50659 30.4934 1 20 1C9.50659 1 1 9.50659 1 20C1 30.4934 9.50659 39 20 39ZM20 40C31.0457 40 40 31.0457 40 20C40 8.9543 31.0457 0 20 0C8.9543 0 0 8.9543 0 20C0 31.0457 8.9543 40 20 40Z" fill="#d8dbe2"></path><path fill-rule="evenodd" clip-rule="evenodd" d="M18 16C18 14.8954 18.8954 14 20 14C21.1046 14 22 14.8954 22 16C22 17.1046 21.1046 18 20 18C18.8954 18 18 17.1046 18 16ZM20 12C17.7909 12 16 13.7909 16 16C16 18.2091 17.7909 20 20 20C22.2091 20 24 18.2091 24 16C24 13.7909 22.2091 12 20 12ZM20 20.6667C16.3161 20.6667 13 23.1865 13 26.6667C13 27.219 13.4477 27.6667 14 27.6667C14.5523 27.6667 15 27.219 15 26.6667C15 24.6183 17.0623 22.6667 20 22.6667C22.9377 22.6667 25 24.6183 25 26.6667C25 27.219 25.4477 27.6667 26 27.6667C26.5523 27.6667 27 27.219 27 26.6667C27 23.1865 23.6839 20.6667 20 20.6667Z" fill="#FD4100"></path></svg>