<svg width="25" height="24" viewBox="0 0 25 24" fill="currentColor" xmlns="http://www.w3.org/2000/svg">
<path d="M12.0283 21.75C13.1283 21.75 14.0283 20.85 14.0283 19.75H10.0283C10.0283 20.85 10.9283 21.75 12.0283 21.75ZM18.0283 15.75V10.75C18.0283 7.68 16.3983 5.11 13.5283 4.43V3.75C13.5283 2.92 12.8583 2.25 12.0283 2.25C11.1983 2.25 10.5283 2.92 10.5283 3.75V4.43C7.66832 5.11 6.02832 7.67 6.02832 10.75V15.75L4.02832 17.75V18.75H20.0283V17.75L18.0283 15.75ZM16.0283 16.75H8.02832V10.75C8.02832 8.27 9.53832 6.25 12.0283 6.25C14.5183 6.25 16.0283 8.27 16.0283 10.75V16.75Z"/>
</svg>
