<svg xmlns="http://www.w3.org/2000/svg" width="20" height="20" viewBox="0 0 20 20" fill="none">
  <path d="M9.99967 18.125C10.9163 18.125 11.6663 17.375 11.6663 16.4583H8.33301C8.33301 17.375 9.08301 18.125 9.99967 18.125ZM14.9997 13.125V8.95833C14.9997 6.4 13.6413 4.25833 11.2497 3.69167V3.125C11.2497 2.43333 10.6913 1.875 9.99967 1.875C9.30801 1.875 8.74967 2.43333 8.74967 3.125V3.69167C6.36634 4.25833 4.99967 6.39167 4.99967 8.95833V13.125L3.33301 14.7917V15.625H16.6663V14.7917L14.9997 13.125ZM13.333 13.9583H6.66634V8.95833C6.66634 6.89167 7.92467 5.20833 9.99967 5.20833C12.0747 5.20833 13.333 6.89167 13.333 8.95833V13.9583Z" fill="#686A73"/>
</svg>