<svg width="20" height="20" viewBox="0 0 20 20" fill="none" xmlns="http://www.w3.org/2000/svg">
<path d="M13.3335 18.3335C16.6835 18.3335 17.2835 16.9918 17.4585 15.3585L18.0835 8.69179C18.3085 6.65846 17.7252 5.00012 14.1668 5.00012H5.83351C2.27518 5.00012 1.69185 6.65846 1.91685 8.69179L2.54185 15.3585C2.71685 16.9918 3.31685 18.3335 6.66685 18.3335H13.3335Z" stroke="#979797" stroke-width="1.5" stroke-linecap="round" stroke-linejoin="round"/>
<path d="M6.6665 5.00011V4.33345C6.6665 2.85845 6.6665 1.66678 9.33317 1.66678H10.6665C13.3332 1.66678 13.3332 2.85845 13.3332 4.33345V5.00011" stroke="#979797" stroke-width="1.5" stroke-linecap="round" stroke-linejoin="round"/>
<path d="M11.6668 11.6668C11.6668 11.6751 11.6668 11.6751 11.6668 11.6835C11.6668 12.5918 11.6585 13.3335 10.0002 13.3335C8.35016 13.3335 8.3335 12.6001 8.3335 11.6918V10.8335C8.3335 10.0001 8.3335 10.0001 9.16683 10.0001H10.8335C11.6668 10.0001 11.6668 10.0001 11.6668 10.8335V11.6668Z" stroke="#979797" stroke-width="1.5" stroke-linecap="round" stroke-linejoin="round"/>
<path d="M18.0415 9.16678C16.1165 10.5668 13.9165 11.4001 11.6665 11.6834" stroke="#979797" stroke-width="1.5" stroke-linecap="round" stroke-linejoin="round"/>
<path d="M2.18311 9.39182C4.05811 10.6751 6.17477 11.4501 8.3331 11.6918" stroke="#979797" stroke-width="1.5" stroke-linecap="round" stroke-linejoin="round"/>
</svg>
