<svg xmlns="http://www.w3.org/2000/svg" width="21" height="21" viewBox="0 0 21 21" fill="none">
  <path d="M16.3333 3.43034H15.5V1.76367H13.8333V3.43034H7.16667V1.76367H5.5V3.43034H4.66667C3.74167 3.43034 3.00833 4.18034 3.00833 5.09701L3 16.7637C3 17.6803 3.74167 18.4303 4.66667 18.4303H16.3333C17.25 18.4303 18 17.6803 18 16.7637V5.09701C18 4.18034 17.25 3.43034 16.3333 3.43034ZM16.3333 16.7637H4.66667V8.43034H16.3333V16.7637ZM16.3333 6.76367H4.66667V5.09701H16.3333V6.76367ZM8 11.7637H6.33333V10.097H8V11.7637ZM11.3333 11.7637H9.66667V10.097H11.3333V11.7637ZM14.6667 11.7637H13V10.097H14.6667V11.7637ZM8 15.097H6.33333V13.4303H8V15.097ZM11.3333 15.097H9.66667V13.4303H11.3333V15.097ZM14.6667 15.097H13V13.4303H14.6667V15.097Z" fill="#272A37"/>
</svg>