<svg width="22" height="22" viewBox="0 0 22 22" fill="none" xmlns="http://www.w3.org/2000/svg">
<path opacity="0.4" d="M11 20.1666C16.0626 20.1666 20.1667 16.0625 20.1667 10.9999C20.1667 5.93731 16.0626 1.83325 11 1.83325C5.9374 1.83325 1.83334 5.93731 1.83334 10.9999C1.83334 16.0625 5.9374 20.1666 11 20.1666Z" fill="#434CE6"/>
<path d="M15.7208 8.65328C15.3358 7.76411 14.6117 7.07661 13.6125 6.76495V6.04077C13.6125 5.66494 13.3008 5.35327 12.925 5.35327C12.5492 5.35327 12.2375 5.66494 12.2375 6.04077V6.5816H9.75334V6.04077C9.75334 5.66494 9.44168 5.35327 9.06584 5.35327C8.69001 5.35327 8.37834 5.66494 8.37834 6.04077V6.76495C7.37918 7.07661 6.65499 7.76411 6.26999 8.65328C6.14166 8.95578 6.36165 9.3041 6.69165 9.3041H15.2808C15.6292 9.29494 15.8492 8.95578 15.7208 8.65328Z" fill="#434CE6"/>
<path d="M15.5833 10.2117C15.84 10.2117 16.0417 10.4133 16.0417 10.67V12.9892C16.0417 15.0058 14.6667 16.6558 12.375 16.6558H9.62501C7.33334 16.6558 5.95834 15.0058 5.95834 12.9892V10.67C5.95834 10.4133 6.16001 10.2117 6.41668 10.2117H15.5833Z" fill="#434CE6"/>
</svg>
