<svg
      width="100%"
      height="100%"
      viewBox="0 0 24 24"
      fill="none"
      xmlns="http://www.w3.org/2000/svg"
    >
      <path
        d="M16.75 3.56V2C16.75 1.59 16.41 1.25 16 1.25C15.59 1.25 15.25 1.59 15.25 2V3.5H8.75001V2C8.75001 1.59 8.41001 1.25 8.00001 1.25C7.59001 1.25 7.25001 1.59 7.25001 2V3.56C4.55001 3.81 3.24002 5.42 3.04002 7.81C3.02002 8.1 3.26002 8.34 3.54002 8.34H20.46C20.75 8.34 20.99 8.09 20.96 7.81C20.76 5.42 19.45 3.81 16.75 3.56Z"
      />
      <path
        opacity="0.4"
        d="M20 9.83997C20.55 9.83997 21 10.29 21 10.84V17C21 20 19.5 22 16 22H8C4.5 22 3 20 3 17V10.84C3 10.29 3.45 9.83997 4 9.83997H20Z"
      />
      <path
        d="M14.84 14.9899L14.34 15.4999H14.33L11.3 18.5299C11.17 18.6599 10.9 18.7999 10.71 18.8199L9.35999 19.0199C8.86999 19.0899 8.53001 18.7399 8.60001 18.2599L8.79002 16.8999C8.82002 16.7099 8.94999 16.4499 9.07999 16.3099L12.12 13.2799L12.62 12.7699C12.95 12.4399 13.32 12.2 13.72 12.2C14.06 12.2 14.43 12.3599 14.84 12.7699C15.74 13.6699 15.45 14.3799 14.84 14.9899Z"
      />
    </svg>