<svg xmlns="http://www.w3.org/2000/svg" width="32" height="32" fill="none" viewBox="0 0 32 32">
  <path fill="#4FCFAD" d="M6.28 9.535a.455.455 0 0 0-.28.42C6 27.595 13.31 29.5 16.454 29.5c1.131 0 2.188-.25 3.14-.746a.454.454 0 0 0 .244-.393.482.482 0 0 0-.227-.404c-2.058-1.19-7.138-4.563-9.837-10.133a.456.456 0 0 1 .209-.61.456.456 0 0 1 .608.211c.204.42.425.824.655 1.22.088.15.182.297.274.445a20.66 20.66 0 0 0 .866 1.29c.048.064.096.125.144.19 4.13 5.543 10.72 8.93 13.015 8.93a.455.455 0 0 0 0-.91c-.732 0-2.218-.498-3.99-1.443 1.121-1.37 1.718-3.215 1.718-5.374 0-5.838-5.555-7.06-8.54-7.717-4.016-.883-6.362-2.828-7.958-4.422a.452.452 0 0 0-.494-.1Z"/>
  <path fill="#4FCFAD" fill-rule="evenodd" d="M22.09 2.845c.268-.452.552-.468.82 0l.099.15C24.237 4.86 26 7.54 26 8.922c0 .983-.394 1.885-1.025 2.53A3.466 3.466 0 0 1 22.5 12.5a3.466 3.466 0 0 1-2.475-1.048A3.624 3.624 0 0 1 19 8.922c0-1.38 1.8-4.116 3.03-5.985l.06-.092Zm1.876 8.72a3.025 3.025 0 0 0 1.056-1.048c.253-.435.41-.919.442-1.435a.417.417 0 0 0-.394-.451c-.237-.016-.426.161-.442.403-.015.37-.126.725-.315 1.031-.19.307-.441.565-.757.742a.429.429 0 0 0-.157.596c.11.21.362.274.567.162Z" clip-rule="evenodd"/>
</svg>
