<svg xmlns="http://www.w3.org/2000/svg" width="18" height="18" fill="currentColor" viewBox="0 0 18 18">
  <path fill-rule="evenodd" d="M9 2.25A6.753 6.753 0 0 0 2.25 9 6.753 6.753 0 0 0 9 15.75 6.753 6.753 0 0 0 15.75 9 6.753 6.753 0 0 0 9 2.25ZM.75 9A8.253 8.253 0 0 1 9 .75 8.253 8.253 0 0 1 17.25 9 8.253 8.253 0 0 1 9 17.25 8.253 8.253 0 0 1 .75 9Z" clip-rule="evenodd"/>
  <path fill-rule="evenodd" d="M8.723 4.883a.75.75 0 0 1 .75.75v3.075c0 .075.03.21.117.36a.806.806 0 0 0 .25.285h.002l2.325 1.388a.75.75 0 1 1-.769 1.288l-2.323-1.386a2.28 2.28 0 0 1-.788-.831 2.279 2.279 0 0 1-.314-1.104V5.633a.75.75 0 0 1 .75-.75Z" clip-rule="evenodd"/>
</svg>
