<svg width="40" height="40" viewBox="0 0 40 40" fill="none" xmlns="http://www.w3.org/2000/svg">
<rect opacity="0.4" width="40" height="40" rx="20" fill="#D8D8D8"/>
<path fill-rule="evenodd" clip-rule="evenodd" d="M24.5014 15.5014C23.9689 14.9689 23.1054 14.9689 22.5728 15.5014L20.0015 18.0728L17.4286 15.4999C16.8961 14.9673 16.0327 14.9673 15.5001 15.4999C14.9676 16.0324 14.9676 16.8958 15.5001 17.4283L18.073 20.0012L15.5019 22.5723C14.9693 23.1049 14.9693 23.9684 15.5019 24.501C16.0345 25.0335 16.898 25.0335 17.4306 24.501L20.0017 21.9299L22.5721 24.5004C23.1047 25.0329 23.9681 25.0329 24.5006 24.5004C25.0331 23.9678 25.0331 23.1044 24.5006 22.5719L21.9301 20.0014L24.5014 17.4301C25.034 16.8975 25.034 16.034 24.5014 15.5014Z" fill="#1B1C1E"/>
</svg>
