<?xml version="1.0" encoding="UTF-8"?>
<svg xmlns="http://www.w3.org/2000/svg" xmlns:xlink="http://www.w3.org/1999/xlink" width="20px" height="20px" viewBox="0 0 20 20" version="1.1">
<defs>
<filter id="alpha" filterUnits="objectBoundingBox" x="0%" y="0%" width="100%" height="100%">
  <feColorMatrix type="matrix" in="SourceGraphic" values="0 0 0 0 1 0 0 0 0 1 0 0 0 0 1 0 0 0 1 0"/>
</filter>
<mask id="mask0">
  <g filter="url(#alpha)">
<rect x="0" y="0" width="20" height="20" style="fill:rgb(0%,0%,0%);fill-opacity:0.8;stroke:none;"/>
  </g>
</mask>
<clipPath id="clip1">
  <rect x="0" y="0" width="20" height="20"/>
</clipPath>
<g id="surface5" clip-path="url(#clip1)">
<path style=" stroke:none;fill-rule:nonzero;fill:rgb(84.705882%,84.705882%,84.705882%);fill-opacity:1;" d="M 10 0 C 15.523438 0 20 4.476562 20 10 C 20 15.523438 15.523438 20 10 20 C 4.476562 20 0 15.523438 0 10 C 0 4.476562 4.476562 0 10 0 Z M 10 0 "/>
</g>
</defs>
<g id="surface1">
<use xlink:href="#surface5" mask="url(#mask0)"/>
<path style=" stroke:none;fill-rule:evenodd;fill:rgb(10.588235%,10.980392%,11.764706%);fill-opacity:1;" d="M 12.25 7.75 C 11.984375 7.484375 11.550781 7.484375 11.285156 7.75 L 10 9.035156 L 8.714844 7.75 C 8.449219 7.484375 8.015625 7.484375 7.75 7.75 C 7.484375 8.015625 7.484375 8.449219 7.75 8.714844 L 9.035156 10 L 7.75 11.285156 C 7.484375 11.550781 7.484375 11.984375 7.75 12.25 C 8.015625 12.515625 8.449219 12.515625 8.714844 12.25 L 10 10.964844 L 11.285156 12.25 C 11.550781 12.515625 11.984375 12.515625 12.25 12.25 C 12.515625 11.984375 12.515625 11.550781 12.25 11.285156 L 10.964844 10 L 12.25 8.714844 C 12.515625 8.449219 12.515625 8.015625 12.25 7.75 Z M 12.25 7.75 "/>
</g>
</svg>
