<svg xmlns="http://www.w3.org/2000/svg" width="16" height="16" viewBox="0 0 16 16"><path fill="#454857" d="M-6863.863 3435.68l-2.138-2.138-2.138 2.138a1.082 1.082 0 0 1-.771.32 1.082 1.082 0 0 1-.771-.32 1.09 1.09 0 0 1 0-1.542l2.138-2.138-2.138-2.138a1.09 1.09 0 0 1 0-1.542 1.09 1.09 0 0 1 1.542 0l2.138 2.138 2.138-2.138a1.091 1.091 0 0 1 1.543 0 1.09 1.09 0 0 1 0 1.542l-2.138 2.138 2.138 2.138a1.09 1.09 0 0 1 0 1.542 1.085 1.085 0 0 1-.772.32 1.085 1.085 0 0 1-.771-.32z" transform="translate(-1228 -282) translate(8102 -3142)"></path></svg>