<svg xmlns="http://www.w3.org/2000/svg" width="64" height="64" fill="none" viewBox="0 0 64 64">
  <mask id="a" width="64" height="64" x="0" y="0" maskUnits="userSpaceOnUse" style="mask-type:alpha">
    <path fill="#D9D9D9" d="M0 0h64v64H0z"/>
  </mask>
  <g mask="url(#a)">
    <path fill="#549684" d="M10.666 21.333h42.667V16H10.666v5.333ZM5.333 16c0-1.467.522-2.722 1.567-3.767 1.044-1.044 2.3-1.566 3.766-1.566h42.667c1.467 0 2.722.522 3.767 1.566 1.044 1.045 1.566 2.3 1.566 3.767v16h-48v16H21.6v5.333H10.666c-1.466 0-2.722-.522-3.766-1.566-1.045-1.045-1.567-2.3-1.567-3.767V16Zm34.533 42.667L28.533 47.333l3.733-3.733 7.6 7.467L54.933 36l3.733 3.867-18.8 18.8ZM10.666 16v32-12 7.533V16Z"/>
  </g>
</svg>
