<svg width="100%" height="100%" viewBox="0 0 24 25" fill="none" xmlns="http://www.w3.org/2000/svg"><path d="M19.0698 14.7401C18.7798 15.0301 18.3198 15.0301 18.0398 14.7401C17.7498 14.4501 17.7498 13.9901 18.0398 13.7101C20.0398 11.7101 20.0398 8.4601 18.0398 6.4701C16.0398 4.4801 12.7898 4.4701 10.7998 6.4701C8.80978 8.4701 8.79978 11.7201 10.7998 13.7101C11.0898 14.0001 11.0898 14.4601 10.7998 14.7401C10.5098 15.0301 10.0498 15.0301 9.76979 14.7401C7.19979 12.1701 7.19979 7.9901 9.76979 5.4301C12.3398 2.8701 16.5198 2.8601 19.0798 5.4301C21.6398 8.0001 21.6398 12.1701 19.0698 14.7401Z"></path><path d="M4.93022 10.26C5.22022 9.96998 5.68022 9.96998 5.96022 10.26C6.25022 10.55 6.25022 11.01 5.96022 11.29C3.96022 13.29 3.96022 16.54 5.96022 18.53C7.96022 20.52 11.2102 20.53 13.2002 18.53C15.1902 16.53 15.2002 13.28 13.2002 11.29C12.9102 11 12.9102 10.54 13.2002 10.26C13.4902 9.96998 13.9502 9.96998 14.2302 10.26C16.8002 12.83 16.8002 17.01 14.2302 19.57C11.6602 22.13 7.48022 22.14 4.92022 19.57C2.36022 17 2.36022 12.83 4.93022 10.26Z"></path></svg>