<svg width="48" height="48" viewBox="0 0 48 48" fill="none" xmlns="http://www.w3.org/2000/svg">
<path d="M3.97295 25.0022C4.0563 26.1691 4.80649 27.086 5.80673 27.6695C5.80673 27.5861 5.80673 27.5861 5.80673 27.5028C5.80673 24.3353 8.39068 21.7514 11.6415 21.7514C14.8922 21.7514 17.3928 24.3353 17.3928 27.5028C17.3928 27.8362 17.3928 28.1696 17.3095 28.503H29.3957C29.3124 28.1696 29.3124 27.8362 29.3124 27.5028C29.3124 24.3353 31.8963 21.7514 35.0637 21.7514C38.2312 21.7514 40.8151 24.3353 40.8151 27.5028C40.8151 27.8362 40.8151 28.1696 40.7318 28.503H41.9821C42.6489 28.503 43.3157 28.1696 43.6491 27.5028C44.2326 26.4192 44.0659 24.8355 43.3157 23.7519C40.315 19.1674 30.396 19.5008 28.2288 19.6675C27.1452 18.834 23.3943 16.0834 21.1437 16C20.6436 16 20.3102 16.3334 20.2269 16.7502C20.2269 17.2503 20.5603 17.5837 20.977 17.6671C22.0606 17.7504 23.8944 18.834 25.5615 19.8343C23.1442 19.9176 20.6436 19.7509 18.2264 19.3341L17.5595 17.417C17.3928 17.0002 16.8927 16.7502 16.476 16.9169C16.0592 17.0836 15.8091 17.5837 15.9758 18.0005L16.3092 18.9174C16.0592 18.834 15.8091 18.834 15.5591 18.7507V17.1669C15.5591 16.6668 15.2257 16.3334 14.7255 16.3334C14.2254 16.3334 13.892 16.6668 13.892 17.1669V18.4172L6.72361 18.834C5.1399 18.9174 4.72313 20.251 4.55643 20.8345C4.22301 22.0848 3.8896 23.5852 3.97295 25.0022Z" fill="black"/>
<path d="M39.1475 27.5028C39.1475 25.2522 37.3137 23.4185 35.0631 23.4185C32.8126 23.4185 30.9788 25.2522 30.9788 27.5028C30.9788 29.7533 32.8126 31.5871 35.0631 31.5871C37.3137 31.6704 39.1475 29.7533 39.1475 27.5028Z" fill="black"/>
<path d="M15.7256 27.5028C15.7256 25.2522 13.8918 23.4185 11.6413 23.4185C9.39073 23.4185 7.47361 25.2522 7.47361 27.5028C7.47361 29.7533 9.30738 31.5871 11.6413 31.5871C13.8918 31.6704 15.7256 29.7533 15.7256 27.5028Z" fill="black"/>
</svg>
