<svg width="48" height="48" viewBox="0 0 48 48" fill="none" xmlns="http://www.w3.org/2000/svg">
<path d="M44.2799 28.009C45.1338 26.0451 45.1338 24.252 44.1945 22.5443C43.853 21.9466 43.3406 21.605 42.7429 21.4343C33.692 19.1288 31.3865 20.1535 30.2765 19.4704C26.178 17.2503 25.751 16.6526 24.3849 16.3965C15.9316 14.8595 12.9431 18.275 11.2353 18.4457C9.69838 18.6165 8.3322 18.9581 7.0514 19.5558C5.08751 20.4096 5.00213 22.2881 4.14826 23.9959C3.63594 25.362 4.5752 27.4967 5.08751 28.3506C5.00213 28.0944 5.00213 27.7529 5.00213 27.4967C5.00213 24.252 7.64911 21.605 10.9792 21.605C14.2239 21.605 16.8708 24.252 16.8708 27.4967C16.8708 28.1798 16.7855 28.8629 16.5293 29.4606H31.8135C31.5573 28.8629 31.4719 28.1798 31.4719 27.4967C31.4719 24.252 34.1189 21.605 37.3636 21.605C40.6083 21.605 43.2553 24.252 43.2553 27.4967C43.2553 28.0944 43.1699 28.6921 42.9991 29.2044C43.5968 28.9483 44.1091 28.6067 44.2799 28.009ZM16.1024 20.1535L14.8216 20.0681L13.7115 19.385C14.3946 19.0435 15.1631 18.7019 16.1024 18.4457V20.1535ZM28.0565 20.8366L22.0794 20.495V19.8973C22.0794 19.4704 21.6525 19.0434 21.2256 19.0434C20.7132 19.0434 20.3717 19.4704 20.3717 19.8973V20.4096L17.8101 20.2389V18.0188C19.4324 17.7627 21.4817 17.6773 24.1287 18.1896C24.9826 18.3604 25.2387 18.7019 28.6542 20.5804L28.0565 20.8366Z"/>
<path d="M10.9793 23.3128C8.67385 23.3128 6.70996 25.1913 6.70996 27.4967C6.70996 29.8021 8.58846 31.6806 10.9793 31.6806C13.2847 31.6806 15.1632 29.8021 15.1632 27.4967C15.1632 25.1913 13.2847 23.3128 10.9793 23.3128Z"/>
<path d="M37.4496 23.3128C35.1441 23.3128 33.2656 25.1913 33.2656 27.4967C33.2656 29.8021 35.1441 31.6806 37.4496 31.6806C39.755 31.6806 41.6335 29.8021 41.6335 27.4967C41.6335 25.1913 39.755 23.3128 37.4496 23.3128Z" />
</svg>
