<svg xmlns="http://www.w3.org/2000/svg" width="20" height="20" viewBox="0 0 20 20" fill="none">
  <path d="M6.00033 15.1673C4.15866 15.1673 2.66699 13.6756 2.66699 11.834C2.66699 9.99232 4.15866 8.50065 6.00033 8.50065C7.84199 8.50065 9.33366 9.99232 9.33366 11.834C9.33366 13.6756 7.84199 15.1673 6.00033 15.1673ZM6.00033 10.1673C5.08366 10.1673 4.33366 10.9173 4.33366 11.834C4.33366 12.7507 5.08366 13.5007 6.00033 13.5007C6.91699 13.5007 7.66699 12.7507 7.66699 11.834C7.66699 10.9173 6.91699 10.1673 6.00033 10.1673ZM9.33366 8.50065C7.49199 8.50065 6.00033 7.00898 6.00033 5.16732C6.00033 3.32565 7.49199 1.83398 9.33366 1.83398C11.1753 1.83398 12.667 3.32565 12.667 5.16732C12.667 7.00898 11.1753 8.50065 9.33366 8.50065ZM9.33366 3.50065C8.41699 3.50065 7.66699 4.25065 7.66699 5.16732C7.66699 6.08398 8.41699 6.83398 9.33366 6.83398C10.2503 6.83398 11.0003 6.08398 11.0003 5.16732C11.0003 4.25065 10.2503 3.50065 9.33366 3.50065ZM14.0003 18.1673C12.1587 18.1673 10.667 16.6756 10.667 14.834C10.667 12.9923 12.1587 11.5007 14.0003 11.5007C15.842 11.5007 17.3337 12.9923 17.3337 14.834C17.3337 16.6756 15.842 18.1673 14.0003 18.1673ZM14.0003 13.1673C13.0837 13.1673 12.3337 13.9173 12.3337 14.834C12.3337 15.7507 13.0837 16.5007 14.0003 16.5007C14.917 16.5007 15.667 15.7507 15.667 14.834C15.667 13.9173 14.917 13.1673 14.0003 13.1673Z" fill="#686A73"/>
</svg>