<svg width="24" height="25" viewBox="0 0 24 25" fill="none" xmlns="http://www.w3.org/2000/svg">
<path d="M20.99 10.21C20.65 10.07 20.2 10 19.64 10H14.36C12.62 10 12 10.62 12 12.38V20.12C12 20.7 12.07 21.15 12.22 21.5C12.53 22.22 13.19 22.5 14.36 22.5H19.64C21.38 22.5 22 21.87 22 20.12V12.38C22 11.19 21.72 10.52 20.99 10.21ZM18 20.25H16C15.98 20.25 15.95 20.25 15.93 20.24C15.78 20.23 15.65 20.18 15.54 20.08C15.36 19.95 15.25 19.74 15.25 19.5C15.25 19.09 15.59 18.75 16 18.75H18C18.41 18.75 18.75 19.09 18.75 19.5C18.75 19.91 18.41 20.25 18 20.25Z" fill="#A2A2A2"/>
<path d="M20.9898 6.69V7.5C20.9898 8.05 20.5398 8.5 19.9898 8.5H14.3598C11.7998 8.5 10.4998 9.81 10.4998 12.38V21.5C10.4998 22.05 10.0498 22.5 9.49977 22.5H7.54977C7.14977 22.5 6.82977 22.18 6.82977 21.79C6.82977 21.39 7.14977 21.08 7.54977 21.08H9.49977V17.25H5.99977C3.77977 17.14 2.00977 15.31 2.00977 13.06V6.69C2.00977 4.38 3.88977 2.5 6.20977 2.5L16.7998 2.5C19.1098 2.5 20.9898 4.38 20.9898 6.69Z" fill="#A2A2A2"/>
</svg>
