<svg width="24" height="25" viewBox="0 0 24 25" fill="none" xmlns="http://www.w3.org/2000/svg">
<path d="M19 8.5C20.6569 8.5 22 7.15685 22 5.5C22 3.84315 20.6569 2.5 19 2.5C17.3431 2.5 16 3.84315 16 5.5C16 7.15685 17.3431 8.5 19 8.5Z" fill="#A2A2A2"/>
<path d="M19.8 9.92C19.78 9.92 19.76 9.93 19.74 9.93C19.64 9.95 19.54 9.96 19.43 9.98C19.01 10.02 18.56 10 18.1 9.91C17.98 9.88 17.88 9.86 17.77 9.82C17.44 9.74 17.13 9.61 16.84 9.44C16.72 9.38 16.6 9.3 16.49 9.23C16.01 8.9 15.6 8.49 15.27 8.01C15.2 7.9 15.12 7.78 15.06 7.66C14.89 7.37 14.76 7.06 14.68 6.73C14.64 6.62 14.62 6.52 14.59 6.4C14.5 5.94 14.48 5.49 14.52 5.07C14.54 4.96 14.55 4.86 14.57 4.76C14.57 4.74 14.58 4.72 14.58 4.7C14.7 4.08 14.24 3.5 13.6 3.5H7.52C7.38 3.5 7.24 3.51 7.11 3.52C6.99 3.53 6.88 3.54 6.76 3.56C6.64 3.57 6.52 3.59 6.41 3.61C4 3.96 2.46 5.49 2.11 7.91C2.09 8.02 2.07 8.14 2.06 8.26C2.04 8.38 2.03 8.49 2.02 8.61C2.01 8.74 2 8.88 2 9.02V16.98C2 17.12 2.01 17.26 2.02 17.39C2.03 17.51 2.04 17.62 2.06 17.74C2.07 17.86 2.09 17.98 2.11 18.09C2.46 20.51 4 22.04 6.41 22.39C6.52 22.41 6.64 22.43 6.76 22.44C6.88 22.46 6.99 22.47 7.11 22.48C7.24 22.49 7.38 22.5 7.52 22.5H15.48C15.62 22.5 15.76 22.49 15.89 22.48C16.01 22.47 16.12 22.46 16.24 22.44C16.36 22.43 16.48 22.41 16.59 22.39C19 22.04 20.54 20.51 20.89 18.09C20.91 17.98 20.93 17.86 20.94 17.74C20.96 17.62 20.97 17.51 20.98 17.39C20.99 17.26 21 17.12 21 16.98V10.9C21 10.26 20.42 9.8 19.8 9.92ZM6.75 13H11.75C12.16 13 12.5 13.34 12.5 13.75C12.5 14.16 12.16 14.5 11.75 14.5H6.75C6.34 14.5 6 14.16 6 13.75C6 13.34 6.34 13 6.75 13ZM15.75 18.5H6.75C6.34 18.5 6 18.16 6 17.75C6 17.34 6.34 17 6.75 17H15.75C16.16 17 16.5 17.34 16.5 17.75C16.5 18.16 16.16 18.5 15.75 18.5Z" fill="#A2A2A2"/>
</svg>
