<svg width="24" height="25" viewBox="0 0 24 25" fill="" xmlns="http://www.w3.org/2000/svg">
<path d="M16.42 8.45C18.86 10.89 18.86 14.85 16.42 17.29C13.98 19.73 10.02 19.73 7.58 17.29C5.14 14.85 5.14 10.89 7.58 8.45C10.02 6.01 13.98 6.01 16.42 8.45Z" fill=""/>
<path d="M8.25003 22.89C8.16003 22.89 8.06003 22.87 7.97003 22.84C5.72003 21.94 3.90003 20.35 2.68003 18.25C1.50003 16.2 1.03003 13.88 1.34003 11.52C1.39003 11.11 1.78003 10.82 2.18003 10.87C2.59003 10.92 2.88003 11.3 2.83003 11.71C2.57003 13.74 2.97003 15.74 3.98003 17.5C5.02003 19.3 6.59003 20.67 8.52003 21.44C8.90003 21.6 9.09003 22.03 8.94003 22.42C8.83003 22.71 8.54003 22.89 8.25003 22.89Z" fill=""/>
<path d="M5.8501 5.73C5.6301 5.73 5.41011 5.63 5.26011 5.44C5.00011 5.12 5.0601 4.65 5.3901 4.39C7.2901 2.9 9.5801 2.11 12.0001 2.11C14.3601 2.11 16.6101 2.87 18.5001 4.31C18.8301 4.56 18.8901 5.03 18.6401 5.36C18.3901 5.69 17.9201 5.75 17.5901 5.5C15.9601 4.26 14.0301 3.61 12.0001 3.61C9.9201 3.61 7.9501 4.29 6.3101 5.57C6.1701 5.68 6.0101 5.73 5.8501 5.73Z" fill=""/>
<path d="M15.7502 22.89C15.4502 22.89 15.1702 22.71 15.0502 22.42C14.9002 22.04 15.0802 21.6 15.4702 21.44C17.4002 20.66 18.9702 19.3 20.0102 17.5C21.0302 15.74 21.4302 13.74 21.1602 11.72C21.1102 11.31 21.4002 10.93 21.8102 10.88C22.2102 10.83 22.6002 11.12 22.6502 11.53C22.9502 13.88 22.4902 16.21 21.3102 18.26C20.1002 20.36 18.2702 21.94 16.0202 22.85C15.9402 22.87 15.8502 22.89 15.7502 22.89Z" fill=""/>
</svg>
