 <svg
      width="100%"
      height="100%"
      viewBox="0 0 24 24"
      fill="none"
      xmlns="http://www.w3.org/2000/svg"
    >
      <path
        opacity="0.4"
        d="M20.5 10.1901H17.61C15.24 10.1901 13.31 8.26012 13.31 5.89012V3.00012C13.31 2.45012 12.86 2.00012 12.31 2.00012H8.07C4.99 2.00012 2.5 4.00012 2.5 7.57012V16.4301C2.5 20.0001 4.99 22.0001 8.07 22.0001H15.93C19.01 22.0001 21.5 20.0001 21.5 16.4301V11.1901C21.5 10.6401 21.05 10.1901 20.5 10.1901Z"
      />
      <path
        d="M15.8 2.21012C15.39 1.80012 14.68 2.08012 14.68 2.65012V6.14011C14.68 7.60011 15.92 8.81012 17.43 8.81012C18.38 8.82012 19.7 8.82011 20.83 8.82011C21.4 8.82011 21.7 8.15012 21.3 7.75011C19.86 6.30011 17.28 3.69012 15.8 2.21012Z"
      />
      <path
        d="M13.5 13.7501H7.5C7.09 13.7501 6.75 13.4101 6.75 13.0001C6.75 12.5901 7.09 12.2501 7.5 12.2501H13.5C13.91 12.2501 14.25 12.5901 14.25 13.0001C14.25 13.4101 13.91 13.7501 13.5 13.7501Z"
      />
      <path
        d="M11.5 17.7501H7.5C7.09 17.7501 6.75 17.4101 6.75 17.0001C6.75 16.5901 7.09 16.2501 7.5 16.2501H11.5C11.91 16.2501 12.25 16.5901 12.25 17.0001C12.25 17.4101 11.91 17.7501 11.5 17.7501Z"
      />
    </svg>