<svg width="32" height="32" viewBox="0 0 32 32" fill="none" xmlns="http://www.w3.org/2000/svg">
<path d="M15.6514 8C14.238 8.08531 12.9029 8.72003 11.899 9.784L7.65494 14.8107C7.37073 15.1877 7.17132 15.6292 7.07202 16.1011C6.97271 16.5731 6.97615 17.063 7.08207 17.5333L8.47047 22.4667C8.6114 22.8982 8.8703 23.2749 9.21383 23.5481C9.55737 23.8214 9.96979 23.9788 10.398 24H23.499C23.8971 24 24.2789 23.8314 24.5604 23.5314C24.8419 23.2313 25 22.8243 25 22.4V8H15.6514ZM23.499 18.4H20.4971V16.8H23.499V18.4ZM23.499 15.2H9.33979L13.0084 10.8547C13.7288 10.1264 14.6617 9.68349 15.6514 9.6H23.499V15.2Z" fill="inherit"/>
</svg>
