<svg width="48" height="48" viewBox="0 0 48 48" fill="none" xmlns="http://www.w3.org/2000/svg">
<path d="M43.3337 21.8281C43.0837 21.3281 42.667 20.9114 42.0836 20.7447C38.1669 19.2447 35.4169 19.0781 33.7502 18.9114C33.2502 18.9114 32.7502 18.8281 32.6669 18.8281C30.9169 17.9947 28.1669 16.7447 25.6668 15.578C25.4168 15.4947 25.2502 15.4114 25.0002 15.4114C20.9168 14.7447 15.9168 14.9114 9.33338 15.7447C8.66671 15.828 8.00003 16.328 7.83336 16.9947C7.33336 18.4114 5.33334 21.7448 4.58334 22.9114C4.25 23.7448 4.08333 24.5781 4 25.6615C4 26.2448 4.25 26.8281 4.66667 27.3281C4.83334 27.4948 5.08334 27.6615 5.33334 27.8281C5.33334 27.5781 5.33334 27.4115 5.33334 27.1615C5.33334 23.9948 7.9167 21.4114 11.0834 21.4114C14.2501 21.4114 16.8334 23.9948 16.8334 27.1615C16.8334 27.4948 16.8334 27.8281 16.7501 28.0781L30.8336 28.1615C30.6669 27.7448 30.6669 27.4115 30.6669 27.0781C30.6669 23.9114 33.2502 21.3281 36.4169 21.3281C39.5836 21.3281 42.167 23.9114 42.167 27.0781C42.167 27.4115 42.167 27.7448 42.0836 27.9948C42.917 27.7448 43.5837 26.9948 43.8337 26.1615C44.167 24.6614 44.0837 23.2448 43.3337 21.8281ZM11.6667 18.5781L9.00004 18.2447C9.16671 17.9114 9.25004 17.6614 9.33338 17.4114C9.33338 17.328 9.41671 17.328 9.50004 17.328C10.4167 17.1614 11.3334 17.078 12.1667 16.9947L11.6667 18.5781ZM19.7501 19.2447L13.3334 18.7447L14.0001 16.828C16.0834 16.6614 18.0001 16.578 19.7501 16.578V19.2447ZM28.5002 19.8281C28.3335 19.9114 28.1669 19.9114 27.9169 19.9114L21.4168 19.4114V16.6614C22.5835 16.7447 23.6668 16.828 24.6668 16.9947C24.7502 16.9947 24.8335 16.9947 24.9168 17.078C26.5835 17.9114 27.8335 18.4114 30.0002 19.4114L28.5002 19.8281Z"/>
<path d="M32.334 27.0781C32.334 24.8281 34.1673 22.9948 36.4174 22.9948C38.6674 22.9948 40.5007 24.8281 40.5007 27.0781C40.5007 29.3281 38.6674 31.1615 36.4174 31.1615C34.1673 31.1615 32.334 29.2448 32.334 27.0781Z"/>
<path d="M6.91699 27.0781C6.91699 24.8281 8.75034 22.9948 11.0004 22.9948C13.2504 22.9948 15.0837 24.8281 15.0837 27.0781C15.0837 29.3281 13.2504 31.1615 11.0004 31.1615C8.75034 31.1615 6.91699 29.2448 6.91699 27.0781Z"/>
</svg>
