<svg width="52" height="20" viewBox="0 0 52 20" fill="none" xmlns="http://www.w3.org/2000/svg">
<path d="M44.7421 10.8828C42.4641 10.8828 40.6201 12.7045 40.5117 15.0617C40.5117 17.4189 42.4645 19.3479 44.7421 19.3479C47.1284 19.3479 48.9725 17.4189 48.9725 15.1691C49.0812 12.7045 47.1284 10.8828 44.7421 10.8828Z" fill="black"/>
<path d="M11.4884 10.8828C9.10092 10.8828 7.25586 12.8366 7.25586 15.1154C7.25586 17.5029 9.20966 19.3479 11.4884 19.3479C13.8759 19.3479 15.721 17.3941 15.721 15.1154C15.7214 12.7279 13.8764 10.8828 11.4884 10.8828Z" fill="black"/>
<path d="M51.7083 10.1466C51.274 8.73743 49.6456 7.32815 48.0172 7.11125C44.9774 6.56938 42.0461 5.91886 38.8977 5.48519C36.6178 5.16016 25.0012 -5.03036 9.58591 3.20857C8.1747 3.96728 7.19768 4.50958 5.89479 4.61774L4.04918 4.72593C2.63797 4.83413 1.55218 5.70148 1.11788 6.89383C-0.836509 11.3383 -0.510528 15.4578 4.3747 15.7833H5.1345C4.59185 12.9649 7.30553 9.06217 11.5398 9.06217C15.4481 9.06217 18.3794 12.5312 17.9451 16.0001L38.3556 16.3256C37.7041 12.9648 40.5266 8.95399 44.6521 8.95399C48.5604 8.95399 51.4917 12.6398 51.0574 15.5669C52.0348 14.5909 52.252 11.7724 51.7093 10.1464L51.7083 10.1466ZM21.2021 6.78586C16.5336 6.56902 11.8655 6.24398 9.15092 5.81031C12.0822 4.40114 14.5792 2.44957 21.3098 2.3413V6.78581L21.2021 6.78586ZM23.3731 6.78586V2.4495C25.1103 2.5577 27.0642 2.77453 29.3441 3.20821C30.9726 3.75009 33.0353 4.72611 35.3152 6.24356C32.9269 6.67769 28.2585 6.89452 23.3729 6.78588L23.3731 6.78586Z" fill="black"/>
<path d="M30.8022 8.82603C30.7788 8.64452 30.7437 8.45038 30.6969 8.24383C30.6501 8.03726 30.5808 7.86202 30.4886 7.71797C30.3965 7.57403 30.2933 7.50196 30.1793 7.50196C30.1662 7.44098 30.1026 7.44796 29.9885 7.52311C29.8744 7.59826 29.821 7.62331 29.8284 7.59826C29.8356 7.57321 29.7961 7.60452 29.7099 7.6921C29.6237 7.77977 29.5806 7.82351 29.5806 7.82351L29.4512 7.962C29.3372 8.07781 29.1713 8.1662 28.9534 8.2273C28.7354 8.28848 28.4965 8.32586 28.2362 8.34003C27.976 8.35419 27.715 8.36353 27.4532 8.36815C27.1915 8.37277 26.929 8.38694 26.6658 8.41035C26.4026 8.43386 26.1906 8.4737 26.0298 8.53006C25.7111 8.64269 25.4128 8.79217 25.135 8.97841C24.8572 9.16465 24.6079 9.38219 24.3871 9.63106C24.1663 9.87992 23.9923 10.1686 23.8651 10.4972C23.7379 10.8258 23.6743 11.1701 23.6743 11.5301C23.6743 11.696 23.6874 11.8587 23.7137 12.0183C23.7196 12.0497 23.743 12.1185 23.7839 12.2249C23.8249 12.3314 23.8453 12.3908 23.8453 12.4033C23.8453 12.4628 23.7999 12.5379 23.7093 12.6287C23.6186 12.7194 23.5193 12.8071 23.4111 12.8916C23.3028 12.9761 23.2035 13.0786 23.1128 13.1991C23.0222 13.3196 22.9768 13.4347 22.9768 13.5442C22.9768 13.5661 22.9789 13.5872 22.9833 13.6076C22.9877 13.6279 22.9922 13.6427 22.9966 13.6521C23.0009 13.6615 23.009 13.6771 23.0206 13.699C23.0323 13.7208 23.0411 13.7382 23.0469 13.7506C23.0967 13.8413 23.1361 13.9071 23.1654 13.9478C23.1946 13.9885 23.2399 14.0261 23.3013 14.0605C23.3627 14.0949 23.4373 14.1121 23.525 14.1121C23.6099 14.1121 23.6976 14.062 23.7882 13.9619C23.8789 13.8618 23.9556 13.7522 24.0185 13.6333C24.0814 13.5144 24.1472 13.4048 24.2159 13.3046C24.2846 13.2045 24.3424 13.1544 24.3892 13.1544C24.4564 13.1544 24.5968 13.2123 24.8103 13.3281C25.0237 13.4441 25.1524 13.5098 25.1963 13.5254C25.5998 13.6725 26.0179 13.746 26.4507 13.746C27.1058 13.746 27.7462 13.5769 28.372 13.2388C29.0124 12.8977 29.5351 12.4784 29.9401 11.9807C30.3452 11.4829 30.6149 10.8837 30.7494 10.1825C30.808 9.87601 30.8373 9.57408 30.8373 9.27675C30.8373 9.15776 30.8256 9.00754 30.8022 8.82603ZM28.5081 10.4176C28.4524 10.477 28.3866 10.5068 28.3106 10.5068C27.7784 10.5068 27.3201 10.5882 26.9354 10.7509C26.5509 10.9136 26.1583 11.1891 25.7577 11.5772C25.6993 11.6366 25.6012 11.7399 25.4639 11.887C25.3264 12.0341 25.2182 12.1452 25.1393 12.2203C25.0779 12.2797 25.0121 12.3095 24.9419 12.3095C24.8658 12.3095 24.8 12.2797 24.7444 12.2203C24.6889 12.1609 24.6611 12.0904 24.6611 12.009C24.6611 11.9339 24.6889 11.8635 24.7444 11.7977C25.1012 11.3751 25.4455 11.0316 25.7774 10.7673C26.1093 10.5028 26.4888 10.2932 26.9157 10.1381C27.3426 9.98319 27.8076 9.90568 28.3105 9.90568C28.3866 9.90568 28.4524 9.93545 28.5081 9.99489C28.5636 10.0544 28.5913 10.1249 28.5913 10.2062C28.5913 10.2877 28.5636 10.3581 28.5081 10.4176Z" fill="white"/>
</svg>
