<svg width="18" height="28" viewBox="0 0 18 28" fill="none" xmlns="http://www.w3.org/2000/svg">
<path d="M17.9215 10.7818C17.8144 10.5982 17.6138 10.4847 17.3965 10.4847H9.49068L10.8161 0.650949C10.8454 0.380048 10.6797 0.124957 10.4153 0.0339364C10.1509 -0.0570842 9.85671 0.0396796 9.70371 0.267988L0.089395 16.624C-0.0250858 16.8048 -0.0299365 17.0316 0.0767142 17.2168C0.183365 17.4021 0.384845 17.5169 0.603424 17.5169H8.39111L7.34072 27.3655C7.31948 27.6354 7.49021 27.8846 7.75474 27.9699C8.01926 28.0552 8.30962 27.9546 8.45885 27.726L17.9143 11.3718C18.0259 11.1908 18.0287 10.9654 17.9215 10.7818Z" fill="#027AFF"/>
</svg>
