<svg width="48" height="48" viewBox="0 0 48 48" fill="none" xmlns="http://www.w3.org/2000/svg">
<path d="M38.2625 24.63C36.5131 24.63 35.097 26.0462 35.0137 27.8788C35.0137 29.7115 36.5131 31.2109 38.2625 31.2109C40.0952 31.2109 41.5113 29.7115 41.5113 27.9621C41.5946 26.0462 40.0952 24.63 38.2625 24.63Z" fill="black"/>
<path d="M12.8553 24.63C11.0226 24.63 9.60645 26.1295 9.60645 27.8788C9.60645 29.7115 11.1059 31.1276 12.8553 31.1276C14.6879 31.1276 16.1041 29.6282 16.1041 27.8788C16.1041 26.0462 14.6879 24.63 12.8553 24.63Z" fill="black"/>
<path d="M43.6769 23.797C43.3437 22.714 42.0941 21.6311 40.8446 21.4645C38.5121 21.048 36.2629 20.5482 33.8471 20.215C32.0978 19.965 23.1843 12.1346 11.3553 18.4656C10.2724 19.0487 9.52266 19.4652 8.52302 19.5485L7.10687 19.6318C6.02394 19.7151 5.19091 20.3816 4.85769 21.2979C3.35824 24.7133 3.60815 27.8788 7.35678 28.1287H7.9399C7.52339 25.9629 9.60596 22.9639 12.8548 22.9639C15.8537 22.9639 18.1029 25.6296 17.7697 28.2953L33.4306 28.5452C32.9308 25.9629 35.0967 22.8806 38.2622 22.8806C41.2611 22.8806 43.5103 25.7129 43.177 27.9621C43.9268 27.2124 44.0934 25.0465 43.6769 23.797ZM20.2687 21.2146C16.6867 21.048 13.1047 20.7981 11.0221 20.4649C13.2713 19.3819 15.1873 17.8825 20.352 17.7992V21.2146H20.2687ZM21.9348 21.2146V17.8825C23.2676 17.9658 24.7671 18.1324 26.5165 18.4656C27.766 18.8821 29.3488 19.6318 31.0981 20.7981C29.2655 21.1313 25.6834 21.2979 21.9348 21.2146Z" fill="black"/>
</svg>
