<svg width="32" height="32" viewBox="0 0 32 32" fill="none" xmlns="http://www.w3.org/2000/svg">
<path d="M24.9215 12.7818C24.8144 12.5982 24.6138 12.4847 24.3965 12.4847H16.4907L17.8161 2.65095C17.8454 2.38005 17.6797 2.12496 17.4153 2.03394C17.1509 1.94292 16.8567 2.03968 16.7037 2.26799L7.0894 18.624C6.97491 18.8048 6.97006 19.0316 7.07671 19.2168C7.18336 19.4021 7.38484 19.5169 7.60342 19.5169H15.3911L14.3407 29.3655C14.3195 29.6354 14.4902 29.8846 14.7547 29.9699C15.0193 30.0552 15.3096 29.9546 15.4588 29.726L24.9143 13.3718C25.0259 13.1908 25.0287 12.9654 24.9215 12.7818Z" fill="#027AFF"/>
</svg>
