<svg width="136" height="120" viewBox="0 0 136 120" fill="none" xmlns="http://www.w3.org/2000/svg">
<path d="M134.515 59.649C134.115 58.191 133.947 56.622 126.596 54.255C125.8 48.012 124.499 42.174 122.362 39.765C121.387 38.667 116.95 32.649 88.4945 30.648C86.2416 23.865 84.7217 23.694 83.3095 23.304C81.8974 22.914 76.7125 22.635 71.74 22.539V13.995C73.9749 12.699 75.4799 10.275 75.4799 7.5C75.4799 3.357 72.132 0 68.0002 0C63.8684 0 60.5205 3.357 60.5205 7.5C60.5205 10.275 62.0254 12.696 64.2603 13.995V22.539C59.2878 22.635 54.103 22.914 52.6908 23.304C51.2786 23.694 49.7587 23.865 47.5059 30.648C19.0502 32.649 14.6133 38.664 13.6379 39.765C11.5017 42.174 10.2002 48.009 9.40438 54.255C2.05036 56.625 1.88582 58.194 1.48491 59.649C0.994239 61.431 0.683105 69.201 0.683105 75C0.683105 80.799 0.994239 88.569 1.48491 90.351C1.88582 91.809 2.05335 93.378 9.40438 95.745C10.2002 101.988 11.5017 107.826 13.6379 110.235C14.8107 111.558 20.9919 120 68.0002 120C115.008 120 121.19 111.558 122.362 110.235C124.499 107.826 125.8 101.991 126.596 95.745C133.95 93.375 134.115 91.806 134.515 90.351C135.006 88.569 135.317 80.799 135.317 75C135.317 69.201 135.006 61.431 134.515 59.649ZM108.773 98.49C107.894 99.372 103.256 105 68.0002 105C32.744 105 28.1066 99.372 27.227 98.49C23.0952 94.347 23.1221 75 23.1221 75C23.1221 75 23.0952 55.653 27.227 51.51C28.1066 50.628 32.744 45 68.0002 45C103.256 45 107.894 50.628 108.773 51.51C112.905 55.653 112.878 75 112.878 75C112.878 75 112.905 94.347 108.773 98.49Z" fill="black"/>
<path d="M134.515 59.649C134.115 58.191 133.947 56.622 126.596 54.255C125.8 48.012 124.499 42.174 122.362 39.765C121.387 38.667 116.95 32.649 88.4945 30.648C86.2416 23.865 84.7217 23.694 83.3095 23.304C81.8974 22.914 76.7125 22.635 71.74 22.539V13.995C73.9749 12.699 75.4799 10.275 75.4799 7.5C75.4799 3.357 72.132 0 68.0002 0C63.8684 0 60.5205 3.357 60.5205 7.5C60.5205 10.275 62.0254 12.696 64.2603 13.995V22.539C59.2878 22.635 54.103 22.914 52.6908 23.304C51.2786 23.694 49.7587 23.865 47.5059 30.648C19.0502 32.649 14.6133 38.664 13.6379 39.765C11.5017 42.174 10.2002 48.009 9.40438 54.255C2.05036 56.625 1.88582 58.194 1.48491 59.649C0.994239 61.431 0.683105 69.201 0.683105 75C0.683105 80.799 0.994239 88.569 1.48491 90.351C1.88582 91.809 2.05335 93.378 9.40438 95.745C10.2002 101.988 11.5017 107.826 13.6379 110.235C14.8107 111.558 20.9919 120 68.0002 120C115.008 120 121.19 111.558 122.362 110.235C124.499 107.826 125.8 101.991 126.596 95.745C133.95 93.375 134.115 91.806 134.515 90.351C135.006 88.569 135.317 80.799 135.317 75C135.317 69.201 135.006 61.431 134.515 59.649ZM108.773 98.49C107.894 99.372 103.256 105 68.0002 105C32.744 105 28.1066 99.372 27.227 98.49C23.0952 94.347 23.1221 75 23.1221 75C23.1221 75 23.0952 55.653 27.227 51.51C28.1066 50.628 32.744 45 68.0002 45C103.256 45 107.894 50.628 108.773 51.51C112.905 55.653 112.878 75 112.878 75C112.878 75 112.905 94.347 108.773 98.49Z" fill="url(#paint0_linear_377_8685)"/>
<path d="M45.5612 90C49.6921 90 53.0409 83.2843 53.0409 75C53.0409 66.7157 49.6921 60 45.5612 60C41.4303 60 38.0815 66.7157 38.0815 75C38.0815 83.2843 41.4303 90 45.5612 90Z" fill="black"/>
<path d="M45.5612 90C49.6921 90 53.0409 83.2843 53.0409 75C53.0409 66.7157 49.6921 60 45.5612 60C41.4303 60 38.0815 66.7157 38.0815 75C38.0815 83.2843 41.4303 90 45.5612 90Z" fill="url(#paint1_linear_377_8685)"/>
<path d="M90.4391 90C94.5701 90 97.9188 83.2843 97.9188 75C97.9188 66.7157 94.5701 60 90.4391 60C86.3082 60 82.9595 66.7157 82.9595 75C82.9595 83.2843 86.3082 90 90.4391 90Z" fill="black"/>
<path d="M90.4391 90C94.5701 90 97.9188 83.2843 97.9188 75C97.9188 66.7157 94.5701 60 90.4391 60C86.3082 60 82.9595 66.7157 82.9595 75C82.9595 83.2843 86.3082 90 90.4391 90Z" fill="url(#paint2_linear_377_8685)"/>
<path d="M75.4799 90C75.4799 94.143 72.132 97.5 68.0002 97.5C63.8684 97.5 60.5205 94.143 60.5205 90H75.4799Z" fill="black"/>
<path d="M75.4799 90C75.4799 94.143 72.132 97.5 68.0002 97.5C63.8684 97.5 60.5205 94.143 60.5205 90H75.4799Z" fill="url(#paint3_linear_377_8685)"/>
<defs>
<linearGradient id="paint0_linear_377_8685" x1="106.249" y1="16.875" x2="11.6318" y2="116.846" gradientUnits="userSpaceOnUse">
<stop stop-color="#8A28EC"/>
<stop offset="1" stop-color="#5C13F7"/>
</linearGradient>
<linearGradient id="paint1_linear_377_8685" x1="49.811" y1="64.2188" x2="31.5816" y2="72.7792" gradientUnits="userSpaceOnUse">
<stop stop-color="#8A28EC"/>
<stop offset="1" stop-color="#5C13F7"/>
</linearGradient>
<linearGradient id="paint2_linear_377_8685" x1="94.689" y1="64.2188" x2="76.4595" y2="72.7792" gradientUnits="userSpaceOnUse">
<stop stop-color="#8A28EC"/>
<stop offset="1" stop-color="#5C13F7"/>
</linearGradient>
<linearGradient id="paint3_linear_377_8685" x1="72.25" y1="91.0547" x2="67.3366" y2="100.284" gradientUnits="userSpaceOnUse">
<stop stop-color="#8A28EC"/>
<stop offset="1" stop-color="#5C13F7"/>
</linearGradient>
</defs>
</svg>
