<svg width="24" height="24" viewBox="0 0 24 24" fill="none" xmlns="http://www.w3.org/2000/svg">
<path d="M16 20.6667C12.6533 20.6667 9.76 18.7733 8.32 16H16V13.3333H7.44C7.37333 12.8933 7.33333 12.4533 7.33333 12C7.33333 11.5467 7.37333 11.1067 7.44 10.6667H16V8H8.32C9.76 5.22667 12.6667 3.33333 16 3.33333C18.1467 3.33333 20.12 4.12 21.64 5.42667L24 3.06667C21.88 1.16 19.0667 0 16 0C10.7733 0 6.34667 3.34667 4.69333 8H0V10.6667H4.08C4.02667 11.1067 4 11.5467 4 12C4 12.4533 4.02667 12.8933 4.08 13.3333H0V16H4.69333C6.34667 20.6533 10.7733 24 16 24C19.08 24 21.88 22.84 24 20.9333L21.6267 18.5733C20.12 19.88 18.16 20.6667 16 20.6667Z" fill="black"/>
</svg>
