<svg xmlns="http://www.w3.org/2000/svg" width="20" height="20" viewBox="0 0 20 20" fill="currentColor">
  <path d="M13.7503 2.35352C12.3003 2.35352 10.9087 3.02852 10.0003 4.09518C9.09199 3.02852 7.70033 2.35352 6.25033 2.35352C3.68366 2.35352 1.66699 4.37018 1.66699 6.93685C1.66699 10.0868 4.50033 12.6535 8.79199 16.5535L10.0003 17.6452L11.2087 16.5452C15.5003 12.6535 18.3337 10.0868 18.3337 6.93685C18.3337 4.37018 16.317 2.35352 13.7503 2.35352ZM10.0837 15.3118L10.0003 15.3952L9.91699 15.3118C5.95033 11.7202 3.33366 9.34518 3.33366 6.93685C3.33366 5.27018 4.58366 4.02018 6.25033 4.02018C7.53366 4.02018 8.78366 4.84518 9.22533 5.98685H10.7837C11.217 4.84518 12.467 4.02018 13.7503 4.02018C15.417 4.02018 16.667 5.27018 16.667 6.93685C16.667 9.34518 14.0503 11.7202 10.0837 15.3118Z"/>
</svg>