<svg width="16" height="17" viewBox="0 0 16 17" fill="none" xmlns="http://www.w3.org/2000/svg">
<path fill-rule="evenodd" clip-rule="evenodd" d="M8.68574 2.54828C8.51267 2.67383 8.3477 2.81495 8.19095 2.96977L8.0626 3.10125L8 3.17026L7.9374 3.10125L7.80905 2.96977C7.6523 2.81495 7.48733 2.67383 7.31426 2.54827C6.73288 2.12651 6.06008 1.88037 5.3 1.88037C2.58473 1.88037 1 4.25692 1 6.68437C1 9.05888 2.19139 11.121 4.13701 12.7806C5.50533 13.9477 7.2954 14.8804 8 14.8804C8.705 14.8804 10.495 13.9478 11.8633 12.7805C13.8088 11.121 15 9.0589 15 6.68437C15 4.25692 13.4153 1.88037 10.7 1.88037C9.93992 1.88037 9.26711 2.12651 8.68574 2.54828ZM6.67538 4.09894C6.23895 3.67147 5.78989 3.48037 5.3 3.48037C3.75142 3.48037 2.6 4.82808 2.6 6.68437C2.6 8.46796 3.48098 10.118 5.17536 11.5632C5.76665 12.0676 6.46051 12.5292 7.07374 12.8582C7.37967 13.0223 7.64224 13.1408 7.84224 13.2142C7.91231 13.2398 7.96436 13.2561 8.00009 13.2663C8.03585 13.2561 8.08795 13.2398 8.1581 13.2141C8.35812 13.1408 8.62069 13.0223 8.92662 12.8582C9.53983 12.5293 10.2337 12.0677 10.825 11.5633C12.5191 10.1181 13.4 8.46806 13.4 6.68437C13.4 4.82808 12.2486 3.48037 10.7 3.48037C10.2101 3.48037 9.76105 3.67147 9.32462 4.09894L9.228 4.19792L8 5.5518L6.77199 4.19792L6.67538 4.09894Z" fill="white"/>
</svg>
