<svg width="18" height="16" viewBox="0 0 18 16" fill="none" xmlns="http://www.w3.org/2000/svg">
<path fill-rule="evenodd" clip-rule="evenodd" d="M9.88167 0.822036C9.65915 0.976565 9.44705 1.15025 9.2455 1.3408L9.08048 1.50262L9 1.58756L8.91952 1.50262L8.7545 1.3408C8.55295 1.15025 8.34085 0.976564 8.11833 0.822034C7.37085 0.302946 6.50582 0 5.52857 0C2.03751 0 0 2.92498 0 5.91262C0 8.83509 1.53178 11.373 4.0333 13.4156C5.79256 14.8521 8.09409 16 9 16C9.90643 16 12.2078 14.8522 13.9672 13.4156C16.4684 11.3731 18 8.83511 18 5.91262C18 2.92498 15.9625 0 12.4714 0C11.4942 0 10.6291 0.302946 9.88167 0.822036ZM7.29691 2.73055C6.7358 2.20443 6.15842 1.96923 5.52857 1.96923C3.53754 1.96923 2.05714 3.62795 2.05714 5.91262C2.05714 8.1078 3.18984 10.1386 5.36832 11.9174C6.12855 12.5381 7.02066 13.1063 7.80909 13.5112C8.20244 13.7132 8.54002 13.859 8.79717 13.9493C8.88725 13.9809 8.95418 14.0009 9.00012 14.0135C9.04609 14.0009 9.11308 13.9809 9.20327 13.9492C9.46044 13.859 9.79803 13.7132 10.1914 13.5112C10.9798 13.1064 11.8718 12.5382 12.6321 11.9174C14.8102 10.1387 15.9429 8.10792 15.9429 5.91262C15.9429 3.62795 14.4625 1.96923 12.4714 1.96923C11.8416 1.96923 11.2642 2.20442 10.7031 2.73055L10.5789 2.85236L9 4.51868L7.42114 2.85236L7.29691 2.73055Z" fill="black"/>
</svg>
