<svg xmlns="http://www.w3.org/2000/svg" width="20" height="20" fill="none" viewBox="0 0 20 20">
    <path fill="#fff" d="M13.75 2.355A4.99 4.99 0 0 0 10 4.097a4.99 4.99 0 0 0-3.75-1.742c-2.567 0-4.583 2.017-4.583 4.584 0 3.15 2.833 5.716 7.125 9.616L10 17.647l1.208-1.1c4.292-3.892 7.125-6.458 7.125-9.608 0-2.567-2.016-4.584-4.583-4.584Zm-3.667 12.959-.083.083-.083-.083C5.95 11.722 3.333 9.347 3.333 6.939c0-1.667 1.25-2.917 2.917-2.917 1.283 0 2.533.825 2.975 1.967h1.558c.434-1.142 1.684-1.967 2.967-1.967 1.667 0 2.917 1.25 2.917 2.917 0 2.408-2.617 4.783-6.584 8.375Z"/>
</svg>
