<svg width="25" height="24" viewBox="0 0 25 24" fill="currentColor" xmlns="http://www.w3.org/2000/svg">
<path d="M16.5283 2.82495C14.7883 2.82495 13.1183 3.63495 12.0283 4.91495C10.9383 3.63495 9.26832 2.82495 7.52832 2.82495C4.44832 2.82495 2.02832 5.24495 2.02832 8.32495C2.02832 12.105 5.42832 15.185 10.5783 19.865L12.0283 21.175L13.4783 19.855C18.6283 15.185 22.0283 12.105 22.0283 8.32495C22.0283 5.24495 19.6083 2.82495 16.5283 2.82495ZM12.1283 18.375L12.0283 18.475L11.9283 18.375C7.16832 14.065 4.02832 11.215 4.02832 8.32495C4.02832 6.32495 5.52832 4.82495 7.52832 4.82495C9.06832 4.82495 10.5683 5.81495 11.0983 7.18495H12.9683C13.4883 5.81495 14.9883 4.82495 16.5283 4.82495C18.5283 4.82495 20.0283 6.32495 20.0283 8.32495C20.0283 11.215 16.8883 14.065 12.1283 18.375Z"/>
</svg>
