<svg width="32" height="32" viewBox="0 0 32 32" fill="none" xmlns="http://www.w3.org/2000/svg">
<path d="M11.0007 4C9.01564 4 7.40026 5.61538 7.40026 7.60039V25.6024H5V28.0026H24.2021V25.6024H21.8018V23.2021H24.2021C26.1763 23.2021 27.8025 21.5759 27.8025 19.6017V10.7039L23.8505 6.75186L22.1534 8.44892L24.2021 10.4976V12.4009C24.2021 13.0634 24.7397 13.601 25.4022 13.601V19.6017C25.4022 20.2798 24.8802 20.8018 24.2021 20.8018H21.8018V7.60039C21.8018 5.61538 20.1865 4 18.2014 4H11.0007ZM11.0007 6.40026H18.2014C18.8627 6.40026 19.4016 6.93792 19.4016 7.60039V12.4009H9.80052V7.60039C9.80052 6.93792 10.3394 6.40026 11.0007 6.40026Z" fill="#FCC000"/>
</svg>
