<svg width="32" height="32" viewBox="0 0 32 32" fill="none" xmlns="http://www.w3.org/2000/svg">
<path d="M9.57143 3V4.3V9.5H9.53376C8.4859 10.1409 7 11.593 7 14.7V25.1C7 27.2502 8.73057 29 10.8571 29H21.1429C23.2694 29 25 27.2502 25 25.1V14.7C25 11.658 23.4634 10.1604 22.4361 9.5H22.4286V3H9.57143ZM12.1429 5.6H19.8571V9.5H17.2857V6.9H14.7143V9.5H12.1429V5.6ZM16 14.7C16 14.7 19.8571 17.3 19.8571 20.55C19.8571 22.4558 18.5723 23.8 16.7157 23.8C17.0525 23.5699 17.2857 23.1032 17.2857 22.5C17.2857 20.55 16 18.6 16 18.6C16 18.6 14.7143 20.55 14.7143 22.5C14.7143 23.1032 14.9475 23.5699 15.2843 23.8C13.4277 23.8 12.1429 22.4558 12.1429 20.55C12.1429 17.3 16 14.7 16 14.7Z" fill="#FD541A"/>
</svg>
