<svg xmlns="http://www.w3.org/2000/svg" width="11" height="12" viewBox="0 0 11 12" fill="none">
<path d="M9.80576 12V10.1698H5.77622C5.08838 10.1698 4.48584 10.0035 3.96861 9.671C3.45138 9.33847 3.05194 8.86979 2.77031 8.26495C2.48868 7.66012 2.34786 6.95972 2.34786 6.16375C2.34786 5.2997 2.47378 4.58228 2.72563 4.01148C2.97747 3.44068 3.38503 2.99819 3.9483 2.68399V6.33656H4.93131V2.39335C5.0938 2.36193 5.26982 2.34622 5.45938 2.34622C5.64353 2.34622 5.82767 2.36193 6.01182 2.39335V6.33656H6.99483V2.68399C7.57435 2.99295 7.99003 3.44068 8.24188 4.02719C8.49372 4.6137 8.61965 5.38348 8.61965 6.33656H11C11 5.42538 10.8389 4.5862 10.5166 3.81903C10.1944 3.05186 9.73129 2.40252 9.1274 1.871C8.52351 1.33948 7.81265 0.971601 6.99483 0.767372V0H6.01182V0.594562L5.75185 0.586707C5.69227 0.58147 5.60561 0.578852 5.49188 0.578852C5.23732 0.578852 5.05047 0.584089 4.93131 0.594562V0H3.9483V0.767372C3.15756 0.971601 2.4643 1.32638 1.86854 1.83172C1.27277 2.33706 0.812408 2.94058 0.487445 3.6423C0.162482 4.34401 0 5.08238 0 5.8574C0 6.45438 0.0839488 7.03565 0.251846 7.60121C0.419744 8.16677 0.666174 8.67341 0.991137 9.12115C1.3161 9.56888 1.70335 9.91843 2.15288 10.1698V10.2326H0.601182V12H9.80576Z" fill="#181A26"/>
</svg>