<svg width="24" height="24" viewBox="0 0 24 24" fill="none" xmlns="http://www.w3.org/2000/svg">
<path d="M6.51187 13.1341C6.51187 16.6509 8.96042 18.7942 12.4644 18.7942H19.0501V21H5.24538V19.0023H7.56728C5.39314 17.9619 4 15.8185 4 12.9052C4 9.22197 6.17414 6.53757 9.38259 5.60116V3H10.839V5.28902C11.219 5.2474 11.6201 5.22659 12.0211 5.22659C12.4222 5.22659 12.8232 5.2474 13.2032 5.28902V3H14.6596V5.60116C17.8259 6.55838 20 9.3052 20 13.2173H17.4881C17.4881 10.4081 16.3905 8.66012 14.6596 7.84856V13.2173H13.2032V7.41156C12.8232 7.32833 12.4222 7.30751 12.0211 7.30751C11.6201 7.30751 11.219 7.32833 10.839 7.39075V13.2173H9.38259V7.82775C7.63061 8.63931 6.51187 10.3665 6.51187 13.1341Z" fill="#222222"/>
</svg>
