<svg width="14" height="14" viewBox="0 0 14 14" fill="none" xmlns="http://www.w3.org/2000/svg">
<path fill-rule="evenodd" clip-rule="evenodd" d="M10.7834 5.26663C9.65121 5.26663 8.7334 4.34881 8.7334 3.21663C8.7334 2.08444 9.65121 1.16663 10.7834 1.16663C11.9156 1.16663 12.8334 2.08444 12.8334 3.21663C12.8334 4.34881 11.9156 5.26663 10.7834 5.26663Z" fill="black" stroke="black" stroke-width="1.5" stroke-linecap="round" stroke-linejoin="round"/>
<path fill-rule="evenodd" clip-rule="evenodd" d="M3.21675 5.26663C2.08457 5.26663 1.16675 4.34881 1.16675 3.21663C1.16675 2.08444 2.08457 1.16663 3.21675 1.16663C4.34894 1.16663 5.26675 2.08444 5.26675 3.21663C5.26675 4.34881 4.34894 5.26663 3.21675 5.26663Z" fill="black" stroke="black" stroke-width="1.5" stroke-linecap="round" stroke-linejoin="round"/>
<path fill-rule="evenodd" clip-rule="evenodd" d="M10.7834 13.0166C9.65121 13.0166 8.7334 12.0988 8.7334 10.9666C8.7334 9.83444 9.65121 8.91663 10.7834 8.91663C11.9156 8.91663 12.8334 9.83444 12.8334 10.9666C12.8334 12.0988 11.9156 13.0166 10.7834 13.0166Z" fill="black" stroke="black" stroke-width="1.5" stroke-linecap="round" stroke-linejoin="round"/>
<path fill-rule="evenodd" clip-rule="evenodd" d="M3.21675 13.0166C2.08457 13.0166 1.16675 12.0988 1.16675 10.9666C1.16675 9.83444 2.08457 8.91663 3.21675 8.91663C4.34894 8.91663 5.26675 9.83444 5.26675 10.9666C5.26675 12.0988 4.34894 13.0166 3.21675 13.0166Z" fill="black" stroke="black" stroke-width="1.5" stroke-linecap="round" stroke-linejoin="round"/>
</svg>
