<svg width="16" height="16" viewBox="0 0 16 16" fill="none" xmlns="http://www.w3.org/2000/svg">
<path d="M11.54 7.5C11.5533 7.67333 11.4933 7.85332 11.36 7.98665L7.34665 12C6.45999 12.8867 5.56665 12.8867 4.67332 12L1.99999 9.32666C1.54665 8.86666 1.31999 8.40666 1.33332 7.94666H1.37999L11.46 7.50667L11.54 7.5Z" fill="#7E8594"/>
<path opacity="0.4" d="M11.3599 7.09328L6.45992 2.19326L5.87992 1.61326C5.68659 1.41993 5.36658 1.41993 5.17325 1.61326C4.97992 1.8066 4.97992 2.12659 5.17325 2.31993L5.75325 2.89992L1.99992 6.65326C1.57325 7.07993 1.34659 7.51326 1.33325 7.94659H1.37992L11.4599 7.50661L11.5399 7.49994C11.5333 7.35327 11.4666 7.19995 11.3599 7.09328Z" fill="#7E8594"/>
<path d="M10.6667 15.1666H2C1.72667 15.1666 1.5 14.94 1.5 14.6666C1.5 14.3933 1.72667 14.1666 2 14.1666H10.6667C10.94 14.1666 11.1667 14.3933 11.1667 14.6666C11.1667 14.94 10.94 15.1666 10.6667 15.1666Z" fill="#7E8594"/>
<path d="M12.9 9.85338C12.7267 9.66671 12.4067 9.66671 12.2333 9.85338C12.0267 10.08 11 11.24 11 12.1133C11 12.98 11.7 13.68 12.5667 13.68C13.4333 13.68 14.1333 12.98 14.1333 12.1133C14.1333 11.24 13.1067 10.08 12.9 9.85338Z" fill="#7E8594"/>
</svg>
