<svg width="24" height="24" viewBox="0 0 24 24" fill="none" xmlns="http://www.w3.org/2000/svg"><path d="M12.2248 2.00064C12.3847 2.0061 12.5387 2.06256 12.6643 2.16177L19.7707 7.7604C20.6727 8.47122 21.2004 9.55739 21.2004 10.7057V20.2506C21.2004 20.9324 20.6322 21.5006 19.9504 21.5006H14.9504C14.2686 21.5006 13.7004 20.9324 13.7004 20.2506V15.2506C13.7004 15.1031 13.5979 15.0006 13.4504 15.0006H10.9504C10.8029 15.0006 10.7004 15.1031 10.7004 15.2506V20.2506C10.7004 20.9324 10.1322 21.5006 9.45039 21.5006H4.45039C3.76859 21.5006 3.20039 20.9324 3.20039 20.2506V10.7057C3.20039 9.55739 3.72813 8.47122 4.63008 7.7604L11.7365 2.16177C11.8752 2.05221 12.0481 1.99514 12.2248 2.00064ZM12.2004 3.70571L5.55781 8.93911C5.01576 9.3663 4.70039 10.016 4.70039 10.7057V20.0006H9.20039V15.2506C9.20039 14.2932 9.99291 13.5006 10.9504 13.5006H13.4504C14.4079 13.5006 15.2004 14.2932 15.2004 15.2506V20.0006H19.7004V10.7057C19.7004 10.016 19.385 9.3663 18.843 8.93911L12.2004 3.70571Z" fill="#272A37"></path><path fill-rule="evenodd" clip-rule="evenodd" d="M11.6125 2.00483L4.50631 7.6033C3.55631 8.35198 3.00039 9.49602 3.00039 10.7057V20.2506C3.00039 21.0429 3.65814 21.7006 4.45039 21.7006H9.45039C10.2426 21.7006 10.9004 21.0429 10.9004 20.2506V15.2506C10.9004 15.2244 10.9087 15.2146 10.9115 15.2117C10.9143 15.2089 10.9242 15.2006 10.9504 15.2006H13.4504C13.4766 15.2006 13.4865 15.2089 13.4893 15.2117C13.4921 15.2146 13.5004 15.2244 13.5004 15.2506V20.2506C13.5004 21.0429 14.1581 21.7006 14.9504 21.7006H19.9504C20.7426 21.7006 21.4004 21.0429 21.4004 20.2506V10.7057C21.4004 9.49602 20.8445 8.352 19.8945 7.60332L12.7883 2.00485C12.6293 1.87927 12.4341 1.80767 12.2316 1.80075C12.0079 1.79379 11.7882 1.86609 11.6125 2.00483ZM12.2183 2.20053C12.0888 2.19658 11.9621 2.23842 11.8605 2.31871L4.75387 7.91748C3.89997 8.59044 3.40039 9.61876 3.40039 10.7057V20.2506C3.40039 20.822 3.87905 21.3006 4.45039 21.3006H9.45039C10.0217 21.3006 10.5004 20.822 10.5004 20.2506V15.2506C10.5004 15.1294 10.5434 15.0142 10.6286 14.9289C10.7139 14.8436 10.8291 14.8006 10.9504 14.8006H13.4504C13.5717 14.8006 13.6868 14.8436 13.7721 14.9289C13.8574 15.0142 13.9004 15.1294 13.9004 15.2506V20.2506C13.9004 20.822 14.3791 21.3006 14.9504 21.3006H19.9504C20.5217 21.3006 21.0004 20.822 21.0004 20.2506V10.7057C21.0004 9.61877 20.5008 8.59046 19.6469 7.9175L12.5405 2.31887C12.4485 2.24618 12.3354 2.20459 12.2183 2.20053ZM12.2004 3.4511L5.43404 8.78201C4.84391 9.24709 4.50039 9.95472 4.50039 10.7057V20.2006H9.40039V15.2506C9.40039 14.4036 10.1034 13.7006 10.9504 13.7006H13.4504C14.2974 13.7006 15.0004 14.4036 15.0004 15.2506V20.2006H19.9004V10.7057C19.9004 9.95471 19.5569 9.2471 18.9668 8.78203L12.2004 3.4511ZM12.2004 3.96033L18.7192 9.0962C19.2131 9.48549 19.5004 10.0774 19.5004 10.7057V19.8006H15.4004V15.2506C15.4004 14.1827 14.5183 13.3006 13.4504 13.3006H10.9504C9.88246 13.3006 9.00039 14.1827 9.00039 15.2506V19.8006H4.90039V10.7057C4.90039 10.0774 5.18763 9.48549 5.68161 9.0962L12.2004 3.96033Z" fill="#272A37"></path></svg>