<svg width="32" height="32" viewBox="0 0 32 32" fill="none" xmlns="http://www.w3.org/2000/svg">
<path d="M6.28091 9.53452C6.11092 9.60454 6 9.7709 6 9.95452C6 27.5954 13.3109 29.5 16.4545 29.5C17.5854 29.5 18.6418 29.2491 19.5936 28.7536C19.7409 28.6773 19.8345 28.5264 19.8382 28.3609C19.8336 28.2045 19.7554 28.04 19.6109 27.9573C17.5527 26.7663 12.4727 23.3936 9.77365 17.8236C9.66455 17.5954 9.75818 17.3227 9.98275 17.2145C10.2091 17.1054 10.4818 17.2 10.5909 17.4254C10.7946 17.8454 11.0164 18.2491 11.2464 18.6445C11.3345 18.7954 11.4282 18.9418 11.52 19.09C11.6582 19.3127 11.7991 19.5327 11.9446 19.7472C12.0882 19.9608 12.2355 20.1718 12.3864 20.3791C12.4336 20.4436 12.4818 20.5054 12.53 20.5691C16.6609 26.1127 23.2509 29.5 25.5454 29.5C25.7963 29.5 26 29.2963 26 29.0454C26 28.7945 25.7963 28.5909 25.5454 28.5909C24.8127 28.5909 23.3273 28.0918 21.5554 27.1473C22.6764 25.7763 23.2727 23.9318 23.2727 21.7727C23.2727 15.9354 17.7182 14.7127 14.7337 14.0563C10.7173 13.1727 8.37093 11.2282 6.77548 9.6336C6.64547 9.50269 6.45089 9.46451 6.28091 9.53452Z" fill="#4F9CA6"/>
<path fill-rule="evenodd" clip-rule="evenodd" d="M22.0901 2.84458C22.3581 2.39324 22.6419 2.37712 22.9099 2.84458C22.9424 2.894 22.9754 2.94406 23.0087 2.99472C24.2367 4.86086 26 7.54053 26 8.92153C26 9.9048 25.6059 10.8075 24.9752 11.4522C24.3446 12.097 23.4617 12.5 22.5 12.5C21.5383 12.5 20.6554 12.097 20.0248 11.4522C19.3941 10.8075 19 9.9048 19 8.92153C19 7.54215 20.7998 4.80602 22.0291 2.93731C22.0496 2.90616 22.0699 2.87524 22.0901 2.84458ZM23.9662 11.5646C24.4076 11.3067 24.7703 10.936 25.0225 10.5169C25.2748 10.0816 25.4324 9.59805 25.4639 9.08224C25.4797 8.84045 25.3063 8.64702 25.0698 8.6309C24.8333 8.61478 24.6441 8.79209 24.6284 9.03388C24.6126 9.40462 24.5022 9.75925 24.313 10.0655C24.1239 10.3718 23.8716 10.6297 23.5563 10.807C23.3513 10.9198 23.2725 11.1777 23.3986 11.4034C23.509 11.613 23.7612 11.6774 23.9662 11.5646Z" fill="#4F9CA6"/>
</svg>
