<svg xmlns="http://www.w3.org/2000/svg" width="18" height="18" viewBox="0 0 18 18"><g id="Group_1820" data-name="Group 1820" transform="translate(-1398 -2855)"><path id="Shape" d="M9 18c-2.442 0-2.76-.01-3.711-.054a6.67 6.67 0 0 1-2.189-.418 4.4 4.4 0 0 1-1.594-1.038 4.408 4.408 0 0 1-1.033-1.596 6.67 6.67 0 0 1-.419-2.184C.01 11.759 0 11.442 0 9c0-2.426.01-2.746.054-3.711A6.626 6.626 0 0 1 .472 3.1a4.422 4.422 0 0 1 1.039-1.589A4.4 4.4 0 0 1 3.105.473 6.637 6.637 0 0 1 5.29.054C6.241.01 6.558 0 9 0s2.759.01 3.71.054a6.669 6.669 0 0 1 2.186.418 4.4 4.4 0 0 1 1.593 1.038 4.422 4.422 0 0 1 1.038 1.59 6.731 6.731 0 0 1 .418 2.184C17.989 6.25 18 6.57 18 9s-.01 2.749-.054 3.711a6.729 6.729 0 0 1-.418 2.184 4.611 4.611 0 0 1-2.628 2.633 6.681 6.681 0 0 1-2.186.418C11.759 17.99 11.441 18 9 18zM8.194 1.619c-1.691 0-2 .013-2.829.051a4.948 4.948 0 0 0-1.671.311 2.789 2.789 0 0 0-1.035.673 2.789 2.789 0 0 0-.673 1.035 4.968 4.968 0 0 0-.31 1.671c-.044.931-.053 1.213-.053 3.64s.009 2.706.052 3.637a4.968 4.968 0 0 0 .31 1.671 2.791 2.791 0 0 0 .673 1.035 2.789 2.789 0 0 0 1.035.673 5 5 0 0 0 1.671.31c.977.043 1.266.053 3.637.053s2.659-.009 3.637-.053a4.968 4.968 0 0 0 1.671-.31 2.983 2.983 0 0 0 1.707-1.716 4.994 4.994 0 0 0 .31-1.671c.043-.977.053-1.266.053-3.635s-.009-2.659-.053-3.635a4.968 4.968 0 0 0-.31-1.671 2.8 2.8 0 0 0-.673-1.035 2.781 2.781 0 0 0-1.035-.673 4.968 4.968 0 0 0-1.671-.31c-.931-.043-1.213-.052-3.637-.052h-.806zm.807 12A4.621 4.621 0 1 1 13.622 9 4.627 4.627 0 0 1 9 13.621zM9 6a3 3 0 1 0 3 3 3 3 0 0 0-3-3zm4.8-.725a1.08 1.08 0 1 1 1.08-1.08 1.081 1.081 0 0 1-1.08 1.081z" fill="#26262a" transform="translate(1398 2855)"></path></g></svg>