<svg width="56" height="21" viewBox="0 0 56 21" fill="none" xmlns="http://www.w3.org/2000/svg">
<path d="M55.9088 16.1795C55.5585 14.6514 54.974 12.653 54.2728 11.1248C53.5717 9.3615 51.8191 8.30368 49.8329 8.30368C46.5614 8.30368 43.173 8.18636 39.9016 8.18636C39.785 8.18636 39.4342 8.06904 39.3176 7.83391C38.4998 6.07064 37.3312 4.1896 35.5787 2.19114C34.6439 1.13328 33.2422 0.427872 31.8398 0.310089C24.4788 -0.0423652 16.6507 -0.160185 9.40589 0.310089C7.88661 0.427414 6.48427 1.48528 5.78323 2.8961L4.61469 5.71717H2.51181C1.22666 5.71717 0.175277 6.6577 0.175277 7.95069C-0.0584255 10.4194 -0.0584255 12.5352 0.175277 14.534C0.291888 15.7097 1.34381 16.6502 2.51181 16.6502H3.09583V18.5313C3.09583 19.8243 4.14726 21 5.54955 21H6.8347V20.8827C6.8347 16.5329 10.3398 12.8891 14.7797 12.8891C19.103 12.8891 22.7247 16.4156 22.7247 20.8827V21H39.3164V20.8827C39.3164 16.5329 42.8215 12.8891 47.2614 12.8891C51.351 12.8891 54.6224 15.9454 55.0898 19.9422C55.2065 19.8248 55.3236 19.707 55.4402 19.5897C55.9085 18.5309 56.1418 17.3552 55.9085 16.1795L55.9088 16.1795ZM14.7812 11.8302H9.28974C8.70571 11.8302 8.1212 11.3599 8.1212 10.6545V4.65929C8.1212 3.95388 8.70523 3.48361 9.28974 3.48361H14.7812V11.8302ZM24.8295 10.6545C24.8295 11.3599 24.2455 11.8302 23.661 11.8302H17.3515V3.48366H23.661C24.245 3.48366 24.8295 3.95393 24.8295 4.65934V10.6545ZM34.8774 9.94913C34.5271 10.0665 34.1763 10.1843 33.826 10.1843H32.5409L31.3723 7.48047C31.1386 6.89288 30.4375 6.65774 29.8535 6.89288C29.2696 7.12801 28.9187 7.83341 29.2695 8.42095L29.9706 10.1842H28.101C27.9844 10.1842 27.7507 10.0669 27.7507 9.83176L27.7502 2.66091C29.0354 2.66091 30.4376 2.77824 31.8398 2.77824C32.6575 2.77824 33.4758 3.1307 33.9432 3.8361C35.462 5.71715 36.6305 7.24534 37.3317 8.77342L34.8774 9.94913Z" fill="#549684"/>
</svg>
