<svg width="48" height="48" viewBox="0 0 48 48" fill="none" xmlns="http://www.w3.org/2000/svg">
<path d="M4.16331 21.415C4.24662 20.6652 4.91308 20.1654 5.66284 20.0821C5.91277 20.0821 6.07938 20.0821 6.16269 20.0821L8.07875 16.9164C8.41198 16.3332 9.07844 16 9.7449 16H27.1561C27.9059 16 28.5724 16.2499 29.0722 16.8331L32.2379 19.9988C32.3212 20.0821 32.4045 20.0821 32.4878 20.0821C35.2369 20.0821 38.0694 20.4986 40.9018 21.1651C41.5683 21.3317 42.0681 21.7482 42.2348 22.4147C42.4014 22.9978 42.8179 23.4977 43.3178 23.9975C43.8176 24.4973 44.0675 25.1638 43.9842 25.9136C43.9009 26.6633 43.7343 27.3298 43.4011 27.9129C43.2344 28.1629 43.1511 28.4128 42.9012 28.5794C42.6513 25.747 40.2354 23.4977 37.3196 23.4977C34.2373 23.4977 31.738 25.9969 31.738 29.0793C31.738 29.1626 31.738 29.2459 31.738 29.2459H19.5752C19.9084 26.6633 17.4925 23.4144 13.9936 23.4144C10.4947 23.4144 8.07875 26.58 8.41198 29.2459H7.24568C6.99576 29.2459 6.82914 29.1626 6.66253 28.9959C6.49591 28.8293 6.41261 28.5794 6.41261 28.4128L6.57922 25.9136H5.74615C4.91307 25.9136 4.24662 25.3304 4.08 24.4973C4.08 23.4977 4.08 22.4147 4.16331 21.415ZM24.407 19.9154H29.9053L27.9059 17.9161C27.656 17.6661 27.4061 17.5828 27.1561 17.5828H24.4903V19.9154H24.407ZM18.7421 19.9154H22.8242V17.5828H18.7421V19.9154ZM17.0759 19.9154V17.5828H11.8276L10.9112 19.9154H17.0759Z" fill="black"/>
<path d="M37.4859 32.8281C39.6519 32.8281 41.4014 31.0786 41.4014 28.9126C41.4014 26.7466 39.6519 24.9972 37.4859 24.9972C35.3199 24.9972 33.5705 26.7466 33.5705 28.9126C33.5705 31.0786 35.3199 32.8281 37.4859 32.8281Z" fill="black"/>
<path d="M14.1597 32.8281C16.3257 32.8281 18.0752 31.0786 18.0752 28.9126C18.0752 26.7466 16.3257 24.9972 14.1597 24.9972C11.9938 24.9972 10.2443 26.7466 10.2443 28.9126C10.2443 31.0786 11.9938 32.8281 14.1597 32.8281Z" fill="black"/>
</svg>
