<svg width="40" height="40" viewBox="0 0 40 40" fill="none" xmlns="http://www.w3.org/2000/svg">
<g clip-path="url(#clip0_4248_8178)">
<path d="M20.96 27.5003H17.531C17.531 27.4183 17.576 18.3243 17.531 17.3803H20.96V18.8123C21.2285 18.3825 21.5801 18.0106 21.994 17.7183C22.6055 17.3215 23.3233 17.1203 24.052 17.1413C24.5737 17.12 25.0942 17.2079 25.5799 17.3993C26.0657 17.5908 26.5062 17.8817 26.873 18.2533C27.6791 19.214 28.0828 20.4489 28 21.7003V27.5003H24.571V22.0853C24.571 21.0413 24.271 19.7973 22.833 19.7973C22.4188 19.79 22.015 19.9272 21.691 20.1853C21.4177 20.4095 21.2055 20.6992 21.074 21.0273C20.9845 21.2909 20.9462 21.5692 20.961 21.8473V27.5003H20.96ZM15.632 27.5003H12.2V17.3793H15.63V27.5003H15.632ZM13.918 16.0003H13.9C13.6583 16.0185 13.4154 15.9868 13.1864 15.9072C12.9575 15.8276 12.7473 15.7016 12.5691 15.5373C12.3909 15.373 12.2484 15.1737 12.1505 14.952C12.0526 14.7302 12.0014 14.4907 12 14.2483C12.0021 14.0027 12.0552 13.7603 12.156 13.5363C12.2568 13.3124 12.403 13.1119 12.5855 12.9475C12.7679 12.7831 12.9825 12.6585 13.2157 12.5815C13.4489 12.5045 13.6956 12.4768 13.94 12.5003C14.1829 12.4793 14.4274 12.5088 14.6583 12.587C14.8892 12.6651 15.1014 12.7903 15.2816 12.9545C15.4618 13.1187 15.606 13.3184 15.7052 13.5411C15.8044 13.7637 15.8564 14.0045 15.858 14.2483C15.8611 14.4798 15.8163 14.7094 15.7265 14.9228C15.6366 15.1362 15.5037 15.3287 15.336 15.4883C14.947 15.8353 14.439 16.0187 13.918 16.0003Z" fill="#26262A"/>
</g>
<defs>
<clipPath id="clip0_4248_8178">
<rect width="16" height="15" fill="white" transform="translate(12 12.5)"/>
</clipPath>
</defs>
</svg>
