<svg xmlns="http://www.w3.org/2000/svg" width="16" height="15" viewBox="0 0 16 15"><path id="Shape" d="M8.96 15H5.531c0-.082.045-9.176 0-10.12H8.96v1.432a3.813 3.813 0 0 1 1.034-1.094 3.591 3.591 0 0 1 2.058-.577 3.749 3.749 0 0 1 2.821 1.112A4.863 4.863 0 0 1 16 9.2V15h-3.429V9.585c0-1.044-.3-2.288-1.738-2.288a1.783 1.783 0 0 0-1.142.388 2.1 2.1 0 0 0-.617.842 2.189 2.189 0 0 0-.113.82V15zm-5.328 0H.2V4.879h3.43V15zM1.918 3.5H1.9A1.767 1.767 0 0 1 0 1.748 1.771 1.771 0 0 1 1.94 0a1.766 1.766 0 0 1 1.918 1.748 1.681 1.681 0 0 1-.522 1.24 2.023 2.023 0 0 1-1.418.512z" fill="#26262a"></path></svg>