<svg width="40" height="40" viewBox="0 0 40 40" fill="none" xmlns="http://www.w3.org/2000/svg">
<g id="MapPin">
<path id="Vector" d="M19.998 2.49957C16.3526 2.5039 12.8578 3.95394 10.2801 6.53163C7.70242 9.10932 6.25237 12.6042 6.24805 16.2496C6.24805 28.0147 18.748 36.9014 19.2803 37.2737C19.4908 37.4207 19.7413 37.4996 19.998 37.4996C20.2548 37.4996 20.5053 37.4207 20.7158 37.2737C21.248 36.9014 33.748 28.0147 33.748 16.2496C33.7437 12.6042 32.2937 9.10932 29.716 6.53163C27.1383 3.95394 23.6434 2.5039 19.998 2.49957ZM19.999 11.25C20.9879 11.25 21.9546 11.5433 22.7768 12.0927C23.5991 12.6421 24.2399 13.423 24.6184 14.3366C24.9968 15.2502 25.0958 16.2556 24.9029 17.2255C24.71 18.1954 24.2338 19.0863 23.5345 19.7856C22.8352 20.4848 21.9443 20.961 20.9744 21.154C20.0045 21.3469 18.9992 21.2479 18.0855 20.8694C17.1719 20.491 16.391 19.8501 15.8416 19.0279C15.2922 18.2056 14.999 17.2389 14.999 16.25C14.9989 15.5934 15.1283 14.9432 15.3795 14.3366C15.6308 13.7299 15.9991 13.1787 16.4634 12.7144C16.9277 12.2502 17.4789 11.8819 18.0855 11.6306C18.6922 11.3793 19.3423 11.25 19.999 11.25Z" fill="#1B1D27"/>
</g>
</svg>
