<svg width="28" height="36" viewBox="0 0 28 36" fill="none" xmlns="http://www.w3.org/2000/svg">
<path d="M13.998 0.499573C10.3526 0.503898 6.85779 1.95394 4.28011 4.53163C1.70242 7.10932 0.252372 10.6042 0.248047 14.2496C0.248047 26.0147 12.748 34.9014 13.2803 35.2737C13.4908 35.4207 13.7413 35.4996 13.998 35.4996C14.2548 35.4996 14.5053 35.4207 14.7158 35.2737C15.248 34.9014 27.748 26.0147 27.748 14.2496C27.7437 10.6042 26.2937 7.10932 23.716 4.53163C21.1383 1.95394 17.6434 0.503898 13.998 0.499573ZM13.999 9.25003C14.9879 9.25003 15.9546 9.54327 16.7768 10.0927C17.5991 10.6421 18.2399 11.423 18.6184 12.3366C18.9968 13.2502 19.0958 14.2556 18.9029 15.2255C18.71 16.1954 18.2338 17.0863 17.5345 17.7856C16.8352 18.4848 15.9443 18.961 14.9744 19.154C14.0045 19.3469 12.9992 19.2479 12.0855 18.8694C11.1719 18.491 10.391 17.8501 9.84161 17.0279C9.29221 16.2056 8.99896 15.2389 8.99896 14.25C8.99894 13.5934 9.12826 12.9432 9.37953 12.3366C9.63079 11.7299 9.99909 11.1787 10.4634 10.7144C10.9277 10.2502 11.4789 9.88186 12.0855 9.63059C12.6922 9.37932 13.3423 9.25001 13.999 9.25003Z" fill="#1B1C1E"/>
</svg>
