<svg xmlns="http://www.w3.org/2000/svg" width="24" height="24" viewBox="0 0 24 24" fill="none">
  <path opacity="0.4" d="M17.98 10.7899V14.7899C17.98 15.0499 17.97 15.2999 17.94 15.5399C17.71 18.2399 16.12 19.5799 13.19 19.5799H12.79C12.54 19.5799 12.3 19.6999 12.15 19.8999L10.95 21.4999C10.42 22.2099 9.56 22.2099 9.03 21.4999L7.82999 19.8999C7.69999 19.7299 7.41 19.5799 7.19 19.5799H6.79001C3.60001 19.5799 2 18.7899 2 14.7899V10.7899C2 7.85989 3.35001 6.26989 6.04001 6.03989C6.28001 6.00989 6.53001 5.99988 6.79001 5.99988H13.19C16.38 5.99988 17.98 7.59989 17.98 10.7899Z" fill="#FFCA0C"/>
  <path d="M9.98999 13.9999C9.42999 13.9999 8.98999 13.5499 8.98999 12.9999C8.98999 12.4499 9.43999 11.9999 9.98999 11.9999C10.54 11.9999 10.99 12.4499 10.99 12.9999C10.99 13.5499 10.55 13.9999 9.98999 13.9999Z" fill="#FFCA0C"/>
  <path d="M13.49 13.9999C12.93 13.9999 12.49 13.5499 12.49 12.9999C12.49 12.4499 12.94 11.9999 13.49 11.9999C14.04 11.9999 14.49 12.4499 14.49 12.9999C14.49 13.5499 14.04 13.9999 13.49 13.9999Z" fill="#FFCA0C"/>
  <path d="M6.5 13.9999C5.94 13.9999 5.5 13.5499 5.5 12.9999C5.5 12.4499 5.95 11.9999 6.5 11.9999C7.05 11.9999 7.5 12.4499 7.5 12.9999C7.5 13.5499 7.05 13.9999 6.5 13.9999Z" fill="#FFCA0C"/>
  <path d="M21.98 6.78995V10.7899C21.98 13.7299 20.63 15.3099 17.94 15.5399C17.97 15.2999 17.98 15.0499 17.98 14.7899V10.7899C17.98 7.59995 16.38 5.99994 13.19 5.99994H6.79004C6.53004 5.99994 6.28004 6.00995 6.04004 6.03995C6.27004 3.34995 7.86004 1.99994 10.79 1.99994H17.19C20.38 1.99994 21.98 3.59995 21.98 6.78995Z" fill="#FFCA0C"/>
</svg>