<svg width="48" height="48" viewBox="0 0 48 48" fill="none" xmlns="http://www.w3.org/2000/svg">
<path d="M43.0654 29.5193C44.2317 27.6865 44.2317 25.4372 42.9821 23.0213C42.7322 22.5215 42.399 22.1883 41.8991 21.855C38.2336 19.6057 34.2349 17.2731 30.3195 15.607C30.0695 15.5237 29.9029 15.4404 29.653 15.4404C28.7366 15.3571 27.7369 15.3571 26.8206 15.2738C20.0727 15.0239 13.6581 14.7739 6.49366 15.3571C5.57729 15.4404 4.82753 16.1902 4.74422 17.0232C4.16107 25.9371 3.41131 27.1034 4.74422 29.436C5.16075 30.0191 5.82721 30.3523 6.49366 30.3523H8.1598C8.0765 30.1024 8.0765 29.7692 8.0765 29.5193C8.0765 26.5202 10.5757 24.021 13.5748 24.021C16.5738 24.021 19.073 26.5202 19.073 29.5193C19.073 29.7692 19.073 30.1024 18.9897 30.3523H31.9856C31.9023 30.1024 31.9023 29.7692 31.9023 29.5193C31.9023 26.5202 34.4015 24.021 37.4005 24.021C40.3996 24.021 42.8988 26.5202 42.8988 29.5193C42.8988 29.6026 42.8988 29.6859 42.8988 29.6859C42.9821 29.6859 43.0654 29.6026 43.0654 29.5193ZM15.1576 20.772H13.908L13.0749 19.0226C12.9083 18.6061 12.4085 18.4394 11.9919 18.6061C11.5754 18.7727 11.4088 19.2725 11.5754 19.689L12.0752 20.772H10.659C10.2425 20.772 9.3261 19.6057 9.3261 18.6061V16.7733C11.0755 16.69 13.0749 16.6067 15.1576 16.6067V20.772ZM22.0721 20.772H20.9891L20.156 19.0226C19.9894 18.6061 19.4896 18.4394 19.073 18.6061C18.6565 18.7727 18.4899 19.2725 18.6565 19.689L19.1563 20.772H16.8237V16.69C18.9064 16.69 21.0724 16.7733 23.405 16.8566L23.4883 19.689C23.405 20.1056 22.4886 20.772 22.0721 20.772ZM35.9843 20.9386C35.6511 21.3552 35.068 21.6051 34.5681 21.4385C33.8183 21.2719 33.2352 21.1886 32.6521 21.1053L31.3191 18.9393C31.0692 18.5227 30.5694 18.4394 30.1528 18.6061C29.7363 18.856 29.653 19.3558 29.8196 19.7724L30.4028 20.772C29.5697 20.6054 28.9865 20.5221 28.6533 20.4388C28.4034 19.689 27.9869 18.2728 27.5703 17.0232C28.2368 17.0232 29.1532 17.1065 29.653 17.1065C31.6524 17.9396 33.9017 19.1059 36.3176 20.4388L35.9843 20.9386Z" fill="black"/>
<path d="M13.5753 33.3514C15.6917 33.3514 17.4074 31.6357 17.4074 29.5193C17.4074 27.4029 15.6917 25.6872 13.5753 25.6872C11.4589 25.6872 9.74316 27.4029 9.74316 29.5193C9.74316 31.6357 11.4589 33.3514 13.5753 33.3514Z" fill="black"/>
<path d="M37.4005 33.3514C39.5169 33.3514 41.2326 31.6357 41.2326 29.5193C41.2326 27.4029 39.5169 25.6872 37.4005 25.6872C35.2841 25.6872 33.5684 27.4029 33.5684 29.5193C33.5684 31.6357 35.2841 33.3514 37.4005 33.3514Z" fill="black"/>
</svg>
