<svg xmlns="http://www.w3.org/2000/svg" width="20" height="20" viewBox="0 0 20 20" fill="none">
  <path d="M3.33366 4.99935H1.66699V16.666C1.66699 17.5827 2.41699 18.3327 3.33366 18.3327H15.0003V16.666H3.33366V4.99935ZM16.667 1.66602H6.66699C5.75033 1.66602 5.00033 2.41602 5.00033 3.33268V13.3327C5.00033 14.2493 5.75033 14.9993 6.66699 14.9993H16.667C17.5837 14.9993 18.3337 14.2493 18.3337 13.3327V3.33268C18.3337 2.41602 17.5837 1.66602 16.667 1.66602ZM16.667 13.3327H6.66699V3.33268H16.667V13.3327ZM8.33366 7.49935H15.0003V9.16602H8.33366V7.49935ZM8.33366 9.99935H11.667V11.666H8.33366V9.99935ZM8.33366 4.99935H15.0003V6.66602H8.33366V4.99935Z" fill="#686A73"/>
</svg>