<svg xmlns="http://www.w3.org/2000/svg" width="20" height="20" viewBox="0 0 20 20" fill="currentColor">
  <path d="M10.0003 1.66669C5.40033 1.66669 1.66699 5.40002 1.66699 10C1.66699 14.6 5.40033 18.3334 10.0003 18.3334C14.6003 18.3334 18.3337 14.6 18.3337 10C18.3337 5.40002 14.6003 1.66669 10.0003 1.66669ZM10.0003 16.6667C6.32533 16.6667 3.33366 13.675 3.33366 10C3.33366 6.32502 6.32533 3.33335 10.0003 3.33335C13.6753 3.33335 16.667 6.32502 16.667 10C16.667 13.675 13.6753 16.6667 10.0003 16.6667ZM10.742 9.25002C9.25866 8.75835 8.54199 8.45002 8.54199 7.66669C8.54199 6.81669 9.46699 6.50835 10.0503 6.50835C11.142 6.50835 11.542 7.33335 11.6337 7.62502L12.9503 7.06669C12.8253 6.70002 12.267 5.47502 10.7337 5.20835V4.16669H9.27533V5.21669C7.10866 5.68335 7.09199 7.59169 7.09199 7.68335C7.09199 9.57502 8.96699 10.1084 9.88366 10.4417C11.2003 10.9084 11.7837 11.3334 11.7837 12.1334C11.7837 13.075 10.9087 13.475 10.1337 13.475C8.61699 13.475 8.18366 11.9167 8.13366 11.7334L6.75033 12.2917C7.27533 14.1167 8.65033 14.6084 9.26699 14.7584V15.8334H10.7253V14.8C11.1587 14.725 13.242 14.3084 13.242 12.1167C13.2503 10.9584 12.742 9.94169 10.742 9.25002Z"/>
</svg>