<svg width="48" height="48" viewBox="0 0 48 48" fill="none" xmlns="http://www.w3.org/2000/svg">
<path d="M8.14844 28.8145C8.14844 31.0645 9.98174 32.8978 12.315 32.8978C14.6483 32.8978 16.4816 31.0645 16.4816 28.8145C16.4816 26.5646 14.6483 24.6479 12.315 24.6479C9.98174 24.6479 8.14844 26.5646 8.14844 28.8145Z" fill="black"/>
<path d="M36.481 32.8978C38.731 32.8978 40.6476 31.0645 40.6476 28.8145C40.6476 26.5646 38.8143 24.6479 36.481 24.6479C34.1478 24.6479 32.3145 26.4812 32.3145 28.8145C32.3978 31.0645 34.2311 32.8978 36.481 32.8978Z" fill="black"/>
<path d="M43.3147 22.4813C43.0647 21.9813 42.7314 21.4813 42.2314 21.2313C39.8981 19.9813 36.8981 19.8147 34.3148 19.7313C34.2315 19.7313 34.0648 19.7313 33.9815 19.648L28.5649 16.7314C28.4816 16.648 28.1483 16.5647 27.815 16.4814C24.4817 15.8981 21.0651 15.8147 17.6485 16.3981C17.1485 16.4814 16.7318 16.7314 16.3985 17.0647L13.3152 20.3146L5.98202 20.148C5.23203 20.148 4.56537 20.648 4.39871 21.398C4.06538 23.6479 3.89872 25.3146 4.06538 26.6479C4.06538 26.7312 4.14871 26.8979 4.14871 26.9812C4.64871 27.8978 5.48202 28.6478 6.48201 29.1478C6.48201 29.0645 6.48201 28.8978 6.48201 28.8145C6.48201 25.6479 9.06529 22.9813 12.3152 22.9813C15.5652 22.9813 18.1485 25.5646 18.1485 28.8145C18.1485 29.0645 18.1485 29.3978 18.0651 29.6478H30.8982C30.8149 29.3978 30.8149 29.0645 30.8149 28.8145C30.8149 25.6479 33.3982 22.9813 36.6481 22.9813C39.8981 22.9813 42.4814 25.5646 42.4814 28.8145C42.4814 28.9812 42.4814 29.0645 42.4814 29.2312C42.7314 29.0645 42.9813 28.8978 43.2313 28.6478C44.4813 27.1479 43.9813 24.1479 43.3147 22.4813ZM31.3982 21.648C31.1482 21.8146 30.8982 21.9813 30.6482 21.9813L25.6483 21.7313L25.2317 20.148C25.1483 19.7313 24.6483 19.4813 24.2317 19.5647C23.815 19.648 23.565 20.148 23.6484 20.5646L23.8984 21.648L21.5651 21.4813L19.1484 20.148L20.7317 17.8147C23.9817 17.5647 27.2316 18.0647 27.815 18.2314L32.3982 20.7313L31.3982 21.648Z" fill="black"/>
</svg>
