<svg width="20" height="22" viewBox="0 0 20 22" fill="none" xmlns="http://www.w3.org/2000/svg">
<path fill-rule="evenodd" clip-rule="evenodd" d="M4.96095 1.06545C5.72785 0.276812 6.85122 0 8.15704 0H11.843C13.1488 0 14.2721 0.276812 15.0391 1.06545C15.7931 1.84087 16 2.90726 16 4.00763V6.03817C16 6.56937 15.5533 7 15.0023 7H4.99769C4.44668 7 4 6.56937 4 6.03817V4.00763C4 2.90726 4.20688 1.84087 4.96095 1.06545ZM6.41665 2.38112C6.18342 2.62096 5.99538 3.07748 5.99538 4.00763V5.07634H14.0046V4.00763C14.0046 3.07748 13.8166 2.62096 13.5833 2.38112C13.363 2.15449 12.9066 1.92366 11.843 1.92366H8.15704C7.09335 1.92366 6.63704 2.15449 6.41665 2.38112Z" fill="black"/>
<path fill-rule="evenodd" clip-rule="evenodd" d="M5 13.9586C5 13.4292 5.42866 13 5.95745 13H14.0426C14.5713 13 15 13.4292 15 13.9586V18.0059C15 19.1655 14.7098 20.2113 13.9616 20.9604C13.2134 21.7095 12.1689 22 11.0106 22H8.98936C7.83114 22 6.78661 21.7095 6.03841 20.9604C5.2902 20.2113 5 19.1655 5 18.0059V13.9586ZM6.91489 14.9172V18.0059C6.91489 18.87 7.13001 19.342 7.39244 19.6047C7.65488 19.8675 8.12631 20.0828 8.98936 20.0828H11.0106C11.8737 20.0828 12.3451 19.8675 12.6076 19.6047C12.87 19.342 13.0851 18.87 13.0851 18.0059V14.9172H6.91489Z" fill="black"/>
<path fill-rule="evenodd" clip-rule="evenodd" d="M2.37978 7.38658C2.11874 7.64838 1.90476 8.11865 1.90476 8.97959V14.0204C1.90476 14.8813 2.11874 15.3516 2.37978 15.6134C2.64083 15.8752 3.10977 16.0898 3.96825 16.0898H5.02646V14.0204C5.02646 13.4929 5.45285 13.0653 5.97884 13.0653H14.0212C14.5471 13.0653 14.9735 13.4929 14.9735 14.0204V16.0898H16.0317C16.8902 16.0898 17.3592 15.8752 17.6202 15.6134C17.8813 15.3516 18.0952 14.8813 18.0952 14.0204V8.97959C18.0952 8.11865 17.8813 7.64838 17.6202 7.38658C17.3592 7.12479 16.8902 6.9102 16.0317 6.9102H3.96825C3.10977 6.9102 2.64083 7.12479 2.37978 7.38658ZM1.03291 6.03587C1.77716 5.28949 2.81616 5 3.96825 5H16.0317C17.1838 5 18.2228 5.28949 18.9671 6.03587C19.7113 6.78224 20 7.8242 20 8.97959V14.0204C20 15.1758 19.7113 16.2178 18.9671 16.9641C18.2228 17.7105 17.1838 18 16.0317 18H14.0212C13.4952 18 13.0688 17.5724 13.0688 17.0449V14.9755H6.93122V17.0449C6.93122 17.5724 6.50482 18 5.97884 18H3.96825C2.81616 18 1.77716 17.7105 1.03291 16.9641C0.288669 16.2178 0 15.1758 0 14.0204V8.97959C0 7.8242 0.288669 6.78224 1.03291 6.03587Z" fill="black"/>
<path fill-rule="evenodd" clip-rule="evenodd" d="M4 14C4 13.4477 4.4279 13 4.95575 13H15.0442C15.5721 13 16 13.4477 16 14C16 14.5523 15.5721 15 15.0442 15H4.95575C4.4279 15 4 14.5523 4 14Z" fill="black"/>
<path fill-rule="evenodd" clip-rule="evenodd" d="M4 10C4 9.44772 4.43327 9 4.96774 9H8.03226C8.56673 9 9 9.44772 9 10C9 10.5523 8.56673 11 8.03226 11H4.96774C4.43327 11 4 10.5523 4 10Z" fill="black"/>
</svg>
