<svg xmlns="http://www.w3.org/2000/svg" width="64" height="64" fill="none" viewBox="0 0 64 64">
  <mask id="a" width="64" height="64" x="0" y="0" maskUnits="userSpaceOnUse" style="mask-type:alpha">
    <path fill="#D9D9D9" d="M0 0h64v64H0z"/>
  </mask>
  <g mask="url(#a)">
    <path fill="#549684" d="M29.2 41.467 44.267 26.4l-3.8-3.8L29.2 33.867l-5.6-5.6-3.8 3.8 9.4 9.4Zm2.8 17.2c-6.177-1.556-11.277-5.1-15.3-10.634-4.022-5.533-6.033-11.677-6.033-18.433V13.333l21.333-8 21.334 8V29.6c0 6.756-2.012 12.9-6.034 18.433-4.022 5.534-9.122 9.078-15.3 10.634Zm0-5.6c4.623-1.467 8.445-4.4 11.467-8.8C46.489 39.867 48 34.977 48 29.6V17l-16-6-16 6v12.6c0 5.378 1.511 10.267 4.534 14.667 3.022 4.4 6.844 7.333 11.466 8.8Z"/>
  </g>
</svg>
