<svg width="20" height="20" viewBox="0 0 20 20" fill="none" xmlns="http://www.w3.org/2000/svg">
<path fill-rule="evenodd" clip-rule="evenodd" d="M11.9245 0.190482C9.98736 -0.193278 7.97986 0.00560483 6.15592 0.761973C4.33198 1.51834 2.77352 2.7982 1.67774 4.43966C0.581982 6.0811 -0.00189429 8.01039 4.61707e-06 9.98344C0.00254872 12.627 1.05542 15.1614 2.92728 17.0298C4.79914 18.8982 7.33686 19.9477 9.98279 19.9477C11.9576 19.9477 13.8881 19.3625 15.5299 18.2661C15.738 18.1272 15.9402 17.9809 16.1363 17.8275L17.9246 19.6153C18.0339 19.7336 18.1659 19.8287 18.3129 19.8947C18.4598 19.9608 18.6186 19.9965 18.7797 19.9998C18.9408 20.003 19.1009 19.9737 19.2504 19.9136C19.3999 19.8534 19.5357 19.7638 19.6496 19.6499C19.7636 19.5361 19.8533 19.4004 19.9135 19.2511C19.9737 19.1017 20.003 18.9418 19.9998 18.7808C19.9965 18.6198 19.9608 18.4612 19.8947 18.3144C19.8285 18.1676 19.7334 18.0356 19.615 17.9264L17.8287 16.1406C18.3906 15.4271 18.8553 14.6364 19.2066 13.7885C19.9619 11.9654 20.159 9.9595 19.773 8.02452C19.387 6.08952 18.4353 4.31237 17.0382 2.91789C15.6412 1.52341 13.8616 0.574243 11.9245 0.190482ZM7.17642 3.21847C8.51398 2.6638 9.98615 2.51796 11.4067 2.79938C12.8272 3.0808 14.1323 3.77685 15.1568 4.79948C16.1813 5.8221 16.8792 7.12534 17.1623 8.54434C17.4453 9.96336 17.3008 11.4344 16.7469 12.7712C16.193 14.1081 15.2547 15.2509 14.0507 16.0549C12.8467 16.8589 11.431 17.288 9.98279 17.288C8.04243 17.288 6.18143 16.5184 4.80874 15.1482C3.43605 13.7781 2.66394 11.9195 2.66207 9.98088C2.66068 8.53399 3.08886 7.11918 3.89242 5.91544C4.69597 4.71172 5.83885 3.77315 7.17642 3.21847Z" fill="white"/>
</svg>
