<svg xmlns="http://www.w3.org/2000/svg" width="36" height="36" fill="none" viewBox="0 0 36 36">
  <path fill="#fff" fill-rule="evenodd" d="M19.571 11.124a6.194 6.194 0 0 0-3.663.372 6.377 6.377 0 0 0-2.843 2.397A6.618 6.618 0 0 0 12 17.506a6.584 6.584 0 0 0 1.859 4.591 6.26 6.26 0 0 0 4.48 1.901 6.227 6.227 0 0 0 3.906-1.381l1.136 1.165a.761.761 0 0 0 .543.25.744.744 0 0 0 .552-.227.78.78 0 0 0 .222-.567.796.796 0 0 0-.244-.557l-1.134-1.163c.357-.465.652-.98.875-1.533a6.654 6.654 0 0 0 .36-3.756 6.552 6.552 0 0 0-1.737-3.328 6.29 6.29 0 0 0-3.247-1.777Zm-3.015 1.973a4.54 4.54 0 0 1 2.686-.273c.902.184 1.73.637 2.381 1.303a4.805 4.805 0 0 1 1.274 2.44 4.88 4.88 0 0 1-.264 2.755 4.743 4.743 0 0 1-1.712 2.14 4.567 4.567 0 0 1-2.583.803 4.59 4.59 0 0 1-3.285-1.394 4.828 4.828 0 0 1-1.363-3.367c0-.943.271-1.865.781-2.65a4.675 4.675 0 0 1 2.085-1.757Z" clip-rule="evenodd"/>
</svg>
