<svg width="52" height="20" viewBox="0 0 52 20" fill="none" xmlns="http://www.w3.org/2000/svg">
<path d="M44.7421 10.8828C42.4641 10.8828 40.6201 12.7045 40.5117 15.0617C40.5117 17.4189 42.4645 19.3479 44.7421 19.3479C47.1284 19.3479 48.9725 17.4189 48.9725 15.1691C49.0812 12.7045 47.1284 10.8828 44.7421 10.8828Z" fill="black"/>
<path d="M11.4884 10.8828C9.10092 10.8828 7.25586 12.8366 7.25586 15.1154C7.25586 17.5029 9.20966 19.3479 11.4884 19.3479C13.8759 19.3479 15.721 17.3941 15.721 15.1154C15.7214 12.7279 13.8764 10.8828 11.4884 10.8828Z" fill="black"/>
<path d="M51.7083 10.1466C51.274 8.73743 49.6456 7.32815 48.0172 7.11125C44.9774 6.56938 42.0461 5.91886 38.8977 5.48519C36.6178 5.16016 25.0012 -5.03036 9.58591 3.20857C8.1747 3.96728 7.19768 4.50958 5.89479 4.61774L4.04918 4.72593C2.63797 4.83413 1.55218 5.70148 1.11788 6.89383C-0.836509 11.3383 -0.510528 15.4578 4.3747 15.7833H5.1345C4.59185 12.9649 7.30553 9.06217 11.5398 9.06217C15.4481 9.06217 18.3794 12.5312 17.9451 16.0001L38.3556 16.3256C37.7041 12.9648 40.5266 8.95399 44.6521 8.95399C48.5604 8.95399 51.4917 12.6398 51.0574 15.5669C52.0348 14.5909 52.252 11.7724 51.7093 10.1464L51.7083 10.1466ZM21.2021 6.78586C16.5336 6.56902 11.8655 6.24398 9.15092 5.81031C12.0822 4.40114 14.5792 2.44957 21.3098 2.3413V6.78581L21.2021 6.78586ZM23.3731 6.78586V2.4495C25.1103 2.5577 27.0642 2.77453 29.3441 3.20821C30.9726 3.75009 33.0353 4.72611 35.3152 6.24356C32.9269 6.67769 28.2585 6.89452 23.3729 6.78588L23.3731 6.78586Z" fill="black"/>
</svg>
