<svg width="48" height="48" viewBox="0 0 48 48" fill="none" xmlns="http://www.w3.org/2000/svg">
<path d="M35.9202 25.0326C38.1704 25.0326 40.0039 26.8661 40.0039 29.1163C40.0039 31.3666 38.1704 33.2001 35.9202 33.2001C33.6699 33.2001 31.8364 31.3666 31.8364 29.1163C31.8364 26.8661 33.6699 25.0326 35.9202 25.0326Z" fill="black"/>
<path d="M11.3342 25.0326C13.5844 25.0326 15.418 26.8661 15.418 29.1163C15.418 31.3666 13.5844 33.2001 11.3342 33.2001C9.08398 33.2001 7.25046 31.3666 7.25046 29.1163C7.25046 26.8661 9.08398 25.0326 11.3342 25.0326Z" fill="black"/>
<path d="M4.33337 22.449C4.50005 21.7823 4.83342 21.1989 5.33347 20.6988L9.1672 16.6984C9.66725 16.1984 10.2506 15.865 10.9174 15.7816C16.668 14.6982 22.0852 14.7815 27.1691 15.7816C27.5858 15.865 28.0858 16.0317 28.4192 16.2817C34.2531 19.8654 34.5865 20.1988 36.0033 20.4488C43.5041 21.5322 44.8375 25.4493 43.5874 28.6996C43.3374 29.4497 42.5873 29.9498 41.7539 29.9498H41.5872C41.6705 29.6997 41.6705 29.3664 41.6705 29.1163C41.6705 25.9494 39.0869 23.3658 35.92 23.3658C32.753 23.3658 30.1694 25.9494 30.1694 29.1163C30.1694 29.3664 30.1694 29.6997 30.2527 29.9498H17.0013C17.0847 29.6997 17.0847 29.3664 17.0847 29.1163C17.0847 25.9494 14.5011 23.3658 11.3341 23.3658C8.1671 23.3658 5.5835 25.9494 5.5835 29.1163V29.1997C4.75008 28.533 4.16668 27.6162 4.08334 26.5327C3.91666 25.0326 4 23.7825 4.33337 22.449ZM22.0019 21.0322L30.086 21.3656C30.2527 21.3656 30.4194 21.3656 30.5861 21.2822L32.2529 20.6988L27.5024 17.7818C27.2524 17.6152 27.0024 17.5318 26.7523 17.5318C25.1688 17.1985 23.5854 17.0318 22.0019 16.8651V21.0322ZM13.251 20.5321C13.251 20.6155 13.3343 20.7822 13.501 20.7822L20.4184 21.0322V16.7817C18.0848 16.6984 15.7512 16.8651 13.3343 17.1151V20.5321H13.251Z" fill="black"/>
</svg>
