<svg width="23" height="21" viewBox="0 0 23 21" fill="none" xmlns="http://www.w3.org/2000/svg">
<path d="M21.9998 4.7498C21.9998 6.8123 20.3123 8.4998 18.2498 8.4998C16.9783 8.4998 15.8475 7.85527 15.1678 6.8709L8.40605 9.92949C8.46465 10.1932 8.4998 10.4686 8.4998 10.7498C8.4998 11.0252 8.46465 11.2947 8.40605 11.5584L15.2088 14.576C15.8885 13.6268 17.0018 12.9998 18.2498 12.9998C20.3123 12.9998 21.9998 14.6873 21.9998 16.7498C21.9998 18.8123 20.3123 20.4998 18.2498 20.4998C16.1873 20.4998 14.4998 18.8123 14.4998 16.7498C14.4998 16.4744 14.535 16.2049 14.5936 15.9471L7.79082 12.9236C7.11114 13.8729 5.99785 14.4998 4.74981 14.4998C2.68731 14.4998 0.999805 12.8123 0.999805 10.7498C0.999805 8.68731 2.68731 6.99981 4.74981 6.99981C5.99199 6.99981 7.09356 7.6209 7.7791 8.5584L14.576 5.4998C14.5291 5.25371 14.4998 5.00762 14.4998 4.74981C14.4998 2.68731 16.1873 0.999805 18.2498 0.999805C20.3123 0.999805 21.9998 2.6873 21.9998 4.7498ZM15.9998 4.7498C15.9998 6.00371 16.9959 6.9998 18.2498 6.9998C19.5037 6.9998 20.4998 6.00371 20.4998 4.7498C20.4998 3.4959 19.5037 2.4998 18.2498 2.4998C16.9959 2.4998 15.9998 3.4959 15.9998 4.7498ZM2.4998 10.7498C2.4998 12.0037 3.4959 12.9998 4.7498 12.9998C6.00371 12.9998 6.9998 12.0037 6.9998 10.7498C6.9998 9.4959 6.00371 8.4998 4.7498 8.4998C3.4959 8.4998 2.4998 9.4959 2.4998 10.7498ZM15.9998 16.7498C15.9998 18.0037 16.9959 18.9998 18.2498 18.9998C19.5037 18.9998 20.4998 18.0037 20.4998 16.7498C20.4998 15.4959 19.5037 14.4998 18.2498 14.4998C16.9959 14.4998 15.9998 15.4959 15.9998 16.7498Z" fill="black"/>
<path fill-rule="evenodd" clip-rule="evenodd" d="M18.2498 1.1998C16.2978 1.1998 14.6998 2.79776 14.6998 4.74981C14.6998 4.9922 14.7273 5.22545 14.7724 5.46238C14.7898 5.55329 14.7424 5.64421 14.6581 5.68219L7.86117 8.74078C7.775 8.77956 7.67344 8.75273 7.61766 8.67645C6.96694 7.78658 5.92353 7.1998 4.74981 7.1998C2.79776 7.1998 1.1998 8.79776 1.1998 10.7498C1.1998 12.7018 2.79776 14.2998 4.74981 14.2998C5.92952 14.2998 6.9838 13.7072 7.62821 12.8072C7.68346 12.73 7.78533 12.7023 7.87205 12.7409L14.6748 15.7643C14.7621 15.8031 14.8098 15.8982 14.7886 15.9914C14.7328 16.2368 14.6998 16.4914 14.6998 16.7498C14.6998 18.7018 16.2978 20.2998 18.2498 20.2998C20.2019 20.2998 21.7998 18.7018 21.7998 16.7498C21.7998 14.7978 20.2019 13.1998 18.2498 13.1998C17.0701 13.1998 16.0158 13.7925 15.3714 14.6924C15.3162 14.7695 15.2144 14.7973 15.1277 14.7588L8.32496 11.7412C8.23791 11.7026 8.19016 11.608 8.21082 11.515C8.26683 11.2629 8.2998 11.0081 8.2998 10.7498C8.2998 10.4852 8.26671 10.2244 8.21082 9.97288C8.19028 9.88045 8.23736 9.78629 8.32363 9.74727L15.0853 6.68867C15.1734 6.64883 15.2774 6.6777 15.3324 6.75726C15.9767 7.69046 17.0475 8.2998 18.2498 8.2998C20.2018 8.2998 21.7998 6.70185 21.7998 4.74981C21.7998 2.79776 20.2019 1.1998 18.2498 1.1998ZM22.1998 4.74981C22.1998 6.92276 20.4228 8.6998 18.2498 8.6998C16.9687 8.6998 15.8244 8.07916 15.1013 7.12047L8.63375 10.046C8.67547 10.2732 8.6998 10.509 8.6998 10.7498C8.6998 10.9856 8.67553 11.216 8.63407 11.4408L15.1441 14.3285C15.8656 13.4036 16.9919 12.7998 18.2498 12.7998C20.4228 12.7998 22.1998 14.5768 22.1998 16.7498C22.1998 18.9228 20.4228 20.6998 18.2498 20.6998C16.0768 20.6998 14.2998 18.9228 14.2998 16.7498C14.2998 16.5152 14.3238 16.2856 14.3651 16.0644L7.8554 13.1712C7.13396 14.096 6.00767 14.6998 4.74981 14.6998C2.57685 14.6998 0.799805 12.9228 0.799805 10.7498C0.799805 8.57685 2.57685 6.7998 4.74981 6.7998C6.00215 6.7998 7.11669 7.39821 7.84182 8.31086L14.3522 5.3812C14.3195 5.17623 14.2998 4.96756 14.2998 4.74981C14.2998 2.57685 16.0768 0.799805 18.2498 0.799805C20.4228 0.799805 22.1998 2.57685 22.1998 4.74981ZM15.7998 4.7498C15.7998 3.38544 16.8854 2.2998 18.2498 2.2998C19.6142 2.2998 20.6998 3.38544 20.6998 4.7498C20.6998 6.11417 19.6142 7.1998 18.2498 7.1998C16.8854 7.1998 15.7998 6.11417 15.7998 4.7498ZM18.2498 2.6998C17.1064 2.6998 16.1998 3.60636 16.1998 4.7498C16.1998 5.89325 17.1064 6.7998 18.2498 6.7998C19.3933 6.7998 20.2998 5.89325 20.2998 4.7498C20.2998 3.60636 19.3933 2.6998 18.2498 2.6998ZM2.2998 10.7498C2.2998 9.38544 3.38544 8.2998 4.7498 8.2998C6.11417 8.2998 7.1998 9.38544 7.1998 10.7498C7.1998 12.1142 6.11417 13.1998 4.7498 13.1998C3.38544 13.1998 2.2998 12.1142 2.2998 10.7498ZM4.7498 8.6998C3.60636 8.6998 2.6998 9.60636 2.6998 10.7498C2.6998 11.8933 3.60636 12.7998 4.7498 12.7998C5.89325 12.7998 6.7998 11.8933 6.7998 10.7498C6.7998 9.60636 5.89325 8.6998 4.7498 8.6998ZM15.7998 16.7498C15.7998 15.3854 16.8854 14.2998 18.2498 14.2998C19.6142 14.2998 20.6998 15.3854 20.6998 16.7498C20.6998 18.1142 19.6142 19.1998 18.2498 19.1998C16.8854 19.1998 15.7998 18.1142 15.7998 16.7498ZM18.2498 14.6998C17.1064 14.6998 16.1998 15.6064 16.1998 16.7498C16.1998 17.8933 17.1064 18.7998 18.2498 18.7998C19.3933 18.7998 20.2998 17.8933 20.2998 16.7498C20.2998 15.6064 19.3933 14.6998 18.2498 14.6998Z" fill="black"/>
</svg>
