<svg xmlns="http://www.w3.org/2000/svg" width="64" height="64" fill="none" viewBox="0 0 64 64">
  <path fill="#549684" d="M40 4H24v5.333h16V4ZM29.333 38.667h5.334v-16h-5.334v16ZM50.747 21.04l3.786-3.787c-1.146-1.36-2.4-2.64-3.76-3.76l-3.786 3.787C42.853 13.973 37.653 12 32 12 18.747 12 8 22.747 8 36s10.72 24 24 24 24-10.747 24-24c0-5.653-1.973-10.853-5.253-14.96ZM32 54.667c-10.32 0-18.667-8.347-18.667-18.667 0-10.32 8.347-18.667 18.667-18.667 10.32 0 18.667 8.347 18.667 18.667 0 10.32-8.347 18.667-18.667 18.667Z"/>
</svg>
