<svg width="16" height="16" viewBox="0 0 16 16" fill="none" xmlns="http://www.w3.org/2000/svg">
<path d="M14.06 4.65339C13.4934 4.02673 12.5467 3.71339 11.1734 3.71339H11.0134V3.68673C11.0134 2.56672 11.0134 1.18005 8.50669 1.18005H7.49335C4.98668 1.18005 4.98668 2.57339 4.98668 3.68673V3.72006H4.82668C3.44668 3.72006 2.50667 4.03339 1.94001 4.66006C1.28 5.3934 1.3 6.38006 1.36667 7.0534L1.37334 7.10007L1.44 7.80007C1.44667 7.80674 1.46 7.82007 1.47334 7.82674C1.69334 7.9734 1.92001 8.12007 2.16001 8.2534C2.25334 8.3134 2.35334 8.36674 2.45334 8.42007C3.59334 9.04674 4.84668 9.46674 6.12001 9.67341C6.18001 10.3001 6.45335 11.0334 7.91335 11.0334C9.37335 11.0334 9.66002 10.3067 9.70669 9.66007C11.0667 9.44007 12.38 8.96674 13.5667 8.2734C13.6067 8.2534 13.6334 8.2334 13.6667 8.2134C13.9734 8.04007 14.26 7.8534 14.54 7.64674C14.5534 7.64007 14.5667 7.62673 14.5734 7.6134L14.6 7.3734L14.6334 7.06007C14.64 7.02007 14.64 6.98673 14.6467 6.94007C14.7 6.26673 14.6867 5.34673 14.06 4.65339ZM8.72669 9.22007C8.72669 9.92674 8.72669 10.0334 7.90668 10.0334C7.08668 10.0334 7.08668 9.90674 7.08668 9.22674V8.38674H8.72669V9.22007ZM5.94001 3.71339V3.68673C5.94001 2.55339 5.94001 2.13339 7.49335 2.13339H8.50669C10.06 2.13339 10.06 2.56006 10.06 3.68673V3.72006H5.94001V3.71339Z" fill="#7E8594"/>
<path opacity="0.4" d="M13.6667 8.19998C13.6334 8.21998 13.6 8.23998 13.5667 8.25998C12.38 8.95331 11.0667 9.41998 9.70669 9.64665C9.65335 10.2866 9.37335 11.02 7.91335 11.02C6.45335 11.02 6.17335 10.2933 6.12001 9.65998C4.84668 9.45998 3.59334 9.03998 2.45334 8.40664C2.35334 8.35331 2.25334 8.29998 2.16 8.23998C1.92 8.10664 1.69334 7.95998 1.47334 7.81331C1.46 7.80664 1.44667 7.79331 1.44 7.78664L1.84667 12.1267C1.98667 13.4533 2.53334 14.82 5.46668 14.82H10.5467C13.48 14.82 14.0267 13.4533 14.1667 12.12L14.5867 7.59998C14.58 7.61331 14.5667 7.62664 14.5534 7.63331C14.2667 7.83998 13.9734 8.03331 13.6667 8.19998Z" fill="#7E8594"/>
</svg>
