<svg width="64" height="64" viewBox="0 0 64 64" fill="none" xmlns="http://www.w3.org/2000/svg">
<path d="M37.6535 27.92L32.0002 33.5733L26.3202 27.92L22.5602 31.68L28.2402 37.3333L22.5868 42.9867L26.3468 46.7467L32.0002 41.0933L37.6535 46.7467L41.4135 42.9867L35.7602 37.3333L41.4135 31.68L37.6535 27.92ZM41.3335 10.6667L38.6668 8H25.3335L22.6668 10.6667H13.3335V16H50.6668V10.6667H41.3335ZM16.0002 50.6667C16.0002 53.6 18.4002 56 21.3335 56H42.6668C45.6002 56 48.0002 53.6 48.0002 50.6667V18.6667H16.0002V50.6667ZM21.3335 24H42.6668V50.6667H21.3335V24Z" fill="#E43B00"/>
</svg>
