<svg xmlns="http://www.w3.org/2000/svg" width="7" height="12" viewBox="0 0 7 12" fill="none">
<path fill-rule="evenodd" clip-rule="evenodd" d="M3.86676 12V10.6784C4.58148 10.6258 5.19937 10.446 5.72042 10.1392C6.57347 9.63945 7 8.83726 7 7.7326C7 6.89534 6.68875 6.24658 6.06625 5.7863C5.68814 5.51014 4.95037 5.19233 3.85293 4.83288V2.32767C4.31404 2.35836 4.6322 2.52932 4.80742 2.84055C4.90887 3.02027 4.97803 3.30521 5.01492 3.69534H6.834C6.80633 2.64329 6.40286 1.88274 5.62359 1.4137C5.19476 1.12 4.60454 0.944658 3.85293 0.887671V0H3.19585V0.874521C2.72551 0.909589 2.36816 0.964384 2.12377 1.0389C1.7226 1.15726 1.35833 1.37205 1.03094 1.68329C0.777327 1.92438 0.580203 2.21151 0.439565 2.54466C0.298926 2.87781 0.228607 3.24822 0.228607 3.65589C0.228607 4.27397 0.409592 4.80219 0.771563 5.24055C1.13353 5.6789 1.75488 6.02082 2.6356 6.2663L3.19585 6.42411V9.23178C2.67018 9.14411 2.31743 8.95342 2.1376 8.65973C2.02232 8.47123 1.93241 8.10082 1.86785 7.54849H0.000357757C-0.0134755 8.76274 0.373856 9.62192 1.16235 10.126C1.60963 10.4066 2.28746 10.5951 3.19585 10.6915V12H3.86676ZM3.19585 4.64877C2.85924 4.54795 2.61024 4.43836 2.44885 4.32C2.15835 4.10521 2.0131 3.8137 2.0131 3.44548C2.0131 3.10795 2.10993 2.84164 2.3036 2.64658C2.49727 2.45151 2.79468 2.34959 3.19585 2.34082V4.64877ZM3.85293 6.6411V9.21206C4.2172 9.16822 4.48234 9.08932 4.64834 8.97534C4.93884 8.7737 5.08409 8.42521 5.08409 7.92986C5.08409 7.55288 4.94806 7.25479 4.67601 7.03562C4.51462 6.90849 4.24026 6.77699 3.85293 6.6411Z" fill="#181A26"/>
</svg>