<svg width="86" height="33" viewBox="0 0 86 33" fill="none" xmlns="http://www.w3.org/2000/svg">
<path d="M73.9964 18.6608C70.2289 18.6608 67.1792 21.6735 67 25.572C67 29.4705 70.2296 32.6608 73.9964 32.6608C77.943 32.6608 80.9928 29.4705 80.9928 25.7495C81.1726 21.6735 77.943 18.6608 73.9964 18.6608Z" fill="black"/>
<path d="M19 18.6608C15.0514 18.6608 12 21.892 12 25.6608C12 29.6093 15.2313 32.6608 19 32.6608C22.9486 32.6608 26 29.4295 26 25.6608C26.0007 21.7122 22.9493 18.6608 19 18.6608V18.6608Z" fill="black"/>
<path d="M85.5175 17.4417C84.7992 15.1111 82.1061 12.7804 79.413 12.4217C74.3857 11.5255 69.5378 10.4497 64.3309 9.73243C60.5603 9.19488 41.3481 -7.65868 15.8536 5.96724C13.5197 7.22203 11.9039 8.11891 9.74908 8.29779L6.69672 8.47673C4.3628 8.65567 2.56706 10.0901 1.8488 12.0621C-1.38346 19.4126 -0.844335 26.2256 7.23508 26.7639H8.49168C7.59421 22.1027 12.0822 15.6482 19.0851 15.6482C25.5489 15.6482 30.3968 21.3854 29.6785 27.1225L63.4342 27.6608C62.3568 22.1026 67.0247 15.4693 73.8477 15.4693C80.3115 15.4693 85.1594 21.565 84.4411 26.406C86.0576 24.7918 86.4168 20.1306 85.5193 17.4413L85.5175 17.4417ZM35.065 11.8835C27.344 11.5249 19.6237 10.9874 15.1342 10.2701C19.9821 7.93958 24.1118 4.71198 35.2432 4.53291V11.8835L35.065 11.8835ZM38.6555 11.8835V4.71187C41.5286 4.8908 44.7601 5.24942 48.5307 5.96666C51.2238 6.86284 54.6352 8.47703 58.4059 10.9867C54.4561 11.7046 46.7351 12.0632 38.6552 11.8836L38.6555 11.8835Z" fill="black"/>
<path d="M50.9419 15.2577C50.9032 14.9575 50.8452 14.6364 50.7679 14.2948C50.6905 13.9532 50.5758 13.6633 50.4233 13.4251C50.2711 13.187 50.1004 13.0678 49.9119 13.0678C49.8901 12.967 49.785 12.9785 49.5962 13.1028C49.4076 13.2271 49.3192 13.2685 49.3314 13.2271C49.3435 13.1857 49.2781 13.2375 49.1355 13.3823C48.9929 13.5273 48.9216 13.5996 48.9216 13.5996L48.7076 13.8287C48.5192 14.0202 48.2447 14.1664 47.8843 14.2674C47.5239 14.3686 47.1287 14.4304 46.6983 14.4539C46.2679 14.4773 45.8362 14.4928 45.4033 14.5004C44.9704 14.508 44.5363 14.5315 44.101 14.5702C43.6657 14.6091 43.3151 14.6749 43.0493 14.7682C42.5221 14.9544 42.0287 15.2016 41.5693 15.5097C41.1099 15.8177 40.6976 16.1775 40.3324 16.589C39.9672 17.0006 39.6794 17.4781 39.4691 18.0216C39.2587 18.5649 39.1535 19.1344 39.1535 19.7297C39.1535 20.0041 39.1753 20.2732 39.2187 20.5372C39.2284 20.589 39.2671 20.703 39.3348 20.8789C39.4026 21.0549 39.4364 21.1532 39.4364 21.174C39.4364 21.2723 39.3613 21.3966 39.2114 21.5467C39.0615 21.6968 38.8972 21.8418 38.7182 21.9815C38.5392 22.1212 38.3749 22.2907 38.225 22.49C38.075 22.6894 38 22.8797 38 23.0607C38 23.097 38.0035 23.1318 38.0108 23.1656C38.0181 23.1993 38.0254 23.2237 38.0327 23.2392C38.0398 23.2548 38.0533 23.2806 38.0725 23.3168C38.0919 23.3529 38.1063 23.3816 38.116 23.4022C38.1983 23.5521 38.2635 23.6609 38.3119 23.7283C38.3603 23.7956 38.4352 23.8577 38.5367 23.9146C38.6382 23.9715 38.7616 24 38.9066 24C39.047 24 39.192 23.9171 39.342 23.7516C39.4919 23.586 39.6188 23.4047 39.7229 23.2081C39.8268 23.0115 39.9356 22.8303 40.0493 22.6646C40.1629 22.499 40.2584 22.4162 40.3358 22.4162C40.4471 22.4162 40.6791 22.5119 41.0323 22.7035C41.3852 22.8952 41.5982 23.0038 41.6706 23.0296C42.3381 23.2729 43.0296 23.3945 43.7454 23.3945C44.8287 23.3945 45.8878 23.1149 46.9228 22.5557C47.982 21.9915 48.8465 21.2981 49.5162 20.4749C50.1862 19.6517 50.6323 18.6607 50.8547 17.501C50.9516 16.9942 51 16.4948 51 16.0031C51 15.8063 50.9807 15.5578 50.9419 15.2577ZM47.1479 17.8898C47.0559 17.9881 46.947 18.0374 46.8212 18.0374C45.9411 18.0374 45.1831 18.172 44.547 18.4411C43.911 18.7102 43.2617 19.1658 42.5992 19.8076C42.5025 19.9059 42.3404 20.0768 42.1132 20.3201C41.8859 20.5634 41.7069 20.7471 41.5764 20.8712C41.4748 20.9695 41.366 21.0188 41.2499 21.0188C41.1241 21.0188 41.0153 20.9695 40.9234 20.8712C40.8315 20.7731 40.7855 20.6564 40.7855 20.5218C40.7855 20.3975 40.8315 20.2812 40.9234 20.1724C41.5134 19.4735 42.0829 18.9054 42.6318 18.4682C43.1807 18.0308 43.8083 17.684 44.5144 17.4276C45.2203 17.1714 45.9894 17.0432 46.8212 17.0432C46.947 17.0432 47.0558 17.0925 47.1478 17.1908C47.2397 17.2893 47.2855 17.4057 47.2855 17.5402C47.2855 17.675 47.2397 17.7915 47.1479 17.8898Z" fill="white"/>
</svg>
