  <svg
      width="100%"
      height="100%"
      viewBox="0 0 24 24"
      fill="none"
      xmlns="http://www.w3.org/2000/svg"
    >
      <path
        opacity="0.4"
        d="M13 3.25012H7C3.58 3.25012 2.25 4.58012 2.25 8.00012V16.0001C2.25 18.3001 3.5 20.7501 7 20.7501H13C16.42 20.7501 17.75 19.4201 17.75 16.0001V8.00012C17.75 4.58012 16.42 3.25012 13 3.25012Z"
      />
      <path
        d="M11.5 11.3801C12.5383 11.3801 13.38 10.5384 13.38 9.50012C13.38 8.46182 12.5383 7.62012 11.5 7.62012C10.4617 7.62012 9.62 8.46182 9.62 9.50012C9.62 10.5384 10.4617 11.3801 11.5 11.3801Z"
      />
      <path
        d="M21.65 6.17005C21.24 5.96005 20.38 5.72005 19.21 6.54005L17.73 7.58005C17.74 7.72005 17.75 7.85005 17.75 8.00005V16C17.75 16.15 17.73 16.28 17.73 16.42L19.21 17.46C19.83 17.9 20.37 18.04 20.8 18.04C21.17 18.04 21.46 17.94 21.65 17.84C22.06 17.63 22.75 17.06 22.75 15.63V8.38005C22.75 6.95005 22.06 6.38005 21.65 6.17005Z"
      />
    </svg>