<svg width="20" height="20" viewBox="0 0 20 20" fill="none" xmlns="http://www.w3.org/2000/svg">
<path d="M7.35814 9.05845C5.3748 8.99178 3.7998 7.36678 3.7998 5.36678C3.7998 3.32511 5.4498 1.66678 7.4998 1.66678C9.54147 1.66678 11.1998 3.32511 11.1998 5.36678C11.1915 7.36678 9.61647 8.99178 7.63314 9.05845C7.5498 9.05011 7.4498 9.05011 7.35814 9.05845Z" stroke="#979797" stroke-width="1.5" stroke-linecap="round" stroke-linejoin="round"/>
<path d="M13.6752 3.33347C15.2919 3.33347 16.5919 4.6418 16.5919 6.25013C16.5919 7.82513 15.3419 9.10847 13.7836 9.1668C13.7169 9.15847 13.6419 9.15847 13.5669 9.1668" stroke="#979797" stroke-width="1.5" stroke-linecap="round" stroke-linejoin="round"/>
<path d="M3.4666 17.0251C5.75827 18.5585 9.5166 18.5585 11.8083 17.0251C13.8249 15.6751 13.8249 13.4751 11.8083 12.1335C9.52494 10.6085 5.7666 10.6085 3.4666 12.1335C1.44993 13.4835 1.44993 15.6835 3.4666 17.0251Z" stroke="#979797" stroke-width="1.5" stroke-linecap="round" stroke-linejoin="round"/>
<path d="M15.2832 16.6668C15.8832 16.5418 16.4499 16.3001 16.9165 15.9418C18.2165 14.9668 18.2165 13.3584 16.9165 12.3834C16.4582 12.0334 15.8999 11.8001 15.3082 11.6668" stroke="#979797" stroke-width="1.5" stroke-linecap="round" stroke-linejoin="round"/>
</svg>
