<svg width="20" height="20" viewBox="0 0 20 20" fill="none" xmlns="http://www.w3.org/2000/svg">
<path d="M19.56 8.73996L18.21 7.15996C17.96 6.85996 17.75 6.29996 17.75 5.89996V4.19996C17.75 3.13996 16.88 2.26996 15.82 2.26996H14.12C13.72 2.26996 13.15 2.05996 12.85 1.80996L11.27 0.459956C10.58 -0.130044 9.45 -0.130044 8.76 0.459956L7.16 1.80996C6.86 2.05996 6.3 2.26996 5.9 2.26996H4.17C3.11 2.26996 2.24 3.13996 2.24 4.19996V5.89996C2.24 6.28996 2.04 6.84996 1.79 7.14996L0.440005 8.73996C-0.139995 9.43996 -0.139995 10.56 0.440005 11.24L1.79 12.83C2.04 13.12 2.24 13.69 2.24 14.08V15.79C2.24 16.85 3.11 17.72 4.17 17.72H5.91C6.3 17.72 6.87 17.93 7.17 18.18L8.75 19.53C9.44 20.12 10.57 20.12 11.26 19.53L12.84 18.18C13.14 17.93 13.7 17.72 14.1 17.72H15.8C16.86 17.72 17.73 16.85 17.73 15.79V14.09C17.73 13.69 17.94 13.13 18.19 12.83L19.54 11.25C20.15 10.57 20.15 9.43996 19.56 8.73996ZM9.25 6.12996C9.25 5.71996 9.59 5.37996 10 5.37996C10.41 5.37996 10.75 5.71996 10.75 6.12996V10.96C10.75 11.37 10.41 11.71 10 11.71C9.59 11.71 9.25 11.37 9.25 10.96V6.12996ZM10 14.87C9.45 14.87 9 14.42 9 13.87C9 13.32 9.44 12.87 10 12.87C10.55 12.87 11 13.32 11 13.87C11 14.42 10.56 14.87 10 14.87Z" fill="#F7C061"/>
</svg>
