<svg xmlns="http://www.w3.org/2000/svg" width="185" height="164" viewBox="0 0 185 164" fill="none">
  <path d="M183.029 81.5203C182.481 79.5277 182.252 77.3834 172.206 74.1485C171.118 65.6164 169.34 57.6378 166.42 54.3455C165.087 52.8449 159.023 44.6203 120.134 41.8856C117.055 32.6155 114.978 32.3818 113.048 31.8488C111.118 31.3158 104.032 30.9345 97.2361 30.8033V19.1265C100.291 17.3553 102.347 14.0425 102.347 10.25C102.347 4.5879 97.7718 0 92.125 0C86.4782 0 81.9028 4.5879 81.9028 10.25C81.9028 14.0425 83.9595 17.3512 87.0139 19.1265V30.8033C80.2182 30.9345 73.1321 31.3158 71.2021 31.8488C69.2722 32.3818 67.195 32.6155 64.1161 41.8856C25.2267 44.6203 19.1629 52.8408 17.8299 54.3455C14.9104 57.6378 13.1318 65.6123 12.0441 74.1485C1.99363 77.3875 1.76876 79.5318 1.22084 81.5203C0.550266 83.9557 0.125 94.5747 0.125 102.5C0.125 110.425 0.550266 121.044 1.22084 123.48C1.76876 125.472 1.99772 127.617 12.0441 130.852C13.1318 139.384 14.9104 147.362 17.8299 150.655C19.4328 152.463 27.8804 164 92.125 164C156.37 164 164.817 152.463 166.42 150.655C169.34 147.362 171.118 139.384 172.206 130.852C182.256 127.612 182.481 125.468 183.029 123.48C183.7 121.044 184.125 110.425 184.125 102.5C184.125 94.5747 183.7 83.9557 183.029 81.5203ZM147.848 134.603C146.646 135.808 140.308 143.5 92.125 143.5C43.9415 143.5 37.6037 135.808 36.4016 134.603C30.7549 128.941 30.7917 102.5 30.7917 102.5C30.7917 102.5 30.7549 76.0591 36.4016 70.397C37.6037 69.1916 43.9415 61.5 92.125 61.5C140.308 61.5 146.646 69.1916 147.848 70.397C153.495 76.0591 153.458 102.5 153.458 102.5C153.458 102.5 153.495 128.941 147.848 134.603Z" fill="url(#paint0_linear_377_8861)"/>
  <defs>
    <linearGradient id="paint0_linear_377_8861" x1="144.398" y1="23.0625" x2="15.0882" y2="159.689" gradientUnits="userSpaceOnUse">
      <stop stop-color="#8A28EC"/>
      <stop offset="1" stop-color="#5C13F7"/>
    </linearGradient>
  </defs>
</svg>