<svg width="185" height="164" viewBox="0 0 185 164" fill="none" xmlns="http://www.w3.org/2000/svg">
<path d="M183.029 81.5203C182.481 79.5277 182.252 77.3834 172.206 74.1485C171.118 65.6164 169.34 57.6378 166.42 54.3455C165.087 52.8449 159.023 44.6203 120.134 41.8856C117.055 32.6155 114.978 32.3818 113.048 31.8488C111.118 31.3158 104.032 30.9345 97.2361 30.8033V19.1265C100.291 17.3553 102.347 14.0425 102.347 10.25C102.347 4.5879 97.7718 0 92.125 0C86.4782 0 81.9028 4.5879 81.9028 10.25C81.9028 14.0425 83.9595 17.3512 87.0139 19.1265V30.8033C80.2182 30.9345 73.1321 31.3158 71.2021 31.8488C69.2722 32.3818 67.195 32.6155 64.1161 41.8856C25.2267 44.6203 19.1629 52.8408 17.8299 54.3455C14.9104 57.6378 13.1318 65.6123 12.0441 74.1485C1.99363 77.3875 1.76876 79.5318 1.22084 81.5203C0.550266 83.9557 0.125 94.5747 0.125 102.5C0.125 110.425 0.550266 121.044 1.22084 123.48C1.76876 125.472 1.99772 127.617 12.0441 130.852C13.1318 139.384 14.9104 147.362 17.8299 150.655C19.4328 152.463 27.8804 164 92.125 164C156.37 164 164.817 152.463 166.42 150.655C169.34 147.362 171.118 139.384 172.206 130.852C182.256 127.612 182.481 125.468 183.029 123.48C183.7 121.044 184.125 110.425 184.125 102.5C184.125 94.5747 183.7 83.9557 183.029 81.5203ZM147.848 134.603C146.646 135.808 140.308 143.5 92.125 143.5C43.9415 143.5 37.6037 135.808 36.4016 134.603C30.7549 128.941 30.7917 102.5 30.7917 102.5C30.7917 102.5 30.7549 76.0591 36.4016 70.397C37.6037 69.1916 43.9415 61.5 92.125 61.5C140.308 61.5 146.646 69.1916 147.848 70.397C153.495 76.0591 153.458 102.5 153.458 102.5C153.458 102.5 153.495 128.941 147.848 134.603Z" fill="url(#paint0_linear_377_8860)"/>
<path d="M61.4586 123C67.1041 123 71.6808 113.822 71.6808 102.5C71.6808 91.1782 67.1041 82 61.4586 82C55.813 82 51.2363 91.1782 51.2363 102.5C51.2363 113.822 55.813 123 61.4586 123Z" fill="url(#paint1_linear_377_8860)"/>
<path d="M130.459 99.9372H121.295L127.776 93.4387C128.774 92.4383 128.774 90.8147 127.776 89.8143C126.779 88.8139 125.159 88.8139 124.162 89.8143L113.318 100.687C113.318 100.687 113.318 100.687 113.314 100.692C113.257 100.749 113.199 100.81 113.146 100.876C113.122 100.905 113.101 100.938 113.077 100.966C113.048 101.003 113.024 101.036 112.995 101.077C112.97 101.114 112.95 101.151 112.925 101.188C112.905 101.22 112.885 101.253 112.864 101.29C112.844 101.327 112.827 101.368 112.807 101.405C112.79 101.442 112.77 101.479 112.754 101.516C112.737 101.553 112.725 101.594 112.713 101.63C112.696 101.671 112.684 101.712 112.672 101.753C112.66 101.79 112.652 101.831 112.643 101.868C112.631 101.909 112.623 101.95 112.611 101.995C112.602 102.04 112.598 102.086 112.59 102.131C112.586 102.168 112.578 102.204 112.574 102.241C112.566 102.327 112.562 102.409 112.562 102.496C112.562 102.582 112.566 102.664 112.574 102.75C112.578 102.787 112.586 102.824 112.59 102.865C112.598 102.91 112.602 102.955 112.611 103C112.619 103.041 112.631 103.086 112.643 103.127C112.652 103.164 112.66 103.205 112.672 103.242C112.684 103.283 112.701 103.324 112.713 103.365C112.725 103.402 112.737 103.443 112.754 103.48C112.77 103.516 112.786 103.553 112.807 103.59C112.823 103.627 112.844 103.668 112.864 103.705C112.885 103.742 112.905 103.775 112.925 103.808C112.946 103.844 112.97 103.881 112.995 103.918C113.02 103.955 113.048 103.992 113.077 104.029C113.101 104.058 113.122 104.09 113.146 104.119C113.199 104.185 113.257 104.246 113.314 104.304C113.314 104.304 113.314 104.304 113.318 104.308C113.318 104.308 113.318 104.308 113.322 104.312C113.379 104.369 113.445 104.427 113.506 104.48C113.535 104.505 113.567 104.525 113.596 104.55C113.633 104.578 113.67 104.607 113.706 104.632C113.743 104.656 113.78 104.677 113.817 104.697C113.85 104.718 113.886 104.738 113.919 104.759C113.956 104.779 113.997 104.796 114.034 104.816C114.07 104.833 114.107 104.853 114.144 104.869C114.181 104.886 114.222 104.898 114.258 104.91C114.299 104.927 114.34 104.939 114.381 104.951C114.418 104.964 114.459 104.972 114.496 104.98C114.536 104.992 114.581 105.005 114.622 105.013C114.667 105.021 114.712 105.025 114.757 105.033C114.794 105.038 114.831 105.046 114.872 105.05C114.954 105.058 115.035 105.062 115.121 105.062H115.125H130.459C131.869 105.062 133.014 103.914 133.014 102.5C133.014 101.085 131.869 99.9372 130.459 99.9372Z" fill="url(#paint2_linear_377_8860)"/>
<path d="M102.347 123C102.347 128.662 97.7718 133.25 92.1251 133.25C86.4783 133.25 81.9028 128.662 81.9028 123H102.347Z" fill="url(#paint3_linear_377_8860)"/>
<defs>
<linearGradient id="paint0_linear_377_8860" x1="144.398" y1="23.0625" x2="15.0882" y2="159.689" gradientUnits="userSpaceOnUse">
<stop stop-color="#8A28EC"/>
<stop offset="1" stop-color="#5C13F7"/>
</linearGradient>
<linearGradient id="paint1_linear_377_8860" x1="67.2666" y1="87.7656" x2="42.353" y2="99.4649" gradientUnits="userSpaceOnUse">
<stop stop-color="#8A28EC"/>
<stop offset="1" stop-color="#5C13F7"/>
</linearGradient>
<linearGradient id="paint2_linear_377_8860" x1="128.598" y1="91.3137" x2="116.18" y2="106.265" gradientUnits="userSpaceOnUse">
<stop stop-color="#8A28EC"/>
<stop offset="1" stop-color="#5C13F7"/>
</linearGradient>
<linearGradient id="paint3_linear_377_8860" x1="97.9331" y1="124.441" x2="91.2181" y2="137.055" gradientUnits="userSpaceOnUse">
<stop stop-color="#8A28EC"/>
<stop offset="1" stop-color="#5C13F7"/>
</linearGradient>
</defs>
</svg>
