<svg xmlns="http://www.w3.org/2000/svg" width="160" height="160" viewBox="0 0 160 160">
    <g fill="none" fill-rule="evenodd">
        <path fill="#F1F3F6" d="M80.92 0c43.464 0 78.698 35.399 78.698 79.065 0 43.665-35.234 79.063-78.698 79.063-43.464 0-78.698-35.398-78.698-79.063C2.222 35.399 37.456 0 80.92 0"/>
        <path fill="#333533" d="M120.5 116.25l.25.05-.25-.05M41.716 114.26l.273-.096-.273.095"/>
        <path fill="#FFF" d="M111.262 111.559c-3.56-1.65-10.986-3.973-11.76-9.521-.442-3.162-.469-6.252-.474-6.92-.022-3.022.064-6.116.34-9.353-4.024 7.533-10.674 12.347-20.339 12.144-6.766-.142-12.726-5.795-16.597-13.294.51 3.95.791 7.724.893 11.47.005.17-.036 1.38-.08 2.666-.189 5.538-6.273 9.517-11.672 11.395 13.836 24.218 44.757 24.745 59.689 1.413"/>
        <path fill="#FFF" d="M79.078 98.013c9.664.203 16.313-4.61 20.34-12.144 1.388-2.6 2.46-5.527 3.241-8.681-.039-1.655.509-4.284.738-7.827.177-2.702.544-5.168 1.114-7.094l.003-.041c-.075.1-.15.202-.235.306-.42-6.824-2.727-18.703-3.702-21.621-2.19-1.822-4.887-5.553-27.914-4.865-2.676-.774-10.01 4.817-10.1 4.96-.815 1.299-1.927 3.885-2.605 7.719-2.248 12.727-1.113 9.15-1.858 13.816-.125-.085-.434-.435-.846-.887.03.298.056.594.087.895.465 1.84.76 4.1.895 6.552.105 1.922.306 3.573.459 4.95.783 3.708 2.08 7.365 3.785 10.669 3.87 7.498 9.83 13.152 16.598 13.293"/>
        <path fill="#AFE6C2" d="M57.003 61.382c.089.094.17.184.25.272.413.452.722.801.847.887.744-4.666-.39-1.089 1.857-13.817.678-3.833 1.79-6.419 2.606-7.72 1.536-2.435 37.383 4.357 37.495 4.45.975 2.92 2.888 11.25 4.22 17.078.086-.105.161-.205.237-.306l.013-.018c.758-2.527 1.872-4.103 3.38-4.005.15.01.292.043.434.087.48-5.156.312-10.726.065-16.405.151-16.398-18.087-22.833-31.184-22.01-22.998 1.443-27.27 17.243-23.754 38.356 2.096 0 2.996 1.522 3.534 3.15z"/>
        <path fill="#AFE6C2" d="M101.789 43.062c-.018.025-.033.053-.057.076.032-.017.048-.044.057-.076"/>
        <path fill="#7F7F7E" d="M99.802 45.336l.256.118c-.014-.033-.107-.072-.257-.118h.001zM59.142 53.8c-.032.002-.063-.008-.093-.013.028.018.059.025.093.013z"/>
        <path fill="#FFF" d="M55.373 69.17c.393 1.666 1.167 1.904 1.11 3.275-.223 5.344-1.59.977-2.426-.635-1.035-1.995-1.303-6.002-1.1-7.52.203-1.52.81-4.5 2.008-4.438 1.15.059 2.872 4.13 1.257 6.021-.423.496-1.243 1.633-.85 3.297m2.146-6.62c-.104-.413-.217-.802-.34-1.169-.727-2.205-1.768-3.56-3.161-3.483-.352.02-.676.14-.974.338-1.966 1.304-2.717 6.18-1.144 10.785 1.81 5.305 2.912 10.101 5.573 9.954 1.849-.102 1.748-1.792 1.4-4.924-.153-1.377-.355-3.028-.46-4.95-.134-2.453-.43-4.712-.894-6.552"/>
        <path fill="#C9ECD2" d="M54.966 59.852c-1.199-.062-1.806 2.92-2.01 4.438-.202 1.518.066 5.526 1.1 7.52.836 1.611 2.203 5.98 2.427.635.057-1.372-.717-1.61-1.11-3.275-.394-1.665.425-2.8.849-3.296 1.615-1.892-.107-5.963-1.256-6.022"/>
        <path fill="#FFF" d="M107.726 72.114c-.853 1.603-2.264 5.957-2.433.61-.043-1.371.732-1.602 1.143-3.262.41-1.661-.397-2.806-.816-3.306-1.595-1.907.169-5.962 1.319-6.008 1.199-.05 1.775 2.938 1.963 4.458.188 1.52-.122 5.525-1.176 7.508m-3.198-9.907c-.006.02-.01.04-.017.06-.57 1.924-.937 4.392-1.114 7.094-.23 3.542-.778 6.173-.738 7.826.03 1.285.416 1.981 1.578 2.057 2.66.174 3.81-4.61 5.675-9.896 1.76-4.988.78-10.324-1.57-11.058-.141-.044-.285-.077-.435-.086-1.506-.1-2.622 1.477-3.379 4.003"/>
        <path fill="#C9ECD2" d="M106.938 60.147c-1.149.047-2.914 4.102-1.317 6.01.417.5 1.226 1.644.815 3.305-.41 1.66-1.187 1.89-1.144 3.262.17 5.347 1.581.993 2.433-.61 1.056-1.983 1.364-5.987 1.176-7.508-.187-1.52-.763-4.508-1.963-4.458zM101.202 105.676c-17.44 2.297-35.549-10.715-38.71-20.947l.01.018.002.005.003.006.003.004.002.005.002.005.003.006.003.005.003.005.002.004.003.005.003.005.003.005.002.006.003.005.002.005.003.004.002.006.003.005.002.005.003.005.003.006.003.004.003.005.098.187.003.004.002.006.003.005.002.005.012.02.003.006.003.005.002.005.003.005.005.01.003.006.005.01.003.005.003.005.002.005.003.005.002.005.003.004.003.005.003.005.002.006.003.005.003.005.003.005.002.005.003.005.003.005.002.005.003.006.003.003.003.006.001.005.083.15.003.005.008.016.002.004.015.029.003.004.003.005.003.005.003.005.002.005.02.034.002.006.003.004.003.005.001.006.003.004.003.005.003.005.003.005.003.005.002.005.003.005.003.005.003.005.003.005.003.005.001.004.003.006.074.133.003.005.003.004.002.006.003.004.003.005.002.006.003.005.003.003.012.023.003.005.003.004.003.006.002.004.003.005.002.006.003.005.004.004.002.005.004.006.002.005.006.01.003.004.002.006.003.004.003.006.003.005.002.005.003.005.003.005.003.005.003.005.006.01.002.005.097.17.003.005.003.005.003.005.002.004.01.016.002.006.003.004.003.005.006.01.003.004.034.06.002.004.006.01.003.005.003.005.002.005.003.005.003.005.003.006.003.003.003.006.003.005.003.005.002.004.004.006.002.005.077.13.003.006.003.005.003.005.02.035.003.005.003.004.003.006.003.004.003.005.002.005.002.005.003.004.003.004.003.005.003.005.003.005.003.004.002.006.003.003.003.006.003.004.002.005.003.005.002.004.003.005.003.005.003.004.003.005.103.173.003.005.002.005.003.004.017.028.003.005.003.005.003.004.002.004.003.006.003.004.003.005.003.005.003.005.003.005.003.004.002.005.004.005.002.005.003.004.003.006.003.004.003.004.003.006.003.004.003.005.002.006.004.004.002.004.003.005.002.005.004.005.003.005c.03.05.06.101.093.152l.003.004.003.005.003.005.002.004.013.021.002.004.004.005.003.004.003.006.002.004.007.01.003.004.029.047.003.005.005.01.003.004.003.004.003.005.003.005.003.004.003.006.003.003.003.006.002.004.088.14.003.004.003.006.002.004.003.005.028.044.003.004.002.004.003.005.003.004.003.005.003.004.002.005.006.008.003.004.002.005.003.004.003.005.003.004.006.008.003.005.002.004.003.005.003.004.003.005.002.003.003.005.002.004.003.005.003.004.003.005.003.004.003.004.002.004.08.126.004.005.003.004.003.005.002.004.003.004.031.048.003.004.003.004.002.005.003.003.002.005.003.004.003.005.003.004.003.004.003.005.002.004.003.004.003.003.002.005.004.004.002.005.003.004.003.005.003.003.002.004.003.005.003.004.003.005.003.003.001.005.003.004.003.004.003.004.003.005.002.004.003.004.077.118.003.004.003.005.003.004.003.004.002.004.034.05.003.005.003.003.003.005.003.003.002.005.003.004.003.005.002.004.004.004.002.005.004.003.002.005.003.004.003.005.003.004.002.004.003.004.003.004.002.004.004.005.003.004.002.005.003.004.003.004.003.004.003.004.002.005.003.004.003.005.003.004.08.118.002.005.003.004.003.004.003.005.003.003.003.005.022.032.003.005.004.005.003.004.002.004.004.005.003.004.003.005.002.004.003.005.003.003.003.005.006.009.003.004.003.005.003.004.004.005.003.003.002.006.003.003.003.006.003.004.004.004.003.004.003.005.003.004.003.005.003.004.003.004.002.005.003.004.085.123.003.004.003.004.003.005.003.004.003.005.018.025.003.005.003.005.003.004.004.004.003.004.003.005.003.004.003.005.003.004.003.005.003.003.003.005.003.004.004.005.003.005.003.005.003.004.004.004.002.004.003.005.003.004.003.005.003.004.003.005.003.003.004.005.003.004.108.154.003.005.004.005.022.031.003.005.003.003.003.005.004.004.003.004.002.004.003.005.003.004.01.013.003.004.003.004.003.005.021.03.003.005.003.003.003.005.003.004.004.004.003.004.003.004.003.005.003.004.003.005.003.003.003.005.003.004.077.106.003.004.003.004.003.005.003.004.003.005.026.034.003.005.004.004.002.004.004.004.003.004.002.005.003.004.04.053.003.005.003.003.003.005.004.004.005.008.003.004.003.004.003.004.003.005.003.003.003.005.003.004.004.003.003.005.078.107.004.004.003.004.003.004.035.047.003.004.003.003.003.005.002.003.003.003.003.005.003.004.003.003.003.005.003.004.003.003.003.003.003.005.002.003.004.005.005.007.003.005.003.003.003.003.003.005.003.004.002.003.003.004.003.005.003.003.003.004.003.004.003.003.003.004.003.005.006.007.002.005.003.003.074.096.003.004.003.004.003.003.002.004.043.057.004.003.003.004.003.005.003.003.003.004.003.004.003.003.002.004.003.004.003.004.003.004.004.004.003.004.003.003.003.004.003.004.003.003.002.005.003.004.003.004.003.004.003.003.003.004.003.003.003.005.003.003.003.004c.034.045.068.09.104.134l.003.003.003.005.022.027.003.005.004.003.003.005.003.003.003.005.003.004.006.008.004.004.041.052.004.004.003.005.003.003.004.005.003.004.002.004.004.004.003.003.003.005.003.004.004.004.003.004.004.004.003.004c.026.034.053.068.08.1l.003.004.004.005.003.004.035.042.002.004.003.003.003.004.003.004.003.004.004.004.003.004.002.003.003.004.004.003.002.004.003.004.004.004.003.004.002.003.004.005.006.006.003.004.004.004.002.004.003.004.003.003.003.005.003.003.003.004.003.003.004.004.003.004.003.004.002.004.003.003.003.004.004.004.006.007.003.004.003.004.07.085.003.004.003.004.004.003.041.05.08.096.003.003.003.005.002.003.004.004.003.004.003.004.004.003.002.003.003.004.077.09.003.004.003.004.003.004.003.004.035.04.004.004.003.004.003.004.004.003.002.004.003.004.003.004.003.003.003.003.003.004.04.047.003.004.004.003.003.003.003.004.004.004.002.003.003.004.003.004.003.004.003.003.003.003.003.003.004.004.073.087.004.002.003.004.003.004.003.004.053.06.003.004.003.003.003.003.003.004.003.004.002.002.004.004.002.003.006.006.003.004.003.004.003.003.003.003.003.003.003.003.003.003.005.007.004.004.002.003.003.003.003.004.003.003.003.003.003.004.004.003.002.004.003.003.003.003.003.003.003.004.003.003c.027.032.055.064.084.095l.003.003.003.004.054.06.002.003.004.003.002.003.004.004.003.003.003.004.003.003.003.003.003.002.002.004.003.003.003.004.003.004.004.003.002.003.003.003.006.006.003.003.003.004.003.004.002.003.003.003.003.003.003.003.003.004.003.003.003.003.004.003.002.004.003.003.002.003.003.003.004.004.003.003.003.004.077.084.003.003.003.003.055.06.002.003.004.003.002.002.004.004.003.003.003.003.002.003.003.004.003.003.003.003.003.003.003.003.003.003.002.003.003.003.003.004.003.003.003.003.003.003.003.004.003.003.002.002.003.004.003.002.003.003.003.003.003.004.003.003.003.003.003.004.003.003.003.002.002.004.003.003.003.003.074.079.003.003.002.002.003.003.003.003.065.069.003.003.003.003.003.003.003.003.003.004.003.002.003.003.003.003.003.004.002.002.003.003.003.003.003.003.003.003.003.004.003.002.002.003.003.003.003.004.003.003.003.003.003.003.003.003.002.004.004.003.002.002.004.003.002.003.004.004.002.003.003.002.003.003.002.003.004.004.002.003.004.003.067.07.003.002.003.003.003.003.003.003.003.004.046.047.003.003.003.004.004.003.002.003.004.003.003.003.003.004.003.003.013.013.004.003.006.007.003.003.01.01.002.003.013.013.003.003.006.007.004.003.003.003.004.003.003.003.003.004.002.003.004.003.003.004.006.006.004.003.074.074.002.004.003.003.004.003.047.047.004.003.002.003.003.003.003.004.087.086.003.003.003.003.003.003.003.002.004.003.003.003.003.003.003.004.004.003.002.003.003.003.003.003.053.051.003.004.003.003.003.003.072.069.003.002.003.003.003.003.003.003.002.003.003.002.003.003.003.003.003.003.003.003.003.003.003.002.003.002.003.003.003.003.002.003.003.003.003.003.003.003.003.002.002.003.004.003.003.003.003.003.003.002.002.003.003.003.003.003.003.003.003.003.003.002.003.003.086.082.003.003.003.003.06.056.003.003.003.003.003.003.003.003.004.003.002.002.003.003.003.003.003.003.024.023.003.003.003.003.004.003.003.002.027.026.003.003.003.003.004.003.003.003.003.002.002.003.003.003.003.002.004.003.003.003.003.003.003.003.002.003.052.048.004.003.003.003.003.002.003.003.065.06.003.002.003.003.003.003.003.002.003.003.003.003.003.003.004.003.003.002.002.003.004.002.002.003.003.003.003.003.003.003.004.002.003.003.003.003.003.003.003.002.003.003.003.003.003.003.003.003.003.003.003.002.003.003.004.003.002.003.003.003.004.002.002.002.003.003.003.003.004.003.003.002.081.075.004.003.058.051.003.002.003.003.003.003.004.003.003.002.007.006.003.003.074.066.003.003.003.002.01.008.003.003.003.002.003.003.003.003.004.003.003.003.052.047.003.001.004.003.003.003.003.003.075.063.002.002.003.003.003.003.003.002.003.003.003.002.003.003.006.004.002.003.003.002.003.003.006.005.003.002.002.003.01.007.002.003.003.002.012.01.002.002.003.003.01.008.002.002.003.003.002.002.004.002.002.003.004.002.002.003.004.002.002.002.004.003.002.002.004.003.052.044.002.003.004.002.002.002.003.003.09.074.002.002.002.002.003.002.002.002.003.002.003.003.003.002.003.002.016.014.003.002.005.005.003.002.002.002.02.016.003.003.01.008.004.002.003.002.002.003.003.003.002.002.003.002.003.002.002.002.003.003.006.005.003.002.003.002.002.002.047.039.003.001.003.003h.001l.001.002.062.049h.001l.003.003v.001h.003l.001.002.001.002h.002v.002h.002l.001.002.002.001.001.001.002.001.001.002h.001l.002.002h.002l.002.003.003.002.003.002.003.003.003.001.002.003.002.002.003.003.003.002.003.001.002.003.003.002.003.003.012.009.002.001.006.005.003.002.002.002.003.003.003.002.003.003.003.002.003.002.005.004.002.003.003.002.003.001.003.003.003.002.003.002.002.002.003.003.003.002.003.002.002.002.002.002.057.044.002.003.003.002.003.002h.001l.002.002.001.001h.002l.001.002.001.001.002.002v.001l.004.002.001.001.043.033.001.001.005.003.001.002.003.002h.001l.002.001.002.003h.002l.001.002h.002l.001.001.002.002.003.002h.001v.002l.001.001.003.002.002.002.003.002.003.002.003.002.003.003.003.002.003.002.003.002.003.002.002.002.003.002.003.003.003.002.002.002.004.002.002.003.003.002.003.002.006.005.002.002.006.004.003.002.003.002.003.002.003.003.003.002.003.003.003.002.002.002.003.002.002.002.004.003.002.002.004.001.002.003.003.002.003.002.003.002.003.003.003.002.002.002.055.042.003.002.003.001.077.06h.003l.003.003.003.002.003.002.003.003.002.002.003.002.003.002.003.003.004.002.003.003.003.001.033.025.003.002.023.018.004.002.003.003.003.002.003.003.003.002.003.002.003.002.003.003.003.002.003.002.003.002.003.002.003.002.003.002.045.034.003.002.003.002.003.002.002.001.001.002h.001l.001.001.003.002v.001l.043.03.002.001v.002l.004.001.001.001.002.002.002.001h.001l.001.002h.002l.001.001.001.002h.002v.001h.001l.002.001.001.002h.001l.002.001v.001h.003v.002l.004.003.003.002.006.004.003.003.003.002.002.002.004.002.012.008.003.003.003.002.024.018.003.002.018.013.003.002.003.002.003.002.003.003.003.002.003.002.004.002.003.003.002.001.003.002.004.003.002.002.004.002.003.001.003.003.06.044.078.053.003.002.003.003.004.002.003.002.003.002.003.003.003.001.103.072.003.002.003.002.003.002.003.002.003.002.003.002.003.002.004.003.002.002.03.02.003.002.003.002.004.003.003.002.003.002h.001l.006.004h.001l.037.027h.002l.007.004h.001l.001.002.002.001h.001l.002.002.001.001h.002l.001.002.002.001h.001l.002.002v.001h.002l.002.001v.001l.001.001.002.001.001.001h.002l.001.002.002.001h.001l.002.002.003.002.003.002.003.002.003.001.003.002.003.003.003.002.002.001.003.003.003.002.003.001.003.002.003.003.006.003.003.003.011.007.003.002.021.014.003.002.003.002.013.008.002.001.003.002.003.003.003.002.003.001.003.003.003.002.003.001.003.003.002.002.003.002.003.001.004.003.04.026.004.003.003.002.003.001.001.002h.002l.001.001v.001h.002l.003.002.035.023.003.001.005.004.001.001h.002l.001.001h.002l.001.002v.001h.003v.002h.002l.002.001.001.002h.002l.001.001h.002v.002l.003.001h.001v.002h.002l.001.002h.001l.002.001.001.001h.002l.001.002.002.001.002.001.004.003.002.002.004.001.003.003h.003l.11.073.004.001.003.002.003.003.003.002.003.001.003.003.003.001.026.016.003.003.003.001.003.002.003.002.002.001.002.001.062.039.001.001.002.001h.002l.002.001.001.001h.002l.001.002.002.001h.001l.002.002.001.001h.001l.002.002.001.001h.003l.001.002.002.001h.001l.002.002.001.001h.002l.002.002.003.002.003.001.002.003.002.001.003.002.003.002.003.001.003.002.003.001.003.002.002.002.003.001.003.003.082.05.003.002h.002l.003.003.003.001.003.002.002.002.003.001.003.002.03.02h.004l.003.002.003.002.001.001h.002l.002.002.085.051h.002l.002.002.001.001.002.002h.004l.001.002h.002l.002.001.002.002h.001l.002.001.002.002.003.002.003.001.002.002.003.002h.002l.003.003.003.002.003.001.003.002.002.001.005.004h.003l.005.004.003.001.002.001.003.002.005.004.003.001.005.003.003.002.002.001.003.002.024.014.002.001.006.003.002.002.003.001.003.002.002.002.003.001.003.002.002.001.003.002.003.001.002.002.032.018.003.002.002.001.003.002.002.001.001.001.072.041h.003l.001.002.004.003h.002l.002.001h.002l.002.002.002.001.002.002h.002l.001.002h.003l.002.002h.001l.002.002h.002l.001.002.003.001.002.002h.001l.003.001.001.002h.002l.002.002.003.001.003.002.003.001.003.002.001.001.003.002h.002l.003.002.002.002.003.001.003.002.003.001.002.001.003.002.002.001.003.002.002.001.002.002.006.003.002.001.003.002.002.001.003.002.003.001.015.009.002.001.002.002.003.001.003.001.005.003.003.001.002.002.003.001.003.002.001.001.003.002.002.001.003.002.003.001.002.002.003.001.003.002.002.001h.003l.002.002.018.01.003.002h.002l.003.002.002.002.002.001.002.001.073.04.002.001.004.002h.002l.004.003h.002l.002.002h.002l.002.002h.001l.001.002.003.001h.001l.002.001.002.002h.002l.002.001.002.002h.001l.003.001.001.002.003.001.002.002.004.001.002.002.002.001.003.001.003.002.002.001.003.002h.003l.003.002.002.001.003.002.002.001.003.002.003.001.002.002.003.001.002.002.003.001.003.002.003.001.002.002.003.001.003.002.003.001.003.002.001.001.003.002h.002l.003.002.003.001.003.002.002.001.003.002.003.001.003.001.002.002.003.001.002.001.003.002.003.001.002.002.003.001.002.002.043.022.003.002.002.001.003.002h.002l.001.001h.002l.001.002.002.001h.001l.002.002h.001l.059.03h.001l.002.002h.002l.001.002h.002l.001.001.002.001h.001l.002.002h.004v.001l.002.002h.002l.001.001h.002l.001.002h.002l.001.001.004.002.008.004.004.002.003.002.002.001.012.006.003.002.088.044.003.002.003.001.003.003.003.001.003.002.004.001.002.001.003.002.003.001.035.018.003.001.002.002h.001l.002.001h.001l.002.002h.001l.002.001.059.028.001.001.007.004.002.001.002.001h.001l.002.001.002.001.001.001h.002l.001.001.002.001h.002v.002h.003l.002.001.002.002.003.001h.003l.003.002.003.002.121.059.003.001.003.002.003.001.003.002.003.001.003.002.003.001.004.002.02.01.002.001.003.002h.003l.002.002.07.033h.004l.001.001.002.001h.002l.002.002h.002l.001.001h.002l.002.002h.002l.001.001.002.002h.002l.001.001h.002l.001.002h.002l.001.001h.002l.002.002.003.001.003.002h.003l.003.002.003.001.003.002.003.001.002.001.003.002.003.001.003.001.003.002h.003l.002.002h.003l.003.002.003.002.003.001.06.028.003.001.002.002.006.002.003.002.003.001.003.002.003.001h.003l.003.002.003.002.002.001.003.002.029.012.003.002h.003l.001.001.002.002h.002l.002.001.002.001h.002l.081.037h.002l.002.001h.002l.002.002h.002l.001.002h.002l.003.001.002.001h.001l.003.002h.001l.002.002h.002l.002.001.001.001.003.001.003.001.003.001.002.001.003.001.002.002h.003l.003.002.004.002.003.002h.003l.002.002h.003l.008.004.003.002h.002l.06.027h.002l.003.002.002.001.003.001.003.002h.002l.003.002h.002l.003.002h.003l.002.002.003.001.003.002.02.008.003.001h.002l.003.002.003.001h.001l.002.002.086.035.002.001.003.002.006.002.003.001.002.001.005.002.002.001h.002l.003.002.003.001h.002l.002.002h.002l.002.001.002.001.003.001.002.001h.002l.003.002h.002l.003.002h.002l.002.002h.002l.003.001.002.002h.002l.002.001.003.002h.002l.003.001.002.002h.002l.002.001.003.002h.002l.003.001.002.002h.002l.002.001.002.002h.003l.002.001.002.001h.003l.002.002h.002l.005.002.002.001.003.001.002.001.007.003.002.001h.002l.007.004.003.001.002.001h.003l.002.002.002.001h.002l.002.002.002.001h.003l.002.002h.003l.002.002.02.007.003.002h.002l.003.001.002.001.002.001.003.001.103.04.003.001.006.003h.002l.003.002.005.002h.002l.003.001.002.002h.002l.003.001.002.001h.002l.002.002h.003l.002.001.002.002h.002l.003.001h.002l.003.002.002.001h.002l.002.001.003.001h.002l.002.002.002.001.011.005h.003l.002.001h.003l.063.025.002.002h.003l.002.001.002.001h.002l.002.002.002.001h.002l.01.004h.002l.003.002h.002l.003.002h.002l.125.046h.003l.003.002h.002l.003.001.005.003h.003l.002.001h.003l.002.002.002.001h.002l.002.002h.002l.002.001h.003l.002.002h.002l.002.001h.003l.002.002h.002l.002.001h.002l.003.002.003.001h.003l.002.002h.003l.001.001.002.002.01.002.002.001.002.001.01.004.002.001.012.004h.002l.009.004.002.001h.002l.004.002.003.001h.004l.002.002h.003l.002.001h.002l.002.002.01.004h.003l.002.002h.002l.003.001h.002l.003.001.003.001.002.001.112.038.002.001.002.001.005.002h.003l.003.001h.002l.002.002.002.001h.003l.002.002h.006l.002.001h.002l.002.002h.002l.003.001h.003l.002.002.004.001h.002l.002.002h.002l.002.002h.005l.002.001.003.002h.002l.003.001.07.024h.003l.002.002h.002l.003.001h.002l.002.002h.003l.002.001h.002l.003.001.002.001.001.001h.003l.003.001.134.043h.002l.003.001h.002l.003.001h.002l.002.002h.003l.003.001h.002l.002.002h.002l.002.001h.003l.002.002h.002l.002.001h.003l.003.002h.001l.002.001h.002l.003.002h.004l.002.001h.003l.002.001.002.001.002.001h.002l.003.001.002.001h.002l.002.002h.003l.008.003.002.001.005.002h.002l.03.009h.001l.003.001h.002l.002.002h.004l.002.001h.002l.003.002h.002l.014.005h.004l.002.002.095.027h.003l.002.001.006.002h.003l.002.001.003.001h.001l.003.001h.002l.003.001h.001l.002.002h.003l.002.001h.002l.002.002h.003l.002.001h.005l.003.002h.002l.003.001h.002l.003.002h.002l.003.001h.003l.002.002h.002l.003.001h.003l.002.002h.003l.005.002h.002l.082.024h.003l.002.001h.003l.002.002h.003l.003.001.01.003h.002l.003.002h.004l.002.001.07.018h.003l.006.002h.003l.003.002.003.001h.006l.002.002h.002l.001.001h.004l.002.002h.004l.002.001h.004l.002.002h.003l.003.001h.002l.003.002h.003l.002.001h.003l.003.002.006.001h.003l.003.001.002.001.003.001.112.029h.003l.003.001.003.001.002.001h.003l.003.001.003.001h.003l.002.002h.003l.003.001h.003l.126.03.003.001.002.001H76.38l.002.002h.003l.003.001h.005l.002.002h.003l.003.001h.004l.002.002h.002l.005.001h.002l.002.002h.005l.002.001h.004l.002.002h.003l.003.001h.004l.002.002h.004l.002.001h.005l.002.002h.002l.063.014.002.001h.004l.002.002h.004l.002.001h.005c.051.013.103.023.154.034h.006l.003.001h.003l.003.002h.003l.002.001h.005l.002.002h.007l.002.001h.004l.002.002h.004l.003.001h.003l.003.002h.005l.002.001.067.013.002.001h.006l.002.002h.002l.005.001h.006l.003.002.182.034h.006l.004.001.004.001h.003l.003.002h.006l.001.001h.008l.002.002h.004l.002.001h.007l.002.002h.004l.002.001h.006l.045.008h.003l.002.002h.006l.003.001c.05.01.097.017.146.024h.003l.006.001.002.001h.006l.003.001h.008l.001.001h.002l.003.001H77.343l.002.002h.004l.002.001H77.36l.002.002h.007l.002.001h.004l.07.012h.005l.001.002h.007v.001H77.468c.102.016.202.03.304.041h.006l.003.001h.004c.067.01.133.016.2.024H77.997l.001.001H78.01l.001.002h.017l.001.001h.008l.037.004h.001l.002.001h.012c.102.011.205.02.31.027h.002c.104.008.208.014.313.02h.001c.105.005.21.008.314.01 9.665.203 16.314-4.611 20.34-12.145-.278 3.238-.363 6.332-.341 9.354.005.668.032 3.757.474 6.92.197 1.405.82 2.604 1.7 3.638z"/>
        <path fill="#AFE6C2" d="M143.764 125.573c-.588-.488-1.22-.96-1.898-1.416-10.477-7.045-30.94-12.178-38.595-16.73-8.245 25.282-42.998 19.903-47.25-.406-9.01 3.314-33.104 9.002-42.255 17.351-.043.039-.086.08-.129.122 14.12 21.18 38.154 35.123 65.432 35.123 26.81 0 50.485-13.473 64.695-34.044"/>
    </g>
</svg>
