<svg xmlns="http://www.w3.org/2000/svg" width="160" height="160" viewBox="0 0 160 160">
    <g fill="none" fill-rule="evenodd">
        <path fill="#F1F3F6" d="M79.806 0c44.076 0 79.807 35.73 79.807 79.807 0 44.076-35.73 79.806-79.807 79.806C35.73 159.613 0 123.883 0 79.807 0 35.73 35.73 0 79.806 0"/>
        <path fill="#AFE6C2" d="M60.19 157.18c-17.517-15.957-15.223-66.729-13.477-89.242 2.044-26.384 13.404-51.9 29.641-49.331 24.103-7.426 37.678 19.858 39.47 48.326 1.486 23.558 7.59 76.115-19.648 90.997-5.284 1.101-10.759 1.683-16.37 1.683-6.769 0-13.34-.846-19.617-2.432"/>
        <path fill="#FFF" d="M66.413 73.855s2.995 20.866-.49 26.723c-5.751 7.308-15.304 9.403-28.927 16.034 9.736 22.695 20.486 36.177 31.27 42.167 3.768.547 7.62.835 11.54.835 5.996 0 11.835-.666 17.452-1.92 11.075-6.96 21.096-21.135 28.74-40.227-21.11-11.975-22.19-11.196-27.462-16.835-2.903-3.105-3.98-11.016-4.416-27.967l-27.707 1.19z"/>
        <path fill="#C9ECD2" d="M66.757 76.591L94.4 80.49c.571 11.657 1.722 17.562 4.135 20.143.067.073.134.142.2.213-19.068 5.994-28.394-6.656-31.34-17.159-.177-2.77-.433-5.297-.64-7.095"/>
        <path fill="#FFF" d="M58.04 53.612c-2.09-.006-3.336 4.696-2.16 9.24 1.178 4.545 1.824 8.628 3.912 8.634 2.088.007 1.166-2.942 1.18-8.249.013-5.306-.845-9.619-2.933-9.625z"/>
        <path fill="#C9ECD2" d="M58.693 55.3c-.935-.11-1.544 2.365-1.77 3.63-.228 1.266-.2 4.645.52 6.37.582 1.395 1.453 5.13 1.87.652.106-1.15-.488-1.387-.722-2.804-.232-1.418.46-2.333.814-2.729 1.348-1.51.183-5.012-.712-5.119z"/>
        <path fill="#FFF" d="M105.218 53.669c2.087.006 3.31 4.715 2.11 9.253-1.2 4.537-1.868 8.616-3.954 8.61-2.089-.007-1.151-2.95-1.138-8.256.013-5.307.893-9.613 2.982-9.607z"/>
        <path fill="#C9ECD2" d="M104.555 55.352c.936-.105 1.531 2.374 1.752 3.64.22 1.268.174 4.647-.554 6.368-.588 1.39-1.48 5.122-1.871.641-.101-1.15.494-1.384.734-2.801.24-1.416-.448-2.334-.8-2.732-1.34-1.518-.157-5.015.74-5.116z"/>
        <path fill="#FFF" d="M81.517 26.162c23.816.005 21.755 14.166 21.702 33.55-.054 19.383-13.288 32.289-22.11 31.51-7.962-.28-21.252-11.531-21.199-30.915.04-14.818-1.685-26.901 8.607-31.81 3.171-1.512 7.39-2.335 13-2.335"/>
        <path fill="#AFE6C2" d="M59.768 56.054c2.933-11.629 2.79-15.303 13.54-23.935 12.767 13.798 27.551 9.095 30.126 25.98 3.146-2.32 2.147-8.116 1.99-10.772-.402-12.803-12.219-26.698-24.073-25.22-16.906 3.357-19.93 8.391-25.201 28.762l3.618 5.185zM140.431 131.704l-.391-2.09c-1.057-5.562-7.288-11.492-13.118-13.82-7.735-3.754-13.305-5.048-20.39-9.16-8.574 35.403-47.127 24.969-48.657.172-10.173 3.724-11.676 4.856-22.188 8.933.001.01-11.288 3.668-14.143 14.928l-.709 2.91c14.596 15.998 35.61 26.036 58.971 26.036 24.26 0 45.989-10.827 60.625-27.909"/>
    </g>
</svg>
