<svg width="350" height="275" viewBox="0 0 836 562" fill="none" xmlns="http://www.w3.org/2000/svg">
<rect width="836" height="562" fill="white"/>
<path d="M344.604 371.708C342.815 371.708 341.385 371.363 340.314 370.674C339.258 369.985 338.701 368.958 338.642 367.594H341.766C341.957 368.269 342.294 368.738 342.778 369.002C343.277 369.266 343.937 369.398 344.758 369.398C345.653 369.398 346.386 369.2 346.958 368.804C347.545 368.423 347.838 367.851 347.838 367.088C347.838 365.709 347.295 365.02 346.21 365.02H345.858V362.622H346.496C347.611 362.607 348.168 361.867 348.168 360.4C348.168 359.711 348.021 359.139 347.728 358.684C347.435 358.215 347.017 357.98 346.474 357.98C345.961 357.98 345.565 358.156 345.286 358.508C345.007 358.86 344.868 359.337 344.868 359.938V360.906C344.868 362.475 344.428 363.722 343.548 364.646C342.668 365.555 341.451 366.01 339.896 366.01C338.341 366.01 337.109 365.548 336.2 364.624C335.291 363.685 334.836 362.446 334.836 360.906C334.836 359.366 335.269 358.112 336.134 357.144C337.014 356.176 338.202 355.692 339.698 355.692C341.502 355.692 342.749 356.345 343.438 357.65H343.526C344.142 356.345 345.286 355.692 346.958 355.692C348.263 355.692 349.305 356.125 350.082 356.99C350.859 357.841 351.248 358.911 351.248 360.202C351.248 361.111 351.043 361.889 350.632 362.534C350.221 363.165 349.679 363.605 349.004 363.854V363.942C350.309 364.529 350.962 365.643 350.962 367.286C350.962 368.665 350.412 369.743 349.312 370.52C348.227 371.312 346.657 371.708 344.604 371.708ZM338.246 362.974C338.613 363.517 339.163 363.788 339.896 363.788C340.629 363.788 341.179 363.517 341.546 362.974C341.913 362.431 342.096 361.735 342.096 360.884C342.096 360.019 341.913 359.307 341.546 358.75C341.179 358.193 340.629 357.914 339.896 357.914C339.148 357.914 338.591 358.185 338.224 358.728C337.872 359.271 337.696 359.989 337.696 360.884C337.696 361.735 337.879 362.431 338.246 362.974ZM363.376 367C364.461 365.255 365.004 363.392 365.004 361.412C365.004 359.168 364.417 358.046 363.244 358.046C362.379 358.046 361.946 358.794 361.946 360.29V364.074H359.042V360.29C359.042 358.794 358.624 358.046 357.788 358.046C356.629 358.046 356.05 359.161 356.05 361.39C356.05 363.385 356.585 365.255 357.656 367H354.488C353.447 365.445 352.926 363.531 352.926 361.258C352.926 359.483 353.3 358.112 354.048 357.144C354.811 356.176 355.881 355.692 357.26 355.692C358.859 355.692 359.915 356.367 360.428 357.716H360.516C361.044 356.367 362.129 355.692 363.772 355.692C365.165 355.692 366.236 356.198 366.984 357.21C367.747 358.207 368.128 359.564 368.128 361.28C368.128 363.553 367.607 365.46 366.566 367H363.376ZM376.721 371.708C374.668 371.708 372.996 370.975 371.705 369.508C370.429 368.056 369.791 366.135 369.791 363.744C369.791 361.632 370.297 359.872 371.309 358.464C372.336 357.041 373.678 356.161 375.335 355.824H375.533C375.401 355.34 375.335 354.57 375.335 353.514H378.129C378.129 354.57 378.063 355.347 377.931 355.846H378.129C379.786 356.169 381.121 357.041 382.133 358.464C383.16 359.872 383.673 361.632 383.673 363.744C383.673 366.135 383.02 368.056 381.715 369.508C380.424 370.975 378.76 371.708 376.721 371.708ZM376.721 369.332C377.982 369.332 378.928 368.826 379.559 367.814C380.204 366.817 380.527 365.46 380.527 363.744C380.527 360.693 379.728 358.86 378.129 358.244L377.865 358.09C378.085 359.131 378.195 360.129 378.195 361.082V364.074H375.269V361.06C375.269 360.048 375.379 359.058 375.599 358.09L375.335 358.222C373.736 358.838 372.937 360.679 372.937 363.744C372.937 365.46 373.26 366.817 373.905 367.814C374.55 368.826 375.489 369.332 376.721 369.332ZM395.796 367C396.881 365.255 397.424 363.392 397.424 361.412C397.424 359.168 396.837 358.046 395.664 358.046C394.798 358.046 394.366 358.794 394.366 360.29V364.074H391.462V360.29C391.462 358.794 391.044 358.046 390.208 358.046C389.049 358.046 388.47 359.161 388.47 361.39C388.47 363.385 389.005 365.255 390.076 367H386.908C385.866 365.445 385.346 363.531 385.346 361.258C385.346 359.483 385.72 358.112 386.468 357.144C387.23 356.176 388.301 355.692 389.68 355.692C391.278 355.692 392.334 356.367 392.848 357.716H392.936C393.464 356.367 394.549 355.692 396.192 355.692C397.585 355.692 398.656 356.198 399.404 357.21C400.166 358.207 400.548 359.564 400.548 361.28C400.548 363.553 400.027 365.46 398.986 367H395.796ZM407.887 367.308C406.186 367.308 404.858 366.839 403.905 365.9C402.952 364.947 402.475 363.619 402.475 361.918V350.5H405.599V361.94C405.599 362.849 405.79 363.583 406.171 364.14C406.567 364.683 407.146 364.954 407.909 364.954C408.672 364.954 409.244 364.697 409.625 364.184C410.021 363.656 410.219 362.959 410.219 362.094C410.219 361.317 409.955 360.561 409.427 359.828C409.412 359.799 409.31 359.652 409.119 359.388C408.928 359.124 408.811 358.955 408.767 358.882C408.723 358.809 408.628 358.64 408.481 358.376C408.349 358.112 408.261 357.892 408.217 357.716C408.188 357.525 408.144 357.276 408.085 356.968C408.041 356.66 408.019 356.337 408.019 356H411.077C411.077 356.939 411.436 357.877 412.155 358.816C412.962 359.916 413.365 361.082 413.365 362.314C413.365 363.825 412.859 365.035 411.847 365.944C410.835 366.853 409.515 367.308 407.887 367.308ZM426.594 371.708C424.981 371.708 423.654 371.231 422.612 370.278C421.571 369.339 421.05 368.041 421.05 366.384C421.05 364.888 421.52 363.707 422.458 362.842C423.397 361.977 424.548 361.419 425.912 361.17C427.042 360.965 427.606 360.385 427.606 359.432C427.606 358.992 427.496 358.625 427.276 358.332C427.056 358.039 426.734 357.892 426.308 357.892C425.428 357.892 424.988 358.464 424.988 359.608H421.974C421.974 358.435 422.37 357.489 423.162 356.77C423.954 356.051 424.988 355.692 426.264 355.692C427.496 355.692 428.523 356.022 429.344 356.682C430.18 357.342 430.598 358.141 430.598 359.08C430.598 360.429 430.012 361.353 428.838 361.852V361.94C429.836 362.189 430.628 362.717 431.214 363.524C431.816 364.331 432.116 365.284 432.116 366.384C432.116 368.041 431.596 369.339 430.554 370.278C429.513 371.231 428.193 371.708 426.594 371.708ZM424.79 368.54C425.216 369.112 425.817 369.398 426.594 369.398C427.372 369.398 427.966 369.119 428.376 368.562C428.802 368.005 429.014 367.279 429.014 366.384C429.014 365.475 428.809 364.749 428.398 364.206C427.988 363.663 427.379 363.392 426.572 363.392C425.795 363.392 425.194 363.671 424.768 364.228C424.358 364.771 424.152 365.489 424.152 366.384C424.152 367.264 424.365 367.983 424.79 368.54ZM438.856 367.308C437.154 367.308 435.856 366.868 434.962 365.988C434.082 365.108 433.642 363.964 433.642 362.556C433.642 361.999 433.715 361.507 433.862 361.082H436.854C436.766 361.507 436.722 361.933 436.722 362.358C436.722 363.077 436.898 363.693 437.25 364.206C437.616 364.705 438.159 364.954 438.878 364.954C439.596 364.954 440.132 364.719 440.484 364.25C440.836 363.766 441.012 363.194 441.012 362.534C441.012 361.801 440.858 361.214 440.55 360.774C440.242 360.319 439.772 359.872 439.142 359.432C438.731 359.139 438.438 358.926 438.262 358.794C438.086 358.662 437.858 358.442 437.58 358.134C437.301 357.811 437.103 357.459 436.986 357.078C436.868 356.682 436.81 356.22 436.81 355.692H439.912C439.956 356.015 440.073 356.323 440.264 356.616C440.454 356.909 440.63 357.129 440.792 357.276C440.953 357.408 441.224 357.621 441.606 357.914C442.412 358.515 443.036 359.153 443.476 359.828C443.916 360.503 444.136 361.39 444.136 362.49C444.136 363.81 443.659 364.947 442.706 365.9C441.752 366.839 440.469 367.308 438.856 367.308ZM456.275 367C457.345 365.284 457.881 363.399 457.881 361.346C457.881 360.202 457.734 359.373 457.441 358.86C457.162 358.347 456.729 358.09 456.143 358.09C455.277 358.09 454.845 358.838 454.845 360.334V364.074H451.941V360.334C451.941 358.838 451.523 358.09 450.687 358.09C449.528 358.09 448.949 359.19 448.949 361.39C448.949 363.385 449.484 365.255 450.555 367H447.387C446.331 365.46 445.803 363.135 445.803 360.026C445.803 357.459 446.353 355.516 447.453 354.196C448.567 352.861 450.129 351.989 452.139 351.578L454.141 351.16C454.625 351.057 454.933 350.837 455.065 350.5H458.233C458.145 351.365 457.844 352.04 457.331 352.524C456.817 352.993 456.011 353.345 454.911 353.58L452.931 353.976C451.655 354.225 450.606 354.577 449.785 355.032C448.978 355.472 448.443 356.176 448.179 357.144H448.245C448.875 356.205 449.726 355.736 450.797 355.736C451.97 355.736 452.813 356.389 453.327 357.694H453.415C453.649 357.093 454.06 356.616 454.647 356.264C455.248 355.912 455.915 355.736 456.649 355.736C458.027 355.736 459.098 356.242 459.861 357.254C460.638 358.251 461.027 359.593 461.027 361.28C461.027 363.553 460.506 365.46 459.465 367H456.275ZM467.926 371.708C466.224 371.708 464.904 371.268 463.966 370.388C463.042 369.508 462.58 368.364 462.58 366.956C462.58 366.267 462.712 365.548 462.976 364.8H465.99C465.799 365.416 465.704 366.069 465.704 366.758C465.704 367.477 465.887 368.085 466.254 368.584C466.62 369.097 467.178 369.354 467.926 369.354C468.703 369.354 469.275 369.097 469.642 368.584C470.008 368.085 470.192 367.477 470.192 366.758V360.84C470.192 358.977 469.51 358.046 468.146 358.046C467.456 358.046 466.943 358.273 466.606 358.728C466.268 359.168 466.1 359.718 466.1 360.378C466.1 360.701 466.136 361.009 466.21 361.302H463.108C463.02 360.921 462.976 360.569 462.976 360.246C462.976 358.999 463.438 357.929 464.362 357.034C465.286 356.139 466.547 355.692 468.146 355.692C469.832 355.692 471.116 356.176 471.996 357.144C472.876 358.097 473.316 359.263 473.316 360.642V366.78C473.316 368.188 472.832 369.361 471.864 370.3C470.91 371.239 469.598 371.708 467.926 371.708ZM485.225 365.768C484.257 366.795 482.856 367.308 481.023 367.308C479.19 367.308 477.796 366.787 476.843 365.746C475.89 364.705 475.413 363.311 475.413 361.566C475.413 359.821 475.838 358.457 476.689 357.474C477.554 356.491 478.698 356 480.121 356C481.646 356 482.79 356.521 483.553 357.562H483.597V354.416C483.597 353.125 483.106 352.48 482.123 352.48C481.683 352.48 481.346 352.627 481.111 352.92C480.876 353.213 480.759 353.558 480.759 353.954V354.636H477.899V353.954C477.899 353.074 477.378 352.634 476.337 352.634C475.985 352.634 475.611 352.656 475.215 352.7V350.39C475.802 350.317 476.337 350.28 476.821 350.28C478.141 350.28 479.021 350.845 479.461 351.974H479.527C479.791 351.387 480.202 350.947 480.759 350.654C481.316 350.346 481.903 350.192 482.519 350.192C485.306 350.192 486.699 351.615 486.699 354.46V361.632C486.699 363.363 486.208 364.741 485.225 365.768ZM481.045 364.954C481.866 364.954 482.512 364.661 482.981 364.074C483.465 363.487 483.707 362.695 483.707 361.698C483.707 360.598 483.472 359.762 483.003 359.19C482.548 358.618 481.903 358.332 481.067 358.332C480.246 358.332 479.615 358.625 479.175 359.212C478.75 359.784 478.537 360.613 478.537 361.698C478.537 362.695 478.757 363.487 479.197 364.074C479.637 364.661 480.253 364.954 481.045 364.954ZM493.879 371.708C492.177 371.708 490.857 371.268 489.919 370.388C488.995 369.508 488.533 368.364 488.533 366.956C488.533 366.267 488.665 365.548 488.929 364.8H491.943C491.752 365.416 491.657 366.069 491.657 366.758C491.657 367.477 491.84 368.085 492.207 368.584C492.573 369.097 493.131 369.354 493.879 369.354C494.656 369.354 495.228 369.097 495.595 368.584C495.961 368.085 496.145 367.477 496.145 366.758V360.84C496.145 358.977 495.463 358.046 494.099 358.046C493.409 358.046 492.896 358.273 492.559 358.728C492.221 359.168 492.053 359.718 492.053 360.378C492.053 360.701 492.089 361.009 492.163 361.302H489.061C488.973 360.921 488.929 360.569 488.929 360.246C488.929 358.999 489.391 357.929 490.315 357.034C491.239 356.139 492.5 355.692 494.099 355.692C495.785 355.692 497.069 356.176 497.949 357.144C498.829 358.097 499.269 359.263 499.269 360.642V366.78C499.269 368.188 498.785 369.361 497.817 370.3C496.863 371.239 495.551 371.708 493.879 371.708Z" fill="#C6C8D0"/>
<path d="M502 237H493.899L473.066 190.126C472.122 188.006 470.584 186.204 468.638 184.94C466.692 183.675 464.421 183.001 462.101 183H373.899C371.578 183.001 369.308 183.675 367.362 184.94C365.416 186.205 363.878 188.006 362.934 190.126L342.101 237H334C332.409 237 330.883 237.632 329.757 238.757C328.632 239.883 328 241.409 328 243C328 244.591 328.632 246.117 329.757 247.243C330.883 248.368 332.409 249 334 249H340V309C340.004 312.181 341.269 315.232 343.519 317.481C345.768 319.731 348.819 320.996 352 321H370C373.181 320.996 376.232 319.731 378.481 317.481C380.731 315.232 381.996 312.181 382 309V297H454V309C454.004 312.181 455.269 315.232 457.519 317.481C459.768 319.731 462.819 320.996 466 321H484C487.181 320.996 490.232 319.731 492.481 317.481C494.731 315.232 495.996 312.181 496 309V249H502C503.591 249 505.117 248.368 506.243 247.243C507.368 246.117 508 244.591 508 243C508 241.409 507.368 239.883 506.243 238.757C505.117 237.632 503.591 237 502 237ZM382 273H370C368.409 273 366.883 272.368 365.757 271.243C364.632 270.117 364 268.591 364 267C364 265.409 364.632 263.883 365.757 262.757C366.883 261.632 368.409 261 370 261H382C383.591 261 385.117 261.632 386.243 262.757C387.368 263.883 388 265.409 388 267C388 268.591 387.368 270.117 386.243 271.243C385.117 272.368 383.591 273 382 273ZM454 273C452.409 273 450.883 272.368 449.757 271.243C448.632 270.117 448 268.591 448 267C448 265.409 448.632 263.883 449.757 262.757C450.883 261.632 452.409 261 454 261H466C467.591 261 469.117 261.632 470.243 262.757C471.368 263.883 472 265.409 472 267C472 268.591 471.368 270.117 470.243 271.243C469.117 272.368 467.591 273 466 273H454Z" fill="#E5E6EB"/>
</svg>
