<svg width="53" height="18" viewBox="0 0 53 18" fill="none" xmlns="http://www.w3.org/2000/svg">
<path d="M1.97787 6.19483C1.95431 6.2122 1.93533 6.23451 1.92243 6.25998C1.90952 6.28544 1.90304 6.31338 1.90349 6.34161V16.3912C1.90349 16.4334 1.91799 16.4745 1.94481 16.5083C1.96022 16.5269 1.97945 16.5423 2.00135 16.5537C2.02324 16.565 2.04735 16.5721 2.07221 16.5744C2.09707 16.5768 2.12218 16.5743 2.14601 16.5673C2.16985 16.5602 2.19191 16.5486 2.21089 16.5333L4.66351 14.5643C5.16519 14.1617 5.80179 13.9404 6.46 13.9397H14.9252C14.9503 13.9393 14.9752 13.9342 14.9983 13.9247C15.0214 13.9152 15.0423 13.9015 15.0598 13.8844C15.0773 13.8673 15.091 13.8471 15.1002 13.825C15.1095 13.8028 15.114 13.7792 15.1136 13.7554V6.3463C15.1137 6.31796 15.1069 6.28997 15.0937 6.26451C15.0805 6.23906 15.0613 6.21681 15.0375 6.19952L8.63 1.46517C8.59757 1.44085 8.55737 1.42762 8.51597 1.42762C8.47456 1.42762 8.43437 1.44085 8.40193 1.46517L1.97787 6.19483ZM0.581328 6.34161C0.580237 6.11485 0.633848 5.89082 0.738085 5.68655C0.842322 5.48228 0.994449 5.30313 1.18292 5.16271L7.60203 0.433047C7.86109 0.240301 8.18126 0.135498 8.51101 0.135498C8.84076 0.135498 9.16093 0.240301 9.42 0.433047L15.8408 5.16271C16.029 5.30321 16.1809 5.48241 16.2848 5.68669C16.3888 5.89096 16.4421 6.11496 16.4407 6.34161V13.7507C16.4478 14.1356 16.2928 14.5074 16.0099 14.7844C15.7269 15.0614 15.3391 15.2209 14.9318 15.2279H6.46661C6.1155 15.2286 5.77618 15.3476 5.5097 15.5636L3.05047 17.5357C2.86731 17.6833 2.64897 17.7868 2.41418 17.8371C2.141 17.888 1.85832 17.8677 1.59634 17.7786C1.33436 17.6895 1.10293 17.5349 0.926748 17.3312C0.703581 17.0646 0.582946 16.7342 0.584637 16.3943C0.563152 10.8823 0.569759 6.86627 0.581328 6.34161ZM23.1738 14.7157C22.6857 14.7279 22.2 14.6471 21.7457 14.4781C21.2914 14.309 20.8778 14.0553 20.5295 13.732C20.1723 13.3949 19.8911 12.993 19.7027 12.5505C19.5144 12.108 19.4229 11.634 19.4337 11.1572V1.74624C19.4249 1.42692 19.5476 1.11681 19.7758 0.881185C19.8811 0.769214 20.0108 0.680215 20.1561 0.620357C20.3013 0.560498 20.4586 0.531218 20.6171 0.534545C20.7852 0.534123 20.9516 0.565243 21.1069 0.626104C21.2621 0.686964 21.403 0.776352 21.5214 0.889076C21.6398 1.0018 21.7333 1.13561 21.7965 1.28276C21.8598 1.4299 21.8914 1.58745 21.8897 1.74624V11.1572C21.8897 11.9254 22.3326 12.347 23.1176 12.3579H23.1738C23.337 12.3553 23.499 12.3847 23.6495 12.4444C23.8 12.504 23.9358 12.5927 24.0481 12.7046C24.1623 12.8161 24.2516 12.9483 24.3107 13.0931C24.3697 13.238 24.3973 13.3926 24.3918 13.5478C24.4005 13.7018 24.375 13.8559 24.3171 14.0001C24.2592 14.1444 24.1701 14.2756 24.0554 14.3855C23.9408 14.4954 23.8032 14.5815 23.6514 14.6384C23.4997 14.6952 23.337 14.7216 23.1738 14.7157ZM27.7551 3.20621C27.5765 3.2074 27.3997 3.17344 27.2358 3.1065C27.0719 3.03956 26.9246 2.94109 26.8032 2.81739C26.6737 2.6944 26.5718 2.5481 26.5033 2.38716C26.4349 2.22622 26.4014 2.05393 26.4048 1.88052C26.4041 1.53126 26.5469 1.19537 26.8032 0.943647C26.9254 0.821696 27.0731 0.725116 27.237 0.660061C27.4009 0.595005 27.5774 0.562899 27.7551 0.565776C27.9327 0.563935 28.1088 0.596516 28.2725 0.661509C28.4363 0.726503 28.5842 0.822525 28.7071 0.943647C28.9627 1.19573 29.1054 1.53139 29.1054 1.88052C29.1084 2.05388 29.0748 2.22607 29.0063 2.38696C28.9379 2.54785 28.8362 2.69419 28.7071 2.81739C28.5841 2.93966 28.4362 3.03715 28.2724 3.10397C28.1085 3.17079 27.932 3.20558 27.7535 3.20621H27.7551ZM27.7551 14.8141C27.4233 14.8096 27.1066 14.6826 26.8728 14.4602C26.6389 14.2378 26.5066 13.9377 26.504 13.6243V5.47812C26.5072 5.16115 26.6426 4.85816 26.8808 4.63493C26.9956 4.52268 27.1329 4.43322 27.2847 4.37182C27.4366 4.31041 27.5999 4.27831 27.765 4.27737C27.9276 4.27624 28.0886 4.3075 28.2375 4.36911C28.3865 4.43072 28.52 4.52129 28.6294 4.63493C28.8486 4.86711 28.9702 5.16703 28.9715 5.47812V13.6243C28.975 13.78 28.9456 13.9348 28.8848 14.0796C28.8241 14.2244 28.7333 14.3563 28.6178 14.4675C28.5074 14.5791 28.3734 14.6676 28.2245 14.7274C28.0756 14.7871 27.9152 14.8166 27.7535 14.8141H27.7551ZM35.7525 14.7266C35.5066 14.7292 35.2654 14.6628 35.0595 14.5357C34.8535 14.4087 34.6921 14.2268 34.5956 14.0131L31.077 5.97624C31.0052 5.8223 30.9643 5.65711 30.9564 5.48906C30.9583 5.17606 31.0845 4.87514 31.3101 4.64587C31.4213 4.52866 31.5577 4.43516 31.7102 4.37162C31.8626 4.30809 32.0276 4.27596 32.1943 4.27737C32.4333 4.2825 32.6658 4.3525 32.8639 4.47903C33.062 4.60556 33.2174 4.78327 33.3115 4.99095L35.7244 10.7028L38.1242 5.00189C38.2167 4.79002 38.3729 4.60843 38.5735 4.47964C38.7742 4.35086 39.0104 4.28053 39.253 4.27737C39.4199 4.27584 39.5852 4.30789 39.7379 4.37143C39.8907 4.43497 40.0273 4.52854 40.1388 4.64587C40.3507 4.87709 40.4679 5.17231 40.4694 5.47812C40.4682 5.65302 40.4306 5.826 40.3586 5.98716L36.8615 14.0131C36.5921 14.5174 36.2302 14.7266 35.7509 14.7266H35.7525ZM46.7596 14.836C46.048 14.8348 45.3442 14.6971 44.6908 14.4311C44.0373 14.165 43.4479 13.7764 42.9583 13.2885C41.9258 12.2962 41.3492 10.9591 41.3536 9.5676C41.3485 8.17019 41.92 6.8259 42.9468 5.82009C43.4363 5.33229 44.0257 4.94357 44.6792 4.67757C45.3326 4.41157 46.0365 4.27382 46.748 4.27268C47.4613 4.27596 48.1667 4.41461 48.8223 4.68043C49.4778 4.94625 50.0701 5.33382 50.5641 5.82009C51.579 6.83226 52.145 8.17332 52.1457 9.5676C52.1536 10.9556 51.5859 12.2913 50.5641 13.2885C50.0707 13.7726 49.4798 14.1583 48.8261 14.423C48.1723 14.6877 47.4691 14.826 46.7579 14.8297L46.7596 14.836ZM46.7596 12.4344C47.1504 12.4343 47.5371 12.3594 47.8964 12.2142C48.2557 12.069 48.5802 11.8566 48.8502 11.5897C49.3986 11.043 49.7033 10.3178 49.7012 9.56462C49.699 8.8114 49.3902 8.08784 48.8387 7.54393C48.5698 7.2807 48.2476 7.07135 47.8912 6.92836C47.5349 6.78537 47.1517 6.71168 46.7645 6.71168C46.3773 6.71168 45.9942 6.78537 45.6378 6.92836C45.2814 7.07135 44.9592 7.2807 44.6904 7.54393C44.137 8.08759 43.8279 8.81256 43.8279 9.56682C43.8279 10.3211 44.137 11.046 44.6904 11.5897C44.9566 11.8553 45.2771 12.0672 45.6324 12.2124C45.9878 12.3576 46.3707 12.4331 46.7579 12.4344H46.7596Z" fill="#1552F5"/>
</svg>
