<svg width="67" height="20" viewBox="0 0 67 20" fill="none" xmlns="http://www.w3.org/2000/svg">
<path d="M57.1628 0.499268H10.008C5.03384 0.499268 0.997681 4.63758 0.997681 9.73761V10.2622C0.997681 15.3622 5.03384 19.5005 10.008 19.5005H57.1344C62.1086 19.5005 66.1447 15.3622 66.1447 10.2622V9.73761C66.1731 4.63758 62.137 0.499268 57.1628 0.499268Z" fill="#26B571"/>
<path d="M48.9198 10.2034C48.9198 14.1377 45.7932 17.3435 41.9276 17.3435H10.3773C6.54006 17.3435 3.38503 14.1377 3.38503 10.2034V9.79541C3.38503 5.86109 6.51163 2.65535 10.3773 2.65535H41.8991C45.7363 2.65535 48.8914 5.86109 48.8914 9.79541V10.2034H48.9198Z" fill="white"/>
<path d="M52.7003 11.3991C52.7003 11.8363 52.3308 12.2151 51.9044 12.2151C51.4496 12.2151 51.1086 11.8363 51.1086 11.3991C51.1086 10.962 51.4496 10.5831 51.9044 10.5831C52.3308 10.5831 52.7003 10.962 52.7003 11.3991Z" fill="white"/>
<path d="M57.3331 7.66888C57.0488 7.72716 56.7077 7.78545 56.2245 7.78545C56.8214 8.04774 57.1057 8.39748 57.1057 9.00949C57.1057 9.94206 56.3667 10.5832 55.1729 10.5832C54.9739 10.5832 54.8034 10.5832 54.6328 10.5249C54.5191 10.5832 54.4623 10.6998 54.4623 10.7872C54.4623 10.9329 54.5191 11.0786 54.9739 11.0786H55.6845C56.7646 11.0786 57.4468 11.6615 57.4468 12.4483C57.4468 13.4392 56.594 14.0221 55.0023 14.0221C53.439 14.0221 52.899 13.5558 52.8137 12.7689C52.7853 12.6232 52.9274 12.5067 53.0695 12.5067H53.8369C53.9506 12.5067 54.0359 12.5649 54.0643 12.6815C54.1212 12.9729 54.377 13.0895 55.0592 13.0895C55.8834 13.0895 56.054 12.8563 56.054 12.5649C56.054 12.2735 55.8834 12.0986 55.4002 12.0986H54.7181C53.6948 12.0986 53.2969 11.6615 53.2969 11.166C53.2969 10.8163 53.5243 10.4666 53.8369 10.2626C53.24 9.94203 53.0127 9.53403 53.0127 8.89288C53.0127 7.81459 53.8369 7.1443 55.0592 7.1443C55.9403 7.17344 56.5088 6.96947 56.992 6.67804C57.1057 6.61976 57.2762 6.67804 57.3331 6.82376L57.5036 7.3483C57.5604 7.49402 57.4752 7.63973 57.3331 7.66888ZM54.4054 8.89288C54.4054 9.41746 54.6897 9.70889 55.116 9.70889C55.5708 9.70889 55.7982 9.41746 55.7982 8.89288C55.7982 8.36831 55.5708 8.10602 55.116 8.10602C54.6897 8.07688 54.4054 8.39745 54.4054 8.89288Z" fill="white"/>
<path d="M61.9947 10.1171H59.124C59.2092 10.9622 59.6072 11.1954 60.1756 11.1954C60.4883 11.1954 60.7725 11.108 61.0852 10.904C61.1989 10.8165 61.341 10.8748 61.3979 10.9622L61.6821 11.3702C61.7674 11.4868 61.7389 11.6325 61.6252 11.72C61.1989 12.0114 60.6588 12.2445 60.0051 12.2445C58.4702 12.2445 57.6743 11.2245 57.6743 9.73824C57.6743 8.31023 58.4418 7.17365 59.8345 7.17365C61.1705 7.17365 61.9663 8.07708 61.9663 9.62167C61.9947 9.73824 61.9947 9.97138 61.9947 10.1171ZM60.6588 9.18452C60.6304 8.54337 60.4599 8.07708 59.8914 8.07708C59.4366 8.07708 59.1524 8.36851 59.0955 9.24281H60.6304V9.18452H60.6588Z" fill="white"/>
<path d="M14.6122 8.77545V12.3309C14.6122 12.4766 14.4985 12.5932 14.3564 12.5932H13.3332C13.191 12.5932 13.0773 12.4766 13.0773 12.3309V9.03774C13.0773 8.48402 12.9068 8.33831 12.651 8.33831C12.3383 8.33831 12.1109 8.6006 11.8835 9.0086V12.3018C11.8835 12.4475 11.7699 12.5641 11.6277 12.5641H10.5761C10.4624 12.5641 10.3487 12.4475 10.3487 12.3018V9.03774C10.3487 8.48402 10.1497 8.33831 9.89388 8.33831C9.58121 8.33831 9.35383 8.6006 9.12644 9.0086V12.3018C9.12644 12.4475 9.01274 12.5641 8.89905 12.5641H7.84737C7.73368 12.5641 7.59159 12.4475 7.59159 12.3018V7.60973C7.59159 7.46402 7.70525 7.34744 7.84737 7.34744H8.72853C8.84223 7.34744 8.92747 7.43487 8.95589 7.55144L9.04117 7.95945C9.4391 7.43487 9.89388 7.17259 10.5192 7.17259C11.0877 7.17259 11.5141 7.46402 11.713 7.98859C12.111 7.43487 12.5941 7.17259 13.2194 7.17259C14.0722 7.20173 14.6122 7.78459 14.6122 8.77545Z" fill="#414042"/>
<path d="M39 8.77538V12.3308C39 12.4765 38.8863 12.5931 38.7442 12.5931H37.7209C37.5788 12.5931 37.4651 12.4765 37.4651 12.3308V9.03767C37.4651 8.48395 37.2945 8.33823 37.0387 8.33823C36.7261 8.33823 36.4987 8.60052 36.2713 9.00852V12.3017C36.2713 12.4474 36.1576 12.564 36.0155 12.564H34.9638C34.8501 12.564 34.7364 12.4474 34.7364 12.3017V9.03767C34.7364 8.48395 34.5374 8.33823 34.2816 8.33823C33.969 8.33823 33.7416 8.60052 33.5142 9.00852V12.3017C33.5142 12.4474 33.4005 12.564 33.2868 12.564H32.2351C32.1214 12.564 31.9793 12.4474 31.9793 12.3017V7.60966C31.9793 7.46394 32.093 7.34737 32.2351 7.34737H33.1163C33.23 7.34737 33.3152 7.4348 33.3437 7.55137L33.4289 7.95937C33.8269 7.4348 34.2816 7.17251 34.907 7.17251C35.4754 7.17251 35.9018 7.46394 36.1007 7.98852C36.4987 7.4348 36.9819 7.17251 37.6072 7.17251C38.4599 7.20165 39 7.78452 39 8.77538Z" fill="#414042"/>
<path d="M18.5631 12.5941C18.1652 13.8472 17.3693 14.5758 15.9482 14.7215C15.8345 14.7215 15.6923 14.6341 15.6923 14.5175L15.6071 13.9055C15.5787 13.7889 15.6639 13.6432 15.7776 13.6432C16.4598 13.5266 16.8293 13.2935 17.0567 12.8563C16.8861 12.8272 16.6872 12.5358 16.6303 12.3318L15.2376 7.69802C15.1807 7.5523 15.2944 7.37744 15.465 7.37744H16.5451C16.6588 7.37744 16.744 7.46487 16.8009 7.58145L17.6536 11.6032L18.62 7.58145C18.6484 7.46487 18.7337 7.40659 18.8474 7.40659H19.8991C20.0696 7.40659 20.1833 7.58145 20.1264 7.72716L18.5631 12.5941Z" fill="#414042"/>
<path d="M31.0697 9.97071C31.0697 11.6319 30.1318 12.7393 28.5968 12.7393C27.062 12.7393 26.124 11.7193 26.124 9.97071C26.124 8.30955 27.062 7.20212 28.5968 7.20212C30.1318 7.20212 31.0697 8.22213 31.0697 9.97071ZM27.6589 9.97071C27.6589 11.1073 27.9715 11.6027 28.5684 11.6027C29.1653 11.6027 29.478 11.1073 29.478 9.97071C29.478 8.80499 29.1653 8.3387 28.5684 8.3387C27.9715 8.3387 27.6589 8.83413 27.6589 9.97071Z" fill="#414042"/>
<path d="M44.6278 9.88374C44.6278 8.19345 43.7467 7.23172 42.2971 7.23172C40.7622 7.23172 39.9379 8.45573 39.9379 10.0295C39.9379 11.6615 40.7906 12.7689 42.4961 12.7689C43.1498 12.7689 43.6898 12.5649 44.1446 12.2735C44.173 12.2735 44.173 12.2443 44.2015 12.2443C44.2299 12.2443 44.2583 12.2152 44.2583 12.186C44.372 12.0986 44.4004 11.9529 44.3152 11.8655L44.0025 11.37C43.8888 11.1952 43.7183 11.2826 43.6898 11.2826C43.633 11.3118 43.5762 11.37 43.4909 11.3992C43.2066 11.574 42.9224 11.6323 42.6097 11.6323C41.9844 11.6323 41.5581 11.37 41.4444 10.4375H44.5994C44.5994 10.2917 44.6278 10.0586 44.6278 9.88374ZM41.4728 9.50488C41.5296 8.5723 41.8423 8.25173 42.3539 8.25173C42.9508 8.25173 43.1782 8.74716 43.1782 9.4466V9.50488H41.4728Z" fill="#414042"/>
<path d="M25.1862 8.72227C25.1862 7.73141 24.6462 7.14855 23.7934 7.14855C23.1965 7.14855 22.7418 7.38169 22.3438 7.87713V5.34168C22.3438 5.19597 22.2301 5.07939 22.088 5.10854L21.0648 5.22511C20.9511 5.25425 20.8374 5.34168 20.8374 5.4874V12.3069C20.8374 12.4526 20.9511 12.5692 21.0932 12.5692H22.1164C22.2586 12.5692 22.3723 12.4526 22.3723 12.3069V8.98456C22.6281 8.57656 22.9123 8.31427 23.2534 8.31427C23.5376 8.31427 23.7366 8.45999 23.7366 9.01371V12.3069C23.7366 12.4526 23.8503 12.5692 23.9924 12.5692H25.0157C25.1578 12.5692 25.2715 12.4526 25.2715 12.3069L25.1862 8.72227Z" fill="#414042"/>
</svg>
