<svg width="62" height="20" viewBox="0 0 62 20" fill="none" xmlns="http://www.w3.org/2000/svg">
<path d="M52.6006 0.475586H10.216C5.10062 0.475586 0.959595 4.61661 0.959595 9.732V10.2557C0.959595 15.3711 5.10062 19.5121 10.216 19.5121H52.6006C57.716 19.5121 61.857 15.3711 61.857 10.2557V9.732C61.857 4.61661 57.716 0.475586 52.6006 0.475586Z" fill="#A155B9"/>
<path d="M44.1236 10.207C44.1236 14.1653 40.9083 17.3685 36.9499 17.3685H10.5935C6.63518 17.3685 3.4198 14.1653 3.4198 10.207V9.79289C3.4198 5.83455 6.63518 2.63135 10.5935 2.63135H36.9499C40.9083 2.63135 44.1236 5.83455 44.1236 9.79289V10.207Z" fill="white"/>
<path d="M48.009 11.4127C48.009 11.8512 47.6314 12.2287 47.193 12.2287C46.7302 12.2287 46.377 11.8512 46.377 11.4127C46.377 10.9742 46.7302 10.5967 47.193 10.5967C47.6314 10.5967 48.009 10.9742 48.009 11.4127Z" fill="white"/>
<path d="M52.7833 7.67365C52.491 7.74673 52.1378 7.78327 51.6506 7.78327C52.2596 8.03904 52.5519 8.40442 52.5519 9.0134C52.5519 9.93904 51.7968 10.6089 50.5666 10.6089C50.3596 10.6089 50.1891 10.5967 50.0186 10.5602C49.9089 10.6089 49.8481 10.7307 49.8481 10.8281C49.8481 10.9743 49.909 11.1083 50.3718 11.1083H51.1025C52.2109 11.1083 52.9295 11.6929 52.9295 12.4967C52.9295 13.4833 52.0525 14.0801 50.4205 14.0801C48.8128 14.0801 48.2647 13.6051 48.1551 12.8256C48.1307 12.6794 48.2647 12.5576 48.4109 12.5576H49.2025C49.3122 12.5576 49.4096 12.6307 49.4339 12.7403C49.4948 13.0204 49.7506 13.1422 50.457 13.1422C51.2974 13.1422 51.4801 12.9108 51.4801 12.6063C51.4801 12.3262 51.2974 12.1313 50.8102 12.1313H50.116C49.0686 12.1313 48.6545 11.7051 48.6545 11.1935C48.6545 10.8525 48.8859 10.4871 49.2147 10.2801C48.6057 9.95122 48.35 9.53712 48.35 8.91596C48.35 7.83199 49.2147 7.16212 50.4448 7.16212C51.3461 7.18647 51.9307 6.97942 52.4301 6.68712C52.5519 6.61404 52.7224 6.68712 52.7833 6.83327L52.9538 7.35699C53.0147 7.49096 52.9295 7.63712 52.7833 7.67365ZM49.775 8.87942C49.775 9.40314 50.0673 9.68327 50.5057 9.68327C50.9686 9.68327 51.2243 9.40314 51.2243 8.85506C51.2243 8.33135 50.9929 8.07558 50.5057 8.07558C50.0673 8.08776 49.775 8.39224 49.775 8.87942Z" fill="white"/>
<path d="M57.5577 10.1095H54.6102C54.6955 10.9621 55.1096 11.1935 55.6942 11.1935C56.0109 11.1935 56.3032 11.0961 56.632 10.9012C56.7417 10.8281 56.8878 10.8646 56.9731 10.9499L57.2654 11.364C57.3506 11.4736 57.3263 11.632 57.2045 11.7172C56.766 12.0095 56.2179 12.2287 55.5481 12.2287C53.9526 12.2287 53.1609 11.2057 53.1609 9.71977C53.1609 8.28259 53.9404 7.1499 55.3776 7.1499C56.7417 7.1499 57.582 8.05118 57.582 9.5858C57.582 9.75631 57.582 9.97554 57.5577 10.1095ZM56.2058 9.19606C56.1814 8.55054 55.9987 8.0999 55.4263 8.0999C54.9391 8.0999 54.6711 8.40439 54.6102 9.25695H56.2058V9.19606Z" fill="white"/>
<path d="M14.9173 8.80651V12.3629C14.9173 12.4969 14.8077 12.6187 14.6615 12.6187H13.6141C13.4679 12.6187 13.3583 12.5091 13.3583 12.3629V9.07445C13.3583 8.5142 13.1756 8.36804 12.9199 8.36804C12.6032 8.36804 12.3596 8.62381 12.1404 9.05009V12.3629C12.1404 12.4969 12.0186 12.6187 11.8846 12.6187H10.8128C10.691 12.6187 10.5814 12.5091 10.5814 12.3629V9.07445C10.5814 8.5142 10.3744 8.36804 10.1186 8.36804C9.80192 8.36804 9.55833 8.62381 9.32692 9.05009V12.3629C9.32692 12.4969 9.2173 12.6187 9.09551 12.6187H8.02371C7.90192 12.6187 7.76794 12.5091 7.76794 12.3629V7.64945C7.76794 7.51548 7.88974 7.39368 8.02371 7.39368H8.925C9.04679 7.39368 9.13205 7.47894 9.15641 7.60074L9.24166 8.01484C9.64359 7.49112 10.1186 7.23535 10.7519 7.23535C11.3365 7.23535 11.775 7.52766 11.982 8.05138C12.3961 7.5033 12.8833 7.23535 13.5288 7.23535C14.3692 7.23535 14.9173 7.81997 14.9173 8.80651Z" fill="#414042"/>
<path d="M18.9731 12.6186C18.5712 13.8609 17.7551 14.616 16.2692 14.7621C16.1474 14.7743 16.0135 14.6891 16.0013 14.5551L15.916 13.9339C15.8917 13.8121 15.9769 13.6782 16.0987 13.666C16.8051 13.5442 17.1705 13.3128 17.4141 12.8743C17.2436 12.8378 17.0365 12.5577 16.9756 12.3628L15.5263 7.7224C15.4654 7.56407 15.5872 7.39355 15.7577 7.39355H16.866C16.9878 7.39355 17.0731 7.47881 17.1218 7.58843L17.9987 11.6077L18.9853 7.57625C19.0096 7.46663 19.1071 7.39355 19.2167 7.39355H20.2885C20.459 7.39355 20.5808 7.56407 20.5199 7.7224L18.9731 12.6186Z" fill="#414042"/>
<path d="M38.2288 9.39109C37.291 9.11097 37.157 9.00135 37.157 8.72122C37.157 8.48981 37.3641 8.33148 37.7904 8.33148C38.1314 8.33148 38.4602 8.41673 38.7769 8.57507C38.8134 8.58725 38.8378 8.61161 38.8743 8.62379C38.984 8.68468 39.1423 8.64814 39.2154 8.53853L39.5199 8.03917C39.5929 7.92955 39.5564 7.77122 39.4468 7.71032C39.4102 7.68597 39.325 7.63725 39.325 7.63725C38.8865 7.38148 38.3263 7.22314 37.7295 7.22314C36.4141 7.22314 35.5981 7.91738 35.5981 8.81866C35.5981 9.6225 36.1096 10.1584 37.1327 10.4507C38.0705 10.7187 38.2288 10.8283 38.2288 11.1815C38.2288 11.4981 37.9487 11.6687 37.4737 11.6687C37.0718 11.6687 36.6942 11.5469 36.3532 11.3398C36.3167 11.3033 36.2679 11.2789 36.2314 11.2424C36.134 11.1693 35.9878 11.218 35.9147 11.3276L35.5372 11.8513C35.4641 11.961 35.4885 12.1071 35.5737 12.1924C35.6102 12.2167 35.6346 12.2411 35.6711 12.2655C36.1583 12.5821 36.7917 12.7892 37.5224 12.7892C38.8135 12.7892 39.8365 12.1558 39.8365 11.0719C39.8365 10.1219 39.2641 9.6834 38.2288 9.39109Z" fill="#414042"/>
<path d="M34.9039 9.96357C34.9039 11.5956 34.1244 12.7649 32.809 12.7649C32.2244 12.7649 31.7494 12.5091 31.4327 12.095L31.3962 12.3508C31.3718 12.4969 31.25 12.5943 31.1039 12.5943H30.2635C30.1052 12.5943 29.9712 12.4604 29.9712 12.302V5.4937C29.9712 5.34755 30.0808 5.21357 30.2391 5.20139L31.2257 5.09178C31.3962 5.06742 31.5545 5.21357 31.5545 5.38408V7.85652C31.8712 7.41806 32.3827 7.15011 32.9795 7.15011C34.2097 7.16229 34.9039 8.19755 34.9039 9.96357ZM33.284 9.96357C33.284 8.62383 32.9308 8.30716 32.4314 8.30716C32.0782 8.30716 31.7616 8.53857 31.5423 8.92831V11.1206C31.7372 11.4373 32.0295 11.6322 32.3705 11.6322C32.9064 11.6322 33.284 11.2059 33.284 9.96357Z" fill="#414042"/>
<path d="M23.1872 12.0461C23.1872 13.6538 22.4199 14.2994 21.3116 14.7378C21.1776 14.7865 21.0193 14.7378 20.9584 14.6038L20.6539 13.934C20.593 13.8 20.6539 13.6417 20.7757 13.5808C21.3116 13.3128 21.6161 12.984 21.6161 12.1436V7.67371C21.6161 7.52756 21.7379 7.40576 21.884 7.40576H22.9071C23.0533 7.40576 23.175 7.52756 23.175 7.67371V12.0461H23.1872Z" fill="#414042"/>
<path d="M29.1795 10.0001C29.1795 11.6687 28.2173 12.7648 26.6218 12.7648C25.0506 12.7648 24.0641 11.7417 24.0641 9.98789C24.0641 8.3193 25.0263 7.22314 26.6218 7.22314C28.2051 7.23532 29.1795 8.24622 29.1795 10.0001ZM25.6718 10.0001C25.6718 11.1571 25.9884 11.6321 26.6096 11.6321C27.2429 11.6321 27.5474 11.1328 27.5474 10.0122C27.5474 8.8552 27.2308 8.36802 26.6096 8.36802C25.9884 8.35584 25.6718 8.86738 25.6718 10.0001Z" fill="#414042"/>
<path d="M23.3333 5.61542C23.3333 6.12696 22.9436 6.50452 22.3955 6.50452C21.8474 6.50452 21.4698 6.11478 21.4698 5.61542C21.4698 5.10388 21.8474 4.72632 22.3955 4.72632C22.9436 4.72632 23.3333 5.11606 23.3333 5.61542Z" fill="#414042"/>
</svg>
