<svg width="104" height="27" viewBox="0 0 104 27" fill="none" xmlns="http://www.w3.org/2000/svg"><path d="M66.5556 5.16986C65.5593 5.15404 64.7483 5.92273 64.7483 6.87037V15.2139L55.5699 5.30543H52.0606L52.0665 19.4172C52.0665 20.3662 52.8778 21.1324 53.8738 21.1164C54.8507 21.1006 55.6157 20.2969 55.6157 19.3614V10.7237L65.2652 20.8527L68.2192 20.8579L68.2975 6.92505C68.2975 5.98938 67.5322 5.1859 66.5556 5.16986ZM102.226 5.22521H87.9722V8.62488H93.6974V19.417C93.6974 20.3558 94.4919 21.1168 95.4721 21.1168C96.4523 21.1168 97.2468 20.3558 97.2468 19.417V8.62488H102.225C103.205 8.62488 104 7.86388 104 6.92505C104 5.98622 103.205 5.22521 102.225 5.22521H102.226ZM33.9636 6.92505C33.9636 7.86388 34.7581 8.62488 35.7383 8.62488H40.7166V19.417C40.7166 20.3558 41.5112 21.1168 42.4913 21.1168C43.4715 21.1168 44.2661 20.3558 44.2661 19.417V8.62488H49.9915V5.22521H35.7383C34.7581 5.22521 33.9636 5.98622 33.9636 6.92505ZM70.5629 10.1458V16.0458C70.5629 18.7635 72.8632 20.9668 75.7007 20.9668H85.8512V17.566H74.1123V14.7956H85.8512V11.3962H74.1123V8.62578H85.8512V5.22499H75.7007C72.8632 5.22499 70.5629 7.42824 70.5629 10.146V10.1458ZM12.2065 11.5101C11.2556 12.4209 11.2556 13.8977 12.2065 14.8085C13.1575 15.7193 14.6994 15.7193 15.6503 14.8085C16.6012 13.8975 16.6012 12.4209 15.6503 11.5101C14.6994 10.5992 13.1575 10.5992 12.2065 11.5101ZM19.8437 16.5556C20.3587 16.7291 20.9093 16.5913 21.2712 16.2446C21.4118 16.1097 21.5241 15.9434 21.5944 15.7518C22.6277 12.9394 21.8744 9.76119 19.6751 7.65442C17.475 5.54742 14.1568 4.82618 11.2212 5.81743C10.5066 6.05875 10.131 6.80959 10.383 7.49444C10.6349 8.1793 11.4191 8.53879 12.1341 8.29725C14.0785 7.64064 16.2766 8.1183 17.7336 9.514C19.1905 10.9092 19.6892 13.0151 19.0046 14.879C18.7529 15.5638 19.1287 16.3145 19.8437 16.5556ZM23.7959 5.9164C23.1464 6.29261 22.9395 7.10084 23.3323 7.7222C25.9527 11.8691 25.2792 17.1636 21.6944 20.5974C18.1096 24.0309 12.5819 24.6762 8.25206 22.1664C7.60356 21.7904 6.7602 21.9876 6.36694 22.6106C5.9744 23.2317 6.18199 24.0402 6.8305 24.4162C12.2443 27.5544 19.1549 26.7487 23.6357 22.457C28.1165 18.1652 28.9577 11.5462 25.6812 6.36085C25.2887 5.73948 24.4446 5.54064 23.7959 5.91663V5.9164ZM6.16336 5.7214C9.74794 2.28807 15.2761 1.64275 19.6071 4.15194C20.1587 4.47144 20.8515 4.37564 21.2879 3.9574C21.3646 3.88397 21.4335 3.80036 21.4922 3.70727C21.8846 3.08591 21.677 2.27768 21.028 1.90169C15.6132 -1.23542 8.70241 -0.429222 4.22209 3.86205C-0.259397 8.15445 -1.10087 14.7739 2.17562 19.9593C2.56816 20.5804 3.41223 20.7793 4.06073 20.4033C4.70971 20.0275 4.91707 19.2191 4.52429 18.5977C1.90385 14.4506 2.57783 9.15564 6.16336 5.7214ZM16.5097 20.5425C16.7185 20.4756 16.8989 20.3658 17.0447 20.2261C17.4009 19.8847 17.547 19.3675 17.3764 18.8788C17.136 18.1901 16.3585 17.8184 15.6394 18.0486C13.6899 18.6725 11.5762 18.1955 10.123 16.8036C8.67056 15.4125 8.1728 13.3882 8.82413 11.5211C9.06452 10.8324 8.67646 10.0875 7.95742 9.85722C7.23838 9.62675 6.46036 9.99912 6.22045 10.6874C5.23672 13.5061 5.98832 16.5623 8.18153 18.663C10.3757 20.7646 13.5668 21.4847 16.5097 20.5425Z" fill="#3C74FF"></path></svg>