<svg width="80" height="22" viewBox="0 0 80 22" fill="none" xmlns="http://www.w3.org/2000/svg"><path d="M51.0037 4.4199C50.2381 4.40714 49.6148 5.02769 49.6148 5.79271V12.5283L42.561 4.52935H39.8641L39.8686 15.9216C39.8686 16.6878 40.4921 17.3063 41.2575 17.2934C42.0083 17.2806 42.5962 16.6318 42.5962 15.8766V8.9035L50.012 17.0805L52.2822 17.0847L52.3424 5.83685C52.3424 5.0815 51.7543 4.43286 51.0037 4.4199ZM78.4167 4.46459H67.4628V7.20911H71.8627V15.9215C71.8627 16.6794 72.4733 17.2937 73.2266 17.2937C73.9799 17.2937 74.5905 16.6794 74.5905 15.9215V7.20911H78.4166C79.1697 7.20911 79.7805 6.59476 79.7805 5.83685C79.7805 5.07895 79.1697 4.46459 78.4166 4.46459H78.4167ZM25.9562 5.83685C25.9562 6.59476 26.5668 7.20911 27.3201 7.20911H31.146V15.9215C31.146 16.6794 31.7566 17.2937 32.5099 17.2937C33.2632 17.2937 33.8738 16.6794 33.8738 15.9215V7.20911H38.2739V4.46459H27.3201C26.5668 4.46459 25.9562 5.07895 25.9562 5.83685ZM54.0834 8.4369V13.1999C54.0834 15.3939 55.8512 17.1726 58.0319 17.1726H65.8327V14.4272H56.8112V12.1907H65.8327V9.44634H56.8112V7.20984H65.8327V4.46441H58.0319C55.8512 4.46441 54.0834 6.24307 54.0834 8.43708V8.4369ZM9.23553 9.53828C8.50472 10.2736 8.50472 11.4658 9.23553 12.2011C9.96634 12.9364 11.1513 12.9364 11.8821 12.2011C12.6129 11.4656 12.6129 10.2736 11.8821 9.53828C11.1513 8.80299 9.96634 8.80299 9.23553 9.53828ZM15.1048 13.6114C15.5006 13.7515 15.9238 13.6403 16.2019 13.3605C16.3099 13.2516 16.3962 13.1173 16.4503 12.9626C17.2443 10.6922 16.6655 8.12644 14.9752 6.42566C13.2844 4.72471 10.7343 4.14246 8.47825 4.94269C7.9291 5.1375 7.64048 5.74364 7.8341 6.29652C8.02773 6.8494 8.63036 7.13961 9.17987 6.94461C10.6741 6.41454 12.3635 6.80015 13.4831 7.92688C14.6028 9.05325 14.9861 10.7533 14.46 12.258C14.2665 12.8109 14.5553 13.4168 15.1048 13.6114ZM18.1421 5.02258C17.643 5.32629 17.484 5.97876 17.7859 6.48039C19.7997 9.82812 19.2821 14.1023 16.5271 16.8744C13.7721 19.6462 9.52397 20.1672 6.19644 18.141C5.69806 17.8375 5.04992 17.9967 4.7477 18.4996C4.44602 19.0011 4.60556 19.6537 5.10395 19.9572C9.26454 22.4907 14.5755 21.8402 18.019 18.3756C21.4626 14.9109 22.1091 9.56746 19.591 5.38138C19.2894 4.87976 18.6407 4.71924 18.1421 5.02276V5.02258ZM4.59124 4.86516C7.34605 2.09347 11.5946 1.57251 14.923 3.59816C15.3469 3.85608 15.8793 3.77874 16.2147 3.4411C16.2737 3.38182 16.3266 3.31433 16.3717 3.23918C16.6732 2.73756 16.5137 2.08508 16.015 1.78155C11.8536 -0.751 6.54254 -0.100168 3.09934 3.36413C-0.344761 6.82933 -0.991449 12.1732 1.52659 16.3592C1.82827 16.8607 2.47695 17.0212 2.97533 16.7177C3.47408 16.4143 3.63344 15.7617 3.33158 15.2601C1.31773 11.9121 1.8357 7.63758 4.59124 4.86516ZM12.5426 16.83C12.703 16.776 12.8417 16.6874 12.9538 16.5747C13.2275 16.2991 13.3397 15.8815 13.2087 15.487C13.0239 14.931 12.4264 14.6309 11.8738 14.8168C10.3755 15.3204 8.7511 14.9354 7.63431 13.8117C6.51806 12.6886 6.13553 11.0545 6.63609 9.54721C6.82083 8.99123 6.5226 8.38983 5.97 8.20396C5.41741 8.0179 4.81949 8.31851 4.63511 8.87413C3.8791 11.1497 4.45671 13.6169 6.14223 15.3128C7.82848 17.0093 10.2809 17.5907 12.5426 16.83Z" fill="white"></path></svg>