<svg width="67" height="18" viewBox="0 0 67 18" fill="none" xmlns="http://www.w3.org/2000/svg">
<path fill-rule="evenodd" clip-rule="evenodd" d="M2.32905 0.573516H57.8911L53.4434 17.4264H2.32905C1.21527 17.4264 0.549561 16.5565 0.549561 15.5306V2.46926C0.549561 1.44341 1.21527 0.572998 2.32905 0.572998" fill="#0FA8FF"/>
<path fill-rule="evenodd" clip-rule="evenodd" d="M64.9816 17.4261H53.4432L57.8909 0.573242H64.9816C66.0949 0.573242 66.7606 1.44314 66.7606 2.46898V15.5304C66.7606 16.5562 66.0949 17.4266 64.9816 17.4266" fill="#FF3150"/>
<path fill-rule="evenodd" clip-rule="evenodd" d="M52.3296 17.4132V17.4261H54.5571V17.4132C54.5571 16.7899 54.0835 16.3096 53.4434 16.3096C52.8033 16.3096 52.3296 16.7899 52.3296 17.4132ZM53.4418 13.1999V13.2258C53.4418 13.8491 53.9154 14.3294 54.5555 14.3294C55.1957 14.3294 55.6688 13.8491 55.6688 13.2258V13.1999C55.6688 12.5767 55.1951 12.0964 54.5555 12.0964C53.9154 12.0964 53.4418 12.5767 53.4418 13.1999ZM54.5539 8.98672V9.01263C54.5539 9.63591 55.0271 10.1162 55.6672 10.1162C56.3073 10.1162 56.781 9.63591 56.781 9.01263V8.98672C56.781 8.36344 56.3073 7.88316 55.6672 7.88316C55.0271 7.88316 54.5534 8.36344 54.5534 8.98672M55.6656 4.77351V4.79941C55.6656 5.42269 56.1393 5.90297 56.7794 5.90297C57.4195 5.90297 57.8926 5.42269 57.8926 4.79941V4.77351C57.8926 4.15023 57.4189 3.66995 56.7794 3.66995C56.1393 3.66995 55.6656 4.15023 55.6656 4.77351ZM56.7772 0.573242V0.586195C56.7772 1.20947 57.2509 1.68975 57.891 1.68975C58.5311 1.68975 59.0048 1.20947 59.0048 0.586195V0.573242H56.7772ZM44.3534 13.5051H49.384C49.8705 13.5051 50.2679 13.1155 50.2679 12.6223C50.2679 12.1285 49.8705 11.7259 49.384 11.7259H45.3263V9.81776H48.7445C49.2304 9.81776 49.6273 9.42815 49.6273 8.93491C49.6273 8.44116 49.2304 8.03859 48.7445 8.03859H45.3258V6.19518H49.32C49.806 6.19518 50.2028 5.80557 50.2028 5.31233C50.2028 4.81858 49.806 4.41601 49.32 4.41601H44.3528C43.8029 4.41601 43.3676 4.85796 43.3676 5.41595V12.5052C43.3676 13.0637 43.8029 13.5051 44.3528 13.5051H44.3534ZM38.0724 13.6605C39.4166 13.6605 40.4791 13.2062 41.2089 12.7518C41.682 12.4663 41.8996 12.0637 41.8996 11.4793V9.2722C41.8996 8.7142 41.4644 8.27226 40.9139 8.27226H38.6613C38.1876 8.27226 37.8035 8.66187 37.8035 9.14267C37.8035 9.62295 38.1876 9.99961 38.6613 9.99961H39.9921V11.298C39.4934 11.6612 38.8533 11.843 38.1364 11.843C36.5489 11.843 35.4223 10.6224 35.4223 8.96082V8.93491C35.4223 7.38941 36.5617 6.10399 37.9956 6.10399C38.8405 6.10399 39.4166 6.33818 39.9543 6.72727C40.0951 6.83089 40.2743 6.93503 40.556 6.93503C41.0931 6.93503 41.5284 6.49361 41.5284 5.94856C41.5284 5.55895 41.3107 5.28643 41.1187 5.14343C40.3122 4.57196 39.4166 4.26058 38.0596 4.26058C35.3461 4.26058 33.3617 6.37704 33.3617 8.96082V8.98672C33.3617 11.6741 35.282 13.6611 38.0724 13.6611V13.6605ZM30.0465 12.4534V12.4793C30.0465 13.1025 30.5202 13.5828 31.1603 13.5828C31.8004 13.5828 32.2741 13.1025 32.2741 12.4793V12.4534C32.2741 11.8301 31.8004 11.3498 31.1603 11.3498C30.5202 11.3498 30.0465 11.8301 30.0465 12.4534ZM25.2548 12.5829C25.2548 13.1414 25.6901 13.5828 26.2406 13.5828C26.7911 13.5828 27.2263 13.1414 27.2263 12.5829V6.26046H29.1205C29.6198 6.26046 30.0295 5.84494 30.0295 5.33824C30.0295 4.83257 29.6198 4.41705 29.1205 4.41705H23.3607C22.8614 4.41705 22.4517 4.83257 22.4517 5.33876C22.4517 5.84494 22.8614 6.26098 23.3607 6.26098H25.2548V12.5839V12.5829ZM13.9447 12.5829C13.9447 13.1414 14.38 13.5828 14.9305 13.5828C15.481 13.5828 15.9157 13.1414 15.9157 12.5829V10.7659L17.0423 9.70119L19.6027 13.1031C19.8204 13.3885 20.0508 13.5833 20.4349 13.5833C21.0109 13.5833 21.4329 13.1678 21.4329 12.6093C21.4329 12.3109 21.3182 12.1031 21.1646 11.9088L18.4121 8.40282L20.9336 6.01384C21.1512 5.80609 21.2921 5.57242 21.2921 5.26104C21.2921 4.76729 20.9336 4.33882 20.3836 4.33882C20.038 4.33882 19.7948 4.48181 19.5515 4.72843L15.9157 8.38987V5.33824C15.9157 4.78024 15.481 4.33882 14.9305 4.33882C14.38 4.33882 13.9447 4.78024 13.9447 5.33876V12.5839V12.5829ZM7.97418 12.5829C7.97418 13.1414 8.40945 13.5828 8.95994 13.5828C9.5099 13.5828 9.94517 13.1414 9.94517 12.5829V6.26046H11.8399C12.3392 6.26046 12.7488 5.84494 12.7488 5.33824C12.7488 4.83257 12.3392 4.41705 11.8399 4.41705H6.07948C5.5802 4.41705 5.17053 4.83257 5.17053 5.33876C5.17053 5.84494 5.5802 6.26098 6.07948 6.26098H7.97418V12.5839V12.5829Z" fill="#FFFFFE"/>
</svg>
