<svg width="24" height="24" viewBox="0 0 24 24" fill="none" xmlns="http://www.w3.org/2000/svg">
<path d="M20.6213 5.39046C20.0568 5.72904 19.8733 6.47675 20.212 7.04106C22.4985 10.8219 21.9198 15.6468 18.7865 18.7787C15.6533 21.9106 10.8264 22.5031 7.04391 20.2036C6.47936 19.865 5.74545 20.0343 5.39261 20.6127C5.05388 21.177 5.23736 21.9106 5.8019 22.2633C10.53 25.1272 16.5707 24.3936 20.4802 20.4716C24.3897 16.5638 25.1236 10.5257 22.2726 5.79958C21.9339 5.23527 21.1859 5.05187 20.6213 5.39046Z" fill="#3C74FF"/>
<path d="M5.22345 5.22123C8.3567 2.08931 13.1836 1.49679 16.9661 3.79635C17.446 4.09261 18.0528 3.99386 18.4339 3.61295C18.5045 3.54241 18.5609 3.47187 18.6174 3.38722C18.9561 2.82291 18.7726 2.08931 18.2081 1.73662C13.48 -1.12725 7.43931 -0.39365 3.5298 3.5283C-0.393818 7.43615 -1.12773 13.4743 1.73736 18.2004C2.07609 18.7647 2.82412 18.9481 3.38866 18.6095C3.95321 18.2709 4.13669 17.5232 3.79796 16.9589C1.49742 13.178 2.0902 8.35315 5.22345 5.22123Z" fill="#3C74FF"/>
<path d="M17.1771 15.0967C17.6287 15.2519 18.1086 15.1249 18.4191 14.8145C18.5461 14.6876 18.6449 14.5465 18.7014 14.3631C19.6047 11.7955 18.9413 8.9034 17.0219 6.98475C15.1024 5.0661 12.195 4.40304 9.64037 5.30593C9.01936 5.53165 8.69475 6.20883 8.90645 6.82957C9.13227 7.45031 9.80973 7.77479 10.4307 7.56317C12.1244 6.97064 14.0439 7.39388 15.3282 8.67768C16.5984 9.94738 17.036 11.866 16.4432 13.5731C16.2174 14.1938 16.542 14.871 17.1771 15.0967Z" fill="#3C74FF"/>
<path d="M14.2563 18.7364C14.4398 18.68 14.595 18.5812 14.7221 18.4543C15.0326 18.1439 15.1596 17.6783 15.0185 17.2269C14.8067 16.592 14.1293 16.2534 13.4942 16.4651C11.7864 17.0294 9.95162 16.592 8.68138 15.3364C7.41114 14.0667 6.97362 12.2186 7.55228 10.5257C7.76399 9.90496 7.42526 9.21368 6.79014 9.00207C6.15502 8.79045 5.47756 9.12904 5.26586 9.76389C4.40492 12.3315 5.06826 15.1248 6.97362 17.0294C8.89309 18.9339 11.6876 19.5829 14.2563 18.7364Z" fill="#3C74FF"/>
<path d="M10.5015 10.4976C9.66878 11.3299 9.66878 12.6701 10.5015 13.5025C11.3342 14.3349 12.675 14.3349 13.5077 13.5025C14.3404 12.6701 14.3404 11.3299 13.5077 10.4976C12.675 9.6652 11.3342 9.6652 10.5015 10.4976Z" fill="#3C74FF"/>
</svg>
